<svg width="130" height="27" viewBox="0 0 130 27" fill="none" xmlns="http://www.w3.org/2000/svg">
<path fill-rule="evenodd" clip-rule="evenodd" d="M119.282 12.2582C119.282 12.2481 119.277 12.2075 119.278 12.217C119.224 11.7445 119.109 11.2808 118.937 10.8374C118.696 10.2104 118.326 9.6407 117.85 9.16515C117.391 8.71466 116.839 8.36834 116.233 8.14985C115.602 7.92117 114.935 7.8063 114.264 7.81062C113.605 7.80761 112.95 7.9225 112.332 8.14985C111.727 8.37037 111.175 8.71643 110.714 9.16515C110.233 9.64077 109.856 10.21 109.605 10.8374C109.423 11.293 109.302 11.7708 109.246 12.2582C109.211 12.5528 109.193 12.8491 109.194 13.1457C109.179 13.9329 109.313 14.7158 109.591 15.4529C109.831 16.0785 110.201 16.6463 110.678 17.1185C111.139 17.5661 111.69 17.9104 112.295 18.1285C112.926 18.3571 113.593 18.472 114.264 18.4677C114.947 18.4732 115.626 18.3584 116.269 18.1285C116.873 17.9139 117.423 17.5691 117.878 17.1185C118.346 16.6441 118.709 16.0765 118.943 15.4529C119.216 14.7147 119.348 13.9322 119.332 13.1457C119.333 12.8492 119.316 12.5529 119.282 12.2582ZM116.785 14.5021C116.676 14.8785 116.496 15.2311 116.256 15.5413C116.029 15.8287 115.737 16.0585 115.404 16.2119C115.044 16.3679 114.655 16.4484 114.262 16.4484C113.869 16.4484 113.48 16.3679 113.119 16.2119C112.789 16.0572 112.5 15.8275 112.274 15.5413C112.034 15.2312 111.855 14.8786 111.746 14.5021C111.618 14.0615 111.556 13.6044 111.562 13.1457C111.561 12.8493 111.586 12.5534 111.636 12.2612C111.664 12.1043 111.701 11.949 111.746 11.796C111.854 11.4169 112.033 11.0617 112.274 10.7496C112.501 10.4626 112.789 10.2307 113.119 10.0718C113.477 9.90358 113.869 9.82017 114.265 9.82808C114.658 9.82321 115.046 9.9048 115.403 10.067C115.737 10.2204 116.028 10.4502 116.255 10.7377C116.497 11.0501 116.676 11.4054 116.784 11.7846C116.831 11.9432 116.868 12.1044 116.896 12.2672C116.945 12.5585 116.969 12.8534 116.968 13.1487C116.974 13.6063 116.912 14.0623 116.785 14.5021ZM107.287 8.04414V12.2582V18.261H104.995V8.04414H107.287ZM103.232 15.46C103.254 15.8823 103.175 16.3038 103.001 16.6895C102.827 17.0753 102.564 17.4144 102.233 17.6787C101.345 18.2681 100.285 18.5457 99.2212 18.4677C98.8131 18.4706 98.4054 18.4436 98.0014 18.3871C97.6768 18.3407 97.3554 18.274 97.0392 18.1876C96.7941 18.1207 96.5539 18.0371 96.3203 17.9373C96.147 17.8627 95.9779 17.779 95.8135 17.6865L96.4587 15.859C97.3072 16.311 98.2594 16.5346 99.2212 16.5076C99.4902 16.5133 99.759 16.4862 100.022 16.4269C100.203 16.3855 100.375 16.3103 100.529 16.2054C100.647 16.1225 100.739 16.0072 100.793 15.8733C100.844 15.7367 100.869 15.5919 100.867 15.4463C100.866 15.2791 100.822 15.115 100.739 14.9693C100.657 14.8236 100.539 14.7011 100.397 14.6131C99.8915 14.3041 99.3476 14.0631 98.779 13.8965C98.4467 13.777 98.1138 13.6418 97.7803 13.4909C97.4542 13.3439 97.1514 13.1502 96.8816 12.9158C96.667 12.726 96.4829 12.5044 96.3359 12.2588L96.3323 12.2517L96.3287 12.2457C96.2963 12.1908 96.2652 12.1352 96.2358 12.0773C96.0593 11.7018 95.9737 11.2902 95.986 10.8756C95.979 10.4362 96.0694 10.0006 96.2508 9.59996C96.4235 9.22565 96.6797 8.89555 96.9997 8.63481C97.3475 8.356 97.7469 8.14803 98.1751 8.02267C98.6806 7.87364 99.2057 7.80154 99.7328 7.80884C100.78 7.78708 101.816 8.03038 102.744 8.51597L102.085 10.3298C101.78 10.174 101.463 10.0434 101.137 9.93918C100.729 9.81756 100.305 9.76033 99.879 9.76957C99.4714 9.73925 99.063 9.81823 98.6964 9.99831C98.5789 10.0722 98.4836 10.1762 98.4203 10.2995C98.3571 10.4227 98.3282 10.5607 98.3369 10.6989C98.3311 10.8658 98.3774 11.0304 98.4693 11.1701C98.5697 11.3094 98.697 11.4273 98.8437 11.5171C99.0204 11.6275 99.2072 11.7211 99.4015 11.7966C99.6124 11.8802 99.845 11.9662 100.099 12.0546C100.259 12.1143 100.412 12.174 100.558 12.2337L100.597 12.2499L100.624 12.2606C100.938 12.3878 101.223 12.5138 101.479 12.6387C101.839 12.8082 102.169 13.0347 102.456 13.3094C102.714 13.5627 102.913 13.8698 103.037 14.2088C103.175 14.6113 103.241 15.0348 103.232 15.46ZM94.0941 8.04414V18.261H91.8019V8.04414H94.0941ZM89.7008 10.2539C89.4894 10.8511 88.7914 12.6942 88.7315 12.8489C88.3784 13.7531 88.0062 14.6673 87.6148 15.5914C87.2234 16.5155 86.8267 17.4048 86.4249 18.2592H84.2215C83.8193 17.4048 83.4225 16.5155 83.031 15.5914C82.6392 14.6669 81.16 10.8685 80.9378 10.2539C80.6386 9.42814 80.3814 8.69154 80.1661 8.04414H82.6931C82.8892 8.6342 83.1023 9.27126 83.3324 9.9553C83.5624 10.6385 84.5396 13.4049 84.7349 13.9437C84.9609 14.5624 85.1716 15.0979 85.3669 15.5502C85.5531 15.0983 85.7613 14.5628 85.9918 13.9437C86.1919 13.4061 86.489 12.5808 86.6969 11.9967C86.9366 11.3198 87.1716 10.6393 87.4021 9.9553C87.6325 9.27126 87.8454 8.6342 88.0407 8.04414H90.4797C90.2544 8.69273 89.9948 9.42992 89.7008 10.2557V10.2539ZM47.1107 8.04414V12.2582V18.261H45.1864C44.5306 17.0916 43.8204 15.937 43.056 14.7971C42.4904 13.9526 41.6145 12.7987 40.9693 11.9901C40.8495 11.8479 40.7363 11.7052 40.617 11.5648V18.2587H38.3548V8.04414H40.2204C40.5439 8.36863 40.9014 8.76679 41.2928 9.23861C41.6842 9.71042 42.0836 10.2143 42.491 10.7502C42.8193 11.1826 43.1458 11.6305 43.4711 12.0892L43.5694 12.2284L43.576 12.2379L43.591 12.2588C43.6281 12.3108 43.6653 12.3634 43.7018 12.4165C44.1032 12.9919 44.4802 13.5447 44.8329 14.075V8.04297L47.1107 8.04414ZM36.6648 16.3296V18.261H29.451V12.2582V8.04414H36.3269V9.9756H31.7431V11.9805H35.8122V12.2582V13.8708H31.7431V16.332L36.6648 16.3296ZM27.7621 16.3296V18.261H20.5483V8.04414H27.4236V9.9756H22.8399V11.9805H26.9096V12.2582V13.8708H22.8399V16.332L27.7621 16.3296ZM18.506 17.1185C18.3003 16.7311 18.0872 16.3576 17.8667 15.9981C17.6463 15.6386 17.4236 15.2946 17.1988 14.9661C16.9727 14.6368 16.7572 14.3444 16.5523 14.0888C17.1138 13.8753 17.6045 13.5103 17.9698 13.0346C18.1439 12.803 18.2698 12.5391 18.34 12.2582V12.2547V12.2499V12.2403C18.4222 11.9295 18.4625 11.6092 18.4599 11.2877C18.4951 10.7947 18.4013 10.3011 18.1874 9.85512C17.9736 9.4092 17.6471 9.02631 17.2401 8.74409C16.1751 8.13495 14.9543 7.85048 13.7288 7.92588C13.3074 7.92588 12.8299 7.94581 12.2963 7.98563C11.776 8.02327 11.2584 8.09206 10.7464 8.19166V18.2617H13.0386V14.5319H14.1697C14.365 14.768 14.5609 15.0308 14.7574 15.3203C14.9539 15.6097 15.1522 15.9171 15.3523 16.2424C15.552 16.5669 15.7479 16.901 15.94 17.2446C16.1311 17.5892 16.3199 17.9272 16.5056 18.2599H19.0763C18.9018 17.8872 18.7113 17.5067 18.506 17.1185ZM13.6874 12.7032H13.041V9.93142C13.1608 9.92127 13.2806 9.91172 13.4154 9.90156C13.5502 9.89141 13.697 9.8872 13.8635 9.8872C14.437 9.8537 15.0099 9.96248 15.5309 10.2038C15.7174 10.3099 15.8697 10.4668 15.9698 10.6562C16.07 10.8455 16.1139 11.0594 16.0964 11.2728C16.1093 11.4548 16.0815 11.6374 16.0148 11.8073C15.9482 11.9772 15.8445 12.1302 15.7112 12.2553C15.6574 12.3014 15.5997 12.3428 15.5386 12.3789C14.9575 12.6364 14.3218 12.7478 13.6874 12.7032ZM130 8.04476V18.2617H128.075C127.419 17.0923 126.709 15.9376 125.945 14.7977C125.373 13.9437 124.474 12.7623 123.826 11.9542C123.72 11.8258 123.614 11.695 123.506 11.5678V18.2617H121.244V8.04414H123.11C123.433 8.36863 123.791 8.76679 124.183 9.23861C124.575 9.71042 124.974 10.2143 125.381 10.7502C125.751 11.2364 126.118 11.7392 126.483 12.2588H126.465L126.589 12.4165C126.991 12.9919 127.368 13.5447 127.72 14.075V8.04297L130 8.04476ZM8.62203 12.8662V17.923C8.19115 18.0731 7.74901 18.1889 7.29979 18.2694C6.55817 18.4041 5.8051 18.4659 5.05137 18.4539C4.34273 18.4634 3.63834 18.3434 2.97309 18.0998C2.37174 17.8774 1.82729 17.5249 1.37888 17.0678C0.923802 16.5915 0.576491 16.0235 0.360395 15.4021C0.109538 14.6768 -0.0121008 13.9134 0.00094889 13.1463C0.00120457 12.8498 0.0185925 12.5534 0.0530558 12.2588L0.0560542 12.2325C0.111292 11.7676 0.22606 11.3116 0.397547 10.8756C0.640825 10.2498 1.01078 9.68054 1.48433 9.20339C1.94529 8.74577 2.49874 8.39129 3.10787 8.16359C3.74418 7.92525 4.41897 7.80542 5.09869 7.81004C5.53392 7.80656 5.96875 7.8385 6.39876 7.90558C6.7362 7.95846 7.06994 8.03249 7.39805 8.12717C7.63464 8.19469 7.86542 8.28097 8.0882 8.38518C8.26793 8.47357 8.39915 8.54224 8.47763 8.59121L7.81863 10.4343C7.47429 10.2546 7.11307 10.109 6.74022 9.99951C6.30865 9.87291 5.86066 9.81071 5.41082 9.81495C4.9822 9.77515 4.55017 9.83503 4.1487 9.98985C3.74722 10.1447 3.38725 10.3902 3.09709 10.7072C2.75225 11.1578 2.5304 11.6896 2.45308 12.2511C2.40725 12.5475 2.38418 12.847 2.38415 13.1469C2.37998 13.6077 2.44051 14.0669 2.56391 14.511C2.66874 14.8934 2.84853 15.2512 3.09292 15.5639C3.32773 15.8593 3.62986 16.0946 3.9742 16.2502C4.36278 16.4197 4.78368 16.5028 5.20773 16.4938C5.46295 16.4938 5.68101 16.4885 5.86194 16.4789C6.02302 16.4715 6.1833 16.4516 6.34125 16.4192V12.8662H8.62203Z" fill="#393D38"/>
<path d="M57.0796 10.1918C57.4097 13.6211 61.5771 15.9008 65.7187 16.5178C65.208 13.9006 64.95 11.2407 64.9482 8.5745C63.7428 8.24184 61.6687 7.77364 61.2194 7.68226C60.7206 7.58192 60.2131 7.53149 59.7043 7.53175C58.7895 7.54071 56.8843 8.16062 57.0796 10.1918ZM74.2061 12.3383C72.1646 11.1997 70.0276 10.2405 67.8191 9.47156C67.7125 11.9148 67.1953 14.3228 66.289 16.5954C70.439 17.0564 74.3847 15.8178 74.2061 12.3353V12.3383ZM77.2789 13.1392C77.2789 15.7379 76.506 18.2782 75.0577 20.4389C73.6094 22.5996 71.5509 24.2837 69.1425 25.2782C66.7342 26.2727 64.0841 26.5329 61.5274 26.0259C58.9706 25.5189 56.6222 24.2675 54.7789 22.43C52.9356 20.5924 51.6803 18.2513 51.1717 15.7025C50.6632 13.1538 50.9242 10.5119 51.9217 8.11105C52.9193 5.71018 54.6087 3.65812 56.7762 2.21437C58.9436 0.77062 61.4919 0 64.0987 0C67.5942 0.000158392 70.9465 1.38455 73.4182 3.8486C75.8898 6.31266 77.2784 9.65455 77.2784 13.1392H77.2789ZM53.7798 7.21221C54.2948 7.00605 54.8426 6.89302 55.3974 6.87838C56.3527 6.94367 57.3193 7.04421 58.297 7.17998C57.8684 7.1549 57.4431 7.13796 57.0209 7.12921C55.891 7.1949 53.5785 8.10569 53.9523 10.6858C55.22 19.4299 75.2803 21.3165 75.2713 12.9099C75.5194 13.0512 75.765 13.1945 76.0083 13.3398C76.0083 13.273 76.0083 13.2061 76.0083 13.1392C76.0074 10.5254 75.1414 7.98502 73.5445 5.91199C71.9476 3.83896 69.7091 2.3492 67.1762 1.67378C64.6434 0.998369 61.9577 1.17507 59.5359 2.17646C57.114 3.17785 55.0913 4.94794 53.7816 7.21221H53.7798ZM74.7094 18.5304C69.3414 22.5319 55.4645 19.876 52.1868 13.1553C52.19 15.8211 53.093 18.4083 54.7504 20.5002C56.4079 22.5922 58.7234 24.0673 61.324 24.6879C63.9246 25.3086 66.6591 25.0387 69.0871 23.9217C71.5152 22.8048 73.4956 20.9058 74.7094 18.5304Z" fill="#009B44"/>
</svg>
