<svg width="29" height="29" viewBox="0 0 29 29" fill="none" xmlns="http://www.w3.org/2000/svg">
<g clip-path="url(#clip0)">
<path d="M18.7016 13.8331H23.4234V15.2737H18.7016V13.8331Z" fill="#009B3E" stroke="white" stroke-width="0.2"/>
<path d="M7.11719 13.8331H7.21719V13.7331V12.1925H8.65781V13.7331V13.8331H8.75781H10.2984V15.2737H8.75781H8.65781V15.3737V16.9143H7.21719V15.3737V15.2737H7.11719H5.57656V13.8331H7.11719Z" fill="#009B3E" stroke="white" stroke-width="0.2"/>
<path d="M26.7047 23.5768V23.6768H26.8047H28.4V28.3987H0.6V23.6768H2.19531H2.29531V23.5768V8.91122H3.83594H3.93594V8.81122V5.62997H5.47656H5.57656V5.52997V3.5941L10.4545 0.621841L14.4375 3.80828L14.5 3.85826L14.5625 3.80828L18.5455 0.621841L23.4234 3.5941V5.52997V5.62997H23.5234H25.0641V8.81122V8.91122H25.1641H26.7047V23.5768ZM23.6234 7.17059V7.07059H23.5234H21.8828H21.7828V7.17059V8.81122V8.91122H21.8828H23.5234H23.6234V8.81122V7.17059ZM7.06515 4.37411L7.01719 4.40333V4.4595V5.52997V5.62997H7.11719H8.65781V8.81122V8.91122H8.75781H20.2422H20.3422V8.81122V5.62997H21.8828H21.9828V5.52997V4.4595V4.40333L21.9348 4.37411L18.7175 2.41369L18.6577 2.37725L18.603 2.421L14.5 5.70312L10.397 2.421L10.3423 2.37725L10.2825 2.41369L7.06515 4.37411ZM5.47656 7.07059H5.37656V7.17059V8.81122V8.91122H5.47656H7.11719H7.21719V8.81122V7.17059V7.07059H7.11719H5.47656ZM3.83594 10.3518H3.73594V10.4518V23.5768V23.6768H3.83594H25.1641H25.2641V23.5768V10.4518V10.3518H25.1641H3.83594ZM26.8594 26.9581H26.9594V26.8581V25.2175V25.1175H26.8594H2.14062H2.04062V25.2175V26.8581V26.9581H2.14062H26.8594Z" fill="#009B3E" stroke="white" stroke-width="0.2"/>
<path d="M14.071 17.1143H17.2046L15.2059 22.1109L13.8684 21.5759L15.0218 18.6921L15.0767 18.555H14.929H11.7954L13.7941 13.5585L15.1316 14.0934L13.9782 16.9772L13.9233 17.1143H14.071Z" fill="#009B3E" stroke="white" stroke-width="0.2"/>
</g>
<defs>
<clipPath id="clip0">
<rect width="28" height="28" fill="white" transform="translate(0.5 0.5)"/>
</clipPath>
</defs>
</svg>
