<svg width="29" height="21" viewBox="0 0 29 21" fill="none" xmlns="http://www.w3.org/2000/svg">
<path d="M6.36119 15.3821L6.36089 15.3821C6.25249 15.3821 6.14702 15.3469 6.06035 15.2818C5.97369 15.2167 5.91053 15.1252 5.88039 15.0211L4.524 10.3355C4.524 10.3355 4.52399 10.3355 4.52399 10.3355C4.50572 10.2724 4.50005 10.2063 4.50732 10.141C4.51459 10.0757 4.53466 10.0125 4.56637 9.95498C4.59809 9.89744 4.64083 9.84673 4.69215 9.80572C4.74345 9.76473 4.80232 9.73426 4.8654 9.71602L6.36119 15.3821ZM6.36119 15.3821C6.40824 15.3819 6.45503 15.3752 6.50022 15.3621L6.50029 15.3621L24.0987 10.2605L24.0987 10.2605C24.4486 10.159 24.7439 9.92275 24.9197 9.60363C25.0955 9.28451 25.1374 8.90866 25.0361 8.55868L25.0361 8.5586L23.9202 4.71274L6.36119 15.3821ZM5.62393 10.5375L6.70346 14.2626L23.819 9.30003C23.9143 9.27238 23.9947 9.20805 24.0426 9.12116C24.0905 9.0343 24.1019 8.932 24.0744 8.83671L5.62393 10.5375ZM5.62393 10.5375L23.0987 5.47115L24.0744 8.8366L5.62393 10.5375ZM23.3002 4.37124L4.8655 9.716L23.7523 4.60167C23.7194 4.56058 23.6788 4.52636 23.6327 4.50099C23.5867 4.47561 23.5361 4.45957 23.4838 4.45378C23.4315 4.448 23.3786 4.45258 23.3281 4.46726L23.3002 4.37122L23.3002 4.37124Z" fill="#009B3E" stroke="#009B3E" stroke-width="0.2"/>
<path d="M14.8506 13.7582L14.8506 13.7584C14.9118 13.9618 15.0368 14.1401 15.2072 14.2669C15.3776 14.3937 15.5843 14.4623 15.7967 14.4624H15.7968C15.889 14.4625 15.9809 14.4494 16.0695 14.4237L19.467 13.4389L19.4671 13.4389C19.5918 13.4027 19.7083 13.3422 19.8096 13.2608C19.9109 13.1795 19.9951 13.0789 20.0575 12.9649C20.1198 12.8509 20.1589 12.7257 20.1726 12.5964C20.1864 12.4672 20.1744 12.3366 20.1375 12.212L20.1375 12.212L19.7747 10.99C19.7747 10.99 19.7747 10.99 19.7747 10.99C19.7371 10.8634 19.651 10.7568 19.5351 10.6935C19.4192 10.6302 19.283 10.6152 19.1562 10.652L14.8246 11.9072C14.8246 11.9072 14.8246 11.9072 14.8246 11.9072C14.7612 11.9255 14.7021 11.9562 14.6507 11.9974C14.5992 12.0387 14.5565 12.0897 14.5248 12.1476C14.4932 12.2054 14.4733 12.269 14.4663 12.3346C14.4593 12.4001 14.4654 12.4664 14.4841 12.5297L14.4842 12.5298L14.8506 13.7582ZM15.805 13.4594L15.5877 12.7273L18.9576 11.7521L19.1746 12.4824L15.805 13.4594ZM15.8092 13.4735L15.8091 13.4734L15.8092 13.4735Z" fill="#009B3E" stroke="#009B3E" stroke-width="0.2"/>
<path d="M5.00373 10.6961L5.00324 10.6961C4.93436 10.6964 4.86617 10.6825 4.80299 10.655L4.80307 10.6551L4.84271 10.5633L4.80288 10.655L5.00373 10.6961ZM5.00373 10.6961C5.05058 10.6956 5.09713 10.6886 5.14204 10.6752C5.14219 10.6752 5.14233 10.6751 5.14248 10.6751L23.5785 5.33053C23.7059 5.29371 23.8134 5.20781 23.8774 5.09173C23.9415 4.97566 23.9568 4.8389 23.92 4.71153L23.92 4.71138M5.00373 10.6961L23.92 4.71138M23.92 4.71138L23.2436 2.38223C23.2436 2.38221 23.2436 2.38219 23.2436 2.38218C23.1044 1.90178 22.78 1.49636 22.3419 1.25508C21.9038 1.0138 21.3877 0.956434 20.9073 1.09561L23.92 4.71138ZM21.1853 2.05562L21.1848 2.05577L1.57919 7.69604C1.57913 7.69606 1.57907 7.69608 1.57901 7.69609C1.53019 7.71042 1.48696 7.73944 1.45522 7.77921C1.42344 7.81903 1.40471 7.86768 1.40159 7.91853C1.39848 7.96938 1.41112 8.01996 1.43781 8.06336C1.46449 8.10676 1.50391 8.14087 1.5507 8.16104L1.55074 8.16106L5.03777 9.66682L22.8197 4.51106L22.2839 2.65993L21.1853 2.05562ZM21.1853 2.05562C21.2658 2.032 21.3493 2.01989 21.4333 2.01966M21.1853 2.05562L21.4333 2.01966M21.4333 2.01966H21.4334C21.6253 2.02009 21.8119 2.0827 21.9653 2.19812C22.1186 2.31354 22.2304 2.47555 22.2839 2.65987L21.4333 2.01966Z" fill="#009B3E" stroke="#009B3E" stroke-width="0.2"/>
<path d="M5.20086 9.73547L5.20088 9.73548C5.26858 9.76472 5.32896 9.80858 5.37772 9.8639C5.42646 9.9192 5.46236 9.9846 5.48287 10.0554C5.48287 10.0554 5.48287 10.0554 5.48287 10.0554C5.48288 10.0555 5.48288 10.0555 5.48289 10.0555L6.56287 13.7774L6.56287 13.7774C6.58116 13.8405 6.58685 13.9065 6.57961 13.9718C6.57237 14.0371 6.55235 14.1003 6.52069 14.1578C6.48902 14.2153 6.44633 14.2661 6.39506 14.3071C6.34379 14.3481 6.28494 14.3786 6.22187 14.3969M5.20086 9.73547L6.22187 14.3969M5.20086 9.73547L2.82991 8.71198C2.82987 8.71196 2.82982 8.71194 2.82978 8.71192C2.74257 8.67402 2.64636 8.66176 2.55244 8.6766C2.45846 8.69145 2.37068 8.7328 2.29938 8.7958C2.22809 8.8588 2.17625 8.94083 2.14995 9.03226C2.12368 9.12361 2.12398 9.22056 2.15084 9.31173C2.15086 9.31182 2.15088 9.3119 2.15091 9.31198L3.68757 14.6123C3.68757 14.6123 3.68757 14.6123 3.68758 14.6123C3.71772 14.7164 3.78087 14.8079 3.86752 14.873C3.954 14.938 4.0592 14.9732 4.16734 14.9733M5.20086 9.73547L4.16734 14.9733M6.22187 14.3969L4.30722 14.9553L4.30538 14.9558L4.30537 14.9558C4.26039 14.968 4.21394 14.9739 4.16734 14.9733M6.22187 14.3969L4.16734 14.9733M4.16734 14.9733C4.16758 14.9733 4.16783 14.9733 4.16807 14.9733L4.16802 14.8733L4.16662 14.9733C4.16686 14.9733 4.1671 14.9733 4.16734 14.9733ZM4.50903 13.8554L3.40678 10.0522L4.58829 10.5636L5.46254 13.5787L4.50903 13.8554Z" fill="#009B3E" stroke="#009B3E" stroke-width="0.2"/>
<path d="M26.0856 16.1569L26.182 16.1302C26.1997 16.1939 26.2046 16.2605 26.1964 16.3261C26.1881 16.3916 26.167 16.455 26.1342 16.5123C26.1013 16.5697 26.0574 16.62 26.005 16.6603C25.9528 16.7005 25.8931 16.7299 25.8294 16.747C25.8293 16.747 25.8291 16.7471 25.8289 16.7471L20.5013 18.2268C20.5013 18.2268 20.5012 18.2268 20.5012 18.2268L26.0856 16.1569ZM26.0856 16.1569L26.182 16.1302C26.1643 16.0665 26.1342 16.0069 26.0933 15.955C26.0525 15.903 26.0017 15.8596 25.944 15.8274C25.8863 15.7952 25.8228 15.7747 25.7571 15.7672C25.6916 15.7597 25.6253 15.7652 25.5619 15.7835C25.5617 15.7835 25.5616 15.7836 25.5614 15.7836L20.2334 17.2633L26.0856 16.1569Z" fill="#009B3E" stroke="#009B3E" stroke-width="0.2"/>
<path d="M20.192 16.5969L20.1925 16.5969C20.2378 16.5967 20.2828 16.5905 20.3265 16.5785L20.3269 16.5784L25.829 15.0467C25.8292 15.0467 25.8294 15.0466 25.8296 15.0466C25.8932 15.0295 25.9529 15.0001 26.0051 14.9599C26.0575 14.9196 26.1014 14.8693 26.1343 14.8119C26.1671 14.7546 26.1882 14.6912 26.1964 14.6256C26.2046 14.5601 26.1998 14.4935 26.1821 14.4298C26.1644 14.3661 26.1343 14.3065 26.0934 14.2546C26.0526 14.2026 26.0018 14.1592 25.9441 14.127C25.8864 14.0948 25.8228 14.0743 25.7572 14.0668C25.6917 14.0593 25.6253 14.0648 25.562 14.0831C25.5618 14.0831 25.5616 14.0832 25.5615 14.0832L20.059 15.6149L20.0856 15.7113L20.0588 15.6149L20.0589 15.6149C19.9424 15.6471 19.8414 15.7204 19.7747 15.8214C19.7081 15.9224 19.6803 16.0441 19.6965 16.164C19.7128 16.2839 19.7719 16.3938 19.863 16.4734C19.9542 16.553 20.0711 16.5969 20.192 16.5969Z" fill="#009B3E" stroke="#009B3E" stroke-width="0.2"/>
<path d="M17.6476 16.6273L17.6475 16.6273C17.5411 16.6273 17.4375 16.5934 17.3517 16.5304C17.2659 16.4675 17.2024 16.3788 17.1705 16.2773L17.1705 16.2772L16.3993 13.8197L16.3993 13.8196L16.4947 13.7897C16.4787 13.7389 16.4731 13.6854 16.4781 13.6324C16.4831 13.5794 16.4986 13.5279 16.5237 13.4809C16.5489 13.434 16.5831 13.3925 16.6245 13.359L17.6476 16.6273ZM17.6476 16.6273C17.6985 16.6272 17.749 16.6193 17.7974 16.6038C17.9237 16.564 18.029 16.4757 18.0903 16.3583C18.1516 16.2408 18.1638 16.1038 18.1241 15.9774L18.1241 15.9774L17.5059 14.0072L18.1136 13.8307L18.678 15.643L18.678 15.643C18.7175 15.7697 18.8056 15.8755 18.9231 15.9371C19.0405 15.9987 19.1776 16.0112 19.3043 15.9718C19.4309 15.9323 19.5367 15.8442 19.5983 15.7267C19.66 15.6093 19.6724 15.4722 19.633 15.3456L19.633 15.3455L18.9226 13.0656C18.9226 13.0656 18.9226 13.0655 18.9226 13.0655C18.8837 12.9405 18.7972 12.8357 18.6818 12.7737C18.5665 12.7117 18.4314 12.6975 18.3056 12.7341C18.3056 12.7341 18.3056 12.7341 18.3056 12.7341L16.7368 13.1897L16.7368 13.1897C16.6729 13.2082 16.6133 13.2394 16.5616 13.2813L17.6476 16.6273Z" fill="#009B3E" stroke="#009B3E" stroke-width="0.2"/>
<path d="M28.0999 19.9789H28.1C28.2327 19.9789 28.3598 19.9262 28.4536 19.8325C28.5474 19.7387 28.6 19.6115 28.6 19.4789V11.2389C28.6 11.1063 28.5474 10.9791 28.4536 10.8853C28.3598 10.7916 28.2327 10.7389 28.1 10.7389L28.0999 10.7389C27.3296 10.7399 26.5912 11.0463 26.0465 11.591C25.5018 12.1357 25.1954 12.8741 25.1944 13.6444V13.6445L25.1944 17.0733L25.1944 17.0734C25.1954 17.8437 25.5018 18.5822 26.0465 19.1268C26.5912 19.6715 27.3296 19.9779 28.0999 19.9789ZM26.6251 12.4394C26.8769 12.1312 27.2181 11.9101 27.6 11.8056V18.9122C27.2181 18.8077 26.8769 18.5867 26.6251 18.2784C26.3472 17.9382 26.1951 17.5125 26.1944 17.0732V13.6446C26.1951 13.2053 26.3472 12.7796 26.6251 12.4394Z" fill="#009B3E" stroke="#009B3E" stroke-width="0.2"/>
<path d="M18.9332 19.1549H18.9333C19.4876 19.1542 20.019 18.9337 20.4109 18.5418C20.8028 18.1499 21.0233 17.6185 21.024 17.0642V17.0641C21.024 16.6506 20.9014 16.2463 20.6716 15.9025C20.4419 15.5587 20.1153 15.2907 19.7333 15.1324C19.3513 14.9742 18.9309 14.9328 18.5253 15.0134C18.1197 15.0941 17.7472 15.2933 17.4548 15.5857C17.1624 15.8781 16.9632 16.2506 16.8826 16.6562C16.8019 17.0618 16.8433 17.4821 17.0015 17.8642C17.1598 18.2462 17.4278 18.5728 17.7716 18.8025C18.1154 19.0323 18.5197 19.1549 18.9332 19.1549ZM18.3271 16.1575C18.5065 16.0377 18.7174 15.9737 18.9332 15.9737V15.8737L18.9331 15.9737C19.2223 15.974 19.4995 16.0889 19.704 16.2934C19.9085 16.4978 20.0236 16.775 20.024 17.0642C20.024 17.2799 19.9601 17.4908 19.8403 17.6702C19.7205 17.8497 19.5502 17.9895 19.3509 18.0721C19.1516 18.1548 18.9322 18.1764 18.7206 18.1344C18.509 18.0923 18.3146 17.9885 18.162 17.8359C18.0094 17.6834 17.9055 17.489 17.8634 17.2774C17.8213 17.0658 17.8428 16.8465 17.9254 16.6471C18.0079 16.4478 18.1477 16.2774 18.3271 16.1575Z" fill="#009B3E" stroke="#009B3E" stroke-width="0.2"/>
</svg>
