<svg width="29" height="11" viewBox="0 0 29 11" fill="none" xmlns="http://www.w3.org/2000/svg">
<path d="M25.7 5.08334C25.9868 5.08334 26.2672 4.9983 26.5056 4.83897C26.7441 4.67964 26.9299 4.45318 27.0397 4.18823C27.1494 3.92328 27.1781 3.63173 27.1222 3.35046C27.0662 3.06918 26.9281 2.81082 26.7254 2.60803C26.5226 2.40525 26.2642 2.26715 25.9829 2.2112C25.7017 2.15525 25.4101 2.18396 25.1452 2.29371C24.8802 2.40346 24.6537 2.58931 24.4944 2.82776C24.3351 3.06621 24.25 3.34656 24.25 3.63334C24.25 3.82376 24.2876 4.01231 24.3604 4.18823C24.4333 4.36415 24.5401 4.524 24.6747 4.65864C24.8094 4.79329 24.9692 4.9001 25.1452 4.97296C25.3211 5.04583 25.5096 5.08334 25.7 5.08334ZM25.7 3.21667C25.7825 3.21667 25.863 3.24111 25.9315 3.28689C26.0001 3.33268 26.0535 3.39775 26.085 3.47389C26.1165 3.55002 26.1248 3.6338 26.1087 3.71463C26.0926 3.79545 26.0529 3.86969 25.9947 3.92797C25.9364 3.98624 25.8622 4.02592 25.7813 4.042C25.7005 4.05808 25.6167 4.04982 25.5406 4.01829C25.4645 3.98675 25.3994 3.93335 25.3536 3.86483C25.3078 3.79631 25.2834 3.71575 25.2834 3.63334C25.2834 3.52283 25.3273 3.41685 25.4054 3.33871C25.4836 3.26057 25.5895 3.21667 25.7 3.21667Z" fill="#009B3E" stroke="#009B3E" stroke-width="0.1"/>
<path d="M2.83337 2.64995C2.69634 2.64995 2.56492 2.70439 2.46803 2.80128C2.37113 2.89817 2.3167 3.02959 2.3167 3.16662V5.96662C2.3167 6.10365 2.37113 6.23506 2.46803 6.33196C2.56492 6.42885 2.69634 6.48328 2.83337 6.48328H15.9C16.0371 6.48328 16.1685 6.42885 16.2654 6.33196C16.3623 6.23506 16.4167 6.10365 16.4167 5.96662V3.16662C16.4167 3.02959 16.3623 2.89817 16.2654 2.80128C16.1685 2.70439 16.0371 2.64995 15.9 2.64995H2.83337ZM15.3834 5.44995H3.35003V3.68328H15.3834V5.44995Z" fill="#009B3E" stroke="#009B3E" stroke-width="0.1"/>
<path d="M19.1667 2.64995H19.1167V2.69995V3.63328V3.68328H19.1667H20.1001H20.1501V3.63328V2.69995V2.64995H20.1001H19.1667Z" fill="#009B3E" stroke="#009B3E" stroke-width="0.1"/>
<path d="M21.0332 2.64995H20.9832V2.69995V3.63328V3.68328H21.0332H21.9665H22.0165V3.63328V2.69995V2.64995H21.9665H21.0332Z" fill="#009B3E" stroke="#009B3E" stroke-width="0.1"/>
<path d="M19.1667 5.44994H19.1167V5.49994V6.43327V6.48327H19.1667H20.1001H20.1501V6.43327V5.49994V5.44994H20.1001H19.1667Z" fill="#009B3E" stroke="#009B3E" stroke-width="0.1"/>
<path d="M21.0332 5.44994H20.9832V5.49994V6.43327V6.48327H21.0332H21.9665H22.0165V6.43327V5.49994V5.44994H21.9665H21.0332Z" fill="#009B3E" stroke="#009B3E" stroke-width="0.1"/>
<path d="M1.9 0.783313H12.6333H27.1C27.4846 0.783313 27.8534 0.936081 28.1253 1.20801C28.3972 1.47994 28.55 1.84875 28.55 2.23331V6.89998C28.55 7.28454 28.3972 7.65336 28.1253 7.92528C27.8534 8.19721 27.4846 8.34998 27.1 8.34998H25.6368L25.2678 9.82501C25.2678 9.82502 25.2678 9.82504 25.2678 9.82505M1.9 0.783313L22.4473 9.81291C22.4725 9.91391 22.5308 10.0036 22.6128 10.0677C22.6948 10.1318 22.7959 10.1666 22.9 10.1666H24.7667C24.8708 10.1666 24.9719 10.1318 25.0539 10.0677C25.1359 10.0036 25.1941 9.91391 25.2193 9.81291L25.2678 9.82505M1.9 0.783313C1.51544 0.783313 1.14662 0.936081 0.874695 1.20801C0.602767 1.47994 0.45 1.84875 0.45 2.23331V6.89998C0.45 7.28454 0.602767 7.65336 0.874695 7.92528C1.14662 8.19721 1.51544 8.34998 1.9 8.34998H3.36317L3.73215 9.82501C3.76004 9.93684 3.82452 10.0361 3.91533 10.1071C4.00614 10.1781 4.11807 10.2166 4.23332 10.2166H6.1C6.21526 10.2166 6.32719 10.1781 6.418 10.1071C6.50881 10.0361 6.57329 9.93684 6.60118 9.82501L6.97017 8.34998H22.0298L22.3988 9.82501C22.3988 9.82502 22.3988 9.82504 22.3988 9.82505M1.9 0.783313L22.3988 9.82505M25.2678 9.82505C25.2399 9.93686 25.1755 10.0361 25.0847 10.1071C24.9939 10.1781 24.8819 10.2166 24.7667 10.2166H22.9C22.7847 10.2166 22.6728 10.1781 22.582 10.1071C22.4912 10.0361 22.4267 9.93686 22.3988 9.82505M25.2678 9.82505H22.3988M5.90483 8.34998L5.69649 9.18331H4.63684L4.42851 8.34998H5.90483ZM24.5715 8.34998L24.3632 9.18331H23.3035L23.0952 8.34998H24.5715ZM27.5167 2.23331V6.89998C27.5167 7.01049 27.4728 7.11647 27.3946 7.19461C27.3165 7.27275 27.2105 7.31665 27.1 7.31665H1.9C1.78949 7.31665 1.68351 7.27275 1.60537 7.19461C1.52723 7.11647 1.48333 7.01049 1.48333 6.89998V2.23331C1.48333 2.12281 1.52723 2.01682 1.60537 1.93868C1.68351 1.86054 1.78949 1.81665 1.9 1.81665H27.1C27.2105 1.81665 27.3165 1.86054 27.3946 1.93869C27.4728 2.01683 27.5167 2.12281 27.5167 2.23331Z" fill="#009B3E" stroke="#009B3E" stroke-width="0.1"/>
</svg>
