<svg width="49" height="40" viewBox="0 0 49 40" fill="none" xmlns="http://www.w3.org/2000/svg">
<path d="M18.4249 14.952C17.9969 14.9579 17.5772 15.0662 17.2041 15.2671C16.831 15.4679 16.5164 15.7549 16.2888 16.1019C16.118 16.3436 15.86 16.5164 15.5643 16.5871C15.2685 16.6579 14.9559 16.6215 14.6865 16.485C14.5497 16.4143 14.4299 16.3171 14.3345 16.1997C14.2392 16.0822 14.1705 15.947 14.1329 15.8026C14.0952 15.6583 14.0894 15.5081 14.1158 15.3615C14.1422 15.2149 14.2003 15.0752 14.2863 14.9513C14.6987 14.2491 15.3 13.6653 16.0278 13.2608C16.7556 12.8562 17.5833 12.6456 18.4249 12.6508C19.2631 12.6617 20.0842 12.8791 20.8091 13.2821C21.534 13.685 22.1383 14.2599 22.5635 14.9513C22.7062 15.2092 22.7442 15.5084 22.6703 15.7915C22.5964 16.0746 22.4159 16.3215 22.1634 16.485C21.9546 16.5776 21.7258 16.6215 21.4959 16.6129C21.0855 16.5764 20.7043 16.3941 20.4274 16.1019C20.2398 15.7499 19.9525 15.4554 19.5985 15.2521C19.2444 15.0487 18.8377 14.9448 18.4249 14.952ZM24.5676 26.8368C24.1396 26.8309 23.7199 26.7226 23.3468 26.5217C22.9737 26.3209 22.659 26.0339 22.4314 25.6869C22.2675 25.4421 22.0103 25.2681 21.7146 25.2017C21.4188 25.1354 21.1076 25.182 20.8471 25.3316C20.5866 25.4811 20.3973 25.722 20.3192 26.003C20.2411 26.284 20.2805 26.5831 20.429 26.8368C20.8416 27.5386 21.4431 28.1219 22.1709 28.526C22.8987 28.9302 23.7262 29.1404 24.5676 29.135C25.4058 29.1241 26.2269 28.9067 26.9518 28.5038C27.6767 28.1009 28.2809 27.526 28.7062 26.8345C28.8547 26.5809 28.8941 26.2818 28.816 26.0008C28.7379 25.7198 28.5485 25.4789 28.288 25.3293C28.0275 25.1798 27.7164 25.1332 27.4206 25.1995C27.1248 25.2659 26.8677 25.4399 26.7037 25.6847C26.4552 26.0125 26.1357 26.2851 25.7671 26.4839C25.3984 26.6828 24.9893 26.8031 24.5676 26.8368ZM49 15.8468V20.9587C49.0019 21.4124 48.91 21.8619 48.7295 22.2813C48.5491 22.7008 48.2836 23.0819 47.9485 23.4026C47.6134 23.7234 47.2152 23.9775 46.777 24.1502C46.3387 24.323 45.8691 24.4109 45.3952 24.4091H43.259C42.5515 26.5947 41.4189 28.6327 39.9208 30.4158C37.4576 33.4495 34.0405 35.6448 30.1741 36.6776C30.0973 37.5783 29.671 38.4189 28.9791 39.0338C28.2871 39.6487 27.3798 39.9934 26.4356 40H22.5643C21.5728 40 20.6219 39.623 19.9208 38.9519C19.2197 38.2809 18.8259 37.3707 18.8259 36.4217C18.8259 35.4727 19.2197 34.5626 19.9208 33.8915C20.6219 33.2204 21.5728 32.8434 22.5643 32.8434H26.4364C27.0842 32.8617 27.7168 33.035 28.2766 33.3475C28.8363 33.6599 29.3054 34.1016 29.641 34.6322C33.092 33.6071 36.12 31.5715 38.2985 28.8123C40.477 26.053 41.6961 22.7091 41.7843 19.2516C41.8724 15.7941 40.825 12.3972 38.7897 9.53957C36.7544 6.6819 33.8337 4.50742 30.4391 3.32245C28.7314 5.34949 26.5921 7.00494 24.1635 8.17853C21.3876 9.51336 18.326 10.2135 15.2195 10.2239H14.1526C13.9981 10.233 13.8434 10.2083 13.7002 10.1518C13.5571 10.0952 13.4293 10.0083 13.3264 9.89758C13.2234 9.78683 13.1482 9.65515 13.1062 9.51248C13.0643 9.36982 13.0567 9.21989 13.0842 9.07403C13.2178 8.43513 13.618 7.92415 14.2855 8.05134H15.2195C17.6291 8.06158 20.0142 7.58933 22.2218 6.6649C24.4293 5.74048 26.4105 4.38433 28.0379 2.68355C26.9449 2.43031 25.8243 2.30173 24.6997 2.30051C20.1145 2.31852 15.7245 4.07866 12.4949 7.19395C9.26519 10.3092 7.46026 14.5246 7.47689 18.9134V23.3864C7.4775 23.5376 7.44685 23.6874 7.38669 23.8271C7.32654 23.9669 7.23807 24.0939 7.12639 24.2008C7.01472 24.3077 6.88204 24.3924 6.73601 24.4499C6.58998 24.5075 6.43348 24.5369 6.27555 24.5363H3.60479C2.65456 24.5185 1.74843 24.1493 1.07639 23.506C0.404343 22.8628 0.0185869 21.9954 0 21.0859L0 15.9725C0.0135835 15.236 0.264634 14.5214 0.718792 13.9267C1.17295 13.332 1.80803 12.8861 2.53711 12.6501C2.8381 12.5654 3.16193 12.5986 3.43735 12.7424C3.71278 12.8862 3.91724 13.1288 4.00575 13.4169C4.09427 13.705 4.05959 14.015 3.90934 14.2786C3.7591 14.5422 3.5056 14.7379 3.2046 14.8226C2.67076 14.8226 2.40345 15.3336 2.40345 15.8453V20.9573C2.40427 21.2959 2.54518 21.6205 2.79536 21.8599C3.04555 22.0994 3.38463 22.2343 3.73844 22.2351H5.07344V18.7825C5.05189 16.3206 5.54046 13.879 6.5109 11.599C7.48134 9.31896 8.91439 7.24568 10.7272 5.49907C12.54 3.75245 14.6966 2.36715 17.0722 1.42326C19.4478 0.479378 21.9954 -0.00435741 24.5676 2.95735e-05C26.3341 0.100401 28.082 0.400746 29.7747 0.894784H29.9083C33.8559 2.12566 37.2972 4.51717 39.7423 7.72883C42.1873 10.9405 43.5115 14.8086 43.5263 18.7825C43.5037 19.9364 43.4145 21.0883 43.259 22.2328H45.3952C45.7275 22.2057 46.0366 22.0585 46.2597 21.8212C46.4828 21.5839 46.6032 21.2742 46.5965 20.955V15.8468C46.5902 15.6023 46.5116 15.3644 46.3698 15.1609C46.228 14.9574 46.0288 14.7965 45.7954 14.6969C45.4944 14.6122 45.2409 14.4165 45.0906 14.1529C44.9404 13.8893 44.9057 13.5793 44.9942 13.2912C45.0827 13.0031 45.2872 12.7605 45.5626 12.6167C45.838 12.4728 46.1619 12.4397 46.4629 12.5244C47.1815 12.7762 47.806 13.2261 48.2576 13.8175C48.7092 14.4088 48.9675 15.115 49 15.8468ZM27.9051 36.4217V36.1659C27.8551 35.8563 27.6949 35.5728 27.4516 35.3633C27.2084 35.1537 26.8969 35.0311 26.5701 35.016H22.698C22.3087 35.016 21.9353 35.164 21.66 35.4275C21.3848 35.691 21.2301 36.0484 21.2301 36.421C21.2301 36.7936 21.3848 37.151 21.66 37.4145C21.9353 37.6779 22.3087 37.826 22.698 37.826H26.5701C26.9362 37.7953 27.2769 37.6338 27.5243 37.3736C27.7717 37.1134 27.9076 36.7735 27.9051 36.4217ZM26.9703 16.4857C27.2397 16.6222 27.5523 16.6586 27.8481 16.5879C28.1438 16.5172 28.4018 16.3444 28.5726 16.1027C28.7759 15.7351 29.0854 15.4312 29.4641 15.2273C29.8429 15.0234 30.2749 14.9281 30.7087 14.9528C31.1367 14.9587 31.5564 15.067 31.9295 15.2678C32.3026 15.4686 32.6173 15.7556 32.8449 16.1027C32.9619 16.2687 33.1217 16.403 33.3089 16.4926C33.4961 16.5821 33.7043 16.6238 33.9133 16.6136C34.1014 16.6325 34.2905 16.5872 34.4472 16.4857C34.5839 16.415 34.7038 16.3179 34.7991 16.2004C34.8944 16.0829 34.9631 15.9477 35.0007 15.8034C35.0384 15.6591 35.0442 15.5088 35.0178 15.3622C34.9914 15.2157 34.9333 15.0759 34.8473 14.952C34.435 14.2498 33.8336 13.6661 33.1058 13.2615C32.378 12.857 31.5503 12.6464 30.7087 12.6516C29.8705 12.6625 29.0494 12.8799 28.3245 13.2828C27.5996 13.6857 26.9954 14.2606 26.5701 14.952C26.4841 15.0759 26.426 15.2157 26.3996 15.3622C26.3732 15.5088 26.379 15.6591 26.4167 15.8034C26.4543 15.9477 26.523 16.0829 26.6183 16.2004C26.7136 16.3179 26.8335 16.415 26.9703 16.4857Z" fill="#8A8A8A"/>
</svg>
