<svg width="89" height="89" viewBox="0 0 89 89" fill="none" xmlns="http://www.w3.org/2000/svg">
<path d="M87.4099 44.2067C87.4099 68.0691 68.0663 87.4133 44.2049 87.4133C20.3435 87.4133 1 68.0691 1 44.2067C1 20.3442 20.3435 1 44.2049 1C68.0663 1 87.4099 20.3442 87.4099 44.2067Z" fill="white" stroke="#009B44" stroke-width="2"/>
<path d="M63.3322 27.4185C61.9284 26.1423 59.7452 26.2424 58.4623 27.653L37.4234 50.8207L27.2592 40.4873C25.9175 39.1283 23.7378 39.1076 22.3824 40.4459C21.0234 41.7807 21.0027 43.9639 22.341 45.3229L35.0642 58.257C35.7161 58.9192 36.599 59.2883 37.5233 59.2883C37.544 59.2883 37.5681 59.2883 37.5888 59.2917C38.5408 59.271 39.4375 58.864 40.0755 58.1605L63.5665 32.2922C64.8463 30.8779 64.7428 28.6982 63.3322 27.4185Z" fill="#009B44"/>
</svg>
