<svg width="28" height="28" viewBox="0 0 28 28" fill="none" xmlns="http://www.w3.org/2000/svg">
<path d="M24.3436 7.27827H7.28982C5.70959 7.27827 4.41772 5.99217 4.41772 4.40618C4.41772 2.82595 5.70382 1.53409 7.28982 1.53409H24.3493C24.7761 1.53409 25.1164 1.18805 25.1164 0.767044C25.1164 0.340268 24.7704 0 24.3493 0H7.28982C4.8618 0 2.88364 1.97817 2.88364 4.40618V23.5938C2.88364 26.0218 4.8618 28 7.28982 28H24.3493C24.7761 28 25.1164 27.654 25.1164 27.233V8.04531C25.1106 7.62431 24.7704 7.27827 24.3436 7.27827ZM23.5765 26.4659H7.28982C5.70959 26.4659 4.41772 25.1798 4.41772 23.5938V7.75118C5.19054 8.41442 6.19404 8.81813 7.28982 8.81813H23.5765V26.4659Z" fill="#8BBFBB"/>
<path d="M7.53197 3.70825C7.10519 3.70825 6.76492 4.05429 6.76492 4.4753C6.76492 4.89631 7.11096 5.24234 7.53197 5.24234H21.9386C22.3653 5.24234 22.7056 4.89631 22.7056 4.4753C22.7056 4.05429 22.3596 3.70825 21.9386 3.70825H7.53197Z" fill="#8BBFBB"/>
<path d="M18.2941 21.8135C18.4314 21.9744 18.5001 22.1353 18.5001 22.2962C18.5001 22.4704 18.4177 22.638 18.253 22.7989C18.0882 22.933 17.9028 23 17.6969 23C17.4909 23 17.3124 22.9263 17.1614 22.7788L12.8571 18.1737H11.0653V22.2358C11.0653 22.4637 10.9898 22.6514 10.8388 22.7989C10.6877 22.933 10.4955 23 10.2621 23C10.0287 23 9.84334 22.933 9.70604 22.7989C9.56874 22.6514 9.50009 22.4637 9.50009 22.2358V12.7843C9.50009 12.5564 9.56874 12.3687 9.70604 12.2212C9.84334 12.0737 10.0287 12 10.2621 12C10.4955 12 10.6877 12.0737 10.8388 12.2212C10.9898 12.3687 11.0653 12.5564 11.0653 12.7843V16.766H12.8983L16.9555 12.2413C17.1065 12.0804 17.2987 12 17.5321 12C17.7106 12 17.8685 12.0536 18.0058 12.1609C18.1843 12.2949 18.2735 12.4692 18.2735 12.6837C18.2735 12.8714 18.2049 13.0323 18.0676 13.1664L14.2163 17.4296L18.2941 21.8135Z" fill="#8BBFBB"/>
</svg>
