<svg xmlns="http://www.w3.org/2000/svg" width="8" height="19" viewBox="0 0 8 19">
  <defs>
    <style>
      .cls-1 {
        fill: #fff;
        fill-rule: evenodd;
      }
    </style>
  </defs>
  <path id="Icon_Info" data-name="Icon Info" class="cls-1" d="M2042,2634.4c2.11-1.12,3.94-1.76,5.61-.43s0.82,3.19.45,4.86c-0.22.95-.51,1.89-0.75,2.84-0.45,1.78.14,2.8,2.68,2.54-2.09,1.78-3.85,2.34-5.76,1.17-1.79-1.1-1.18-2.85-.81-4.44,0.22-.95.56-1.87,0.78-2.83C2044.73,2635.84,2044.64,2635.71,2042,2634.4Zm5.6-7.4a2.375,2.375,0,1,0,2.39,2.37A2.379,2.379,0,0,0,2047.6,2627Z" transform="translate(-2042 -2627)"/>
</svg>
