<svg width="28" height="26" viewBox="0 0 28 26" fill="none" xmlns="http://www.w3.org/2000/svg">
<path d="M27.9763 10.2364C27.9112 10.6932 27.874 11.1593 27.7717 11.6161C26.8417 15.5407 24.4422 18.0576 20.5548 19.1017C19.9038 19.2788 19.2063 19.3254 18.4623 19.4373C18.5367 19.1856 18.5832 19.0271 18.639 18.8686C18.7506 18.5424 18.8808 18.2161 18.9645 17.8805C19.0296 17.6475 19.1505 17.5636 19.383 17.5356C20.6571 17.3771 21.8289 16.9203 22.8705 16.1653C24.7956 14.767 25.9116 12.8839 26.1534 10.5161C26.5627 6.44238 23.7726 2.76018 19.7364 2.02374C15.8861 1.32459 12.0359 3.64577 10.8362 7.39323C10.2131 9.33221 10.3247 11.2432 11.0222 13.1356C11.0408 13.2009 11.0687 13.2568 11.1059 13.3686C10.7711 13.3686 10.4642 13.3686 10.148 13.3686C9.90616 13.3686 9.65505 13.378 9.41325 13.3593C9.33885 13.35 9.23655 13.2661 9.20865 13.2009C8.62274 11.2619 8.47394 9.32289 8.98545 7.32797C9.95266 3.62713 13.1891 0.672047 16.9556 0.103403C21.4476 -0.577105 25.9395 2.16357 27.4183 6.48899C27.6973 7.30933 27.8926 8.15763 27.9391 9.02458C27.9391 9.07119 27.967 9.1178 27.9763 9.16441C27.9763 9.52797 27.9763 9.88221 27.9763 10.2364Z" fill="white"/>
<path d="M13.2156 25.9996C13.1505 25.9809 13.0854 25.9623 13.0203 25.9436C12.267 25.7852 11.7276 25.0674 11.8113 24.3496C11.9043 23.5106 12.5181 22.9326 13.3272 22.9326C14.1084 22.9326 14.7594 23.5292 14.8338 24.303C14.9082 25.0767 14.3781 25.7758 13.6155 25.9343C13.5504 25.9436 13.4853 25.9716 13.4202 25.9902C13.3551 25.9996 13.29 25.9996 13.2156 25.9996Z" fill="white"/>
<path d="M6.64972 26.0001C6.48232 25.9442 6.30562 25.9162 6.14752 25.8417C5.45001 25.534 5.1059 24.779 5.31051 24.0425C5.50581 23.3247 6.18472 22.8679 6.93802 22.9425C7.62623 23.0078 8.22144 23.6044 8.27724 24.2942C8.34234 25.0679 7.86804 25.7484 7.12403 25.9349C7.04963 25.9535 6.98453 25.9722 6.91013 26.0001C6.82642 26.0001 6.73342 26.0001 6.64972 26.0001Z" fill="white"/>
<path d="M6.45493 20.6584C6.55723 20.6584 6.64093 20.6584 6.72464 20.6584C9.34727 20.6584 11.9699 20.6584 14.5832 20.6677C14.7971 20.6677 14.8994 20.6117 14.9552 20.3973C15.0482 20.0151 15.1691 19.6329 15.29 19.2134C15.1505 19.2134 15.0575 19.2134 14.9552 19.2134C12.5465 19.2134 10.1378 19.2134 7.72905 19.2134C7.40354 19.2134 7.14314 19.0084 7.05944 18.6914C6.96644 18.3278 7.07804 18.0016 7.37564 17.8524C7.48724 17.7965 7.63604 17.7778 7.76625 17.7778C10.3145 17.7778 12.872 17.7685 15.4202 17.7778C15.6434 17.7778 15.7457 17.7219 15.8015 17.4982C15.9038 17.0787 16.0433 16.6685 16.1735 16.2117C16.0526 16.2117 15.9596 16.2117 15.8666 16.2117C13.2719 16.2117 10.6772 16.2117 8.08245 16.2117C7.71045 16.2117 7.44074 15.9973 7.34774 15.6431C7.25474 15.2702 7.39424 14.916 7.71045 14.7575C7.80345 14.7109 7.92435 14.6923 8.02665 14.6923C11.0678 14.6923 14.1182 14.6923 17.1594 14.6923C17.8848 14.6923 18.2568 15.1304 18.0708 15.8389C17.8476 16.6499 17.5686 17.4423 17.2989 18.2346C16.9176 19.3906 16.5176 20.5465 16.1363 21.7117C15.9596 22.2431 15.662 22.4762 15.104 22.4762C12.0629 22.4762 9.01246 22.4762 5.97133 22.4762C5.35752 22.4762 5.00412 22.1778 4.92041 21.5626C4.67861 19.8007 4.44611 18.0482 4.21361 16.2863C4.09271 15.3914 3.9811 14.4965 3.8509 13.6109C3.7951 13.2101 3.4975 12.977 3.16269 12.8185C2.40939 12.455 1.64678 12.1101 0.884167 11.7465C0.456362 11.5414 0.0843583 11.2618 0.0285576 10.7584C0.00995741 10.5626 0.0750573 10.3202 0.177359 10.1431C0.29826 9.91938 0.567963 9.8448 0.800466 9.95667C2.13038 10.6279 3.451 11.3084 4.78091 11.9982C4.87391 12.0448 4.95762 12.1287 5.05062 12.194C5.31102 12.3897 5.45982 12.6414 5.50632 12.977C5.74812 15.0372 6.00853 17.088 6.25963 19.1482C6.30613 19.6329 6.38053 20.127 6.45493 20.6584Z" fill="white"/>
<path d="M17.355 7.60776C17.355 6.70353 17.3457 5.80861 17.355 4.90438C17.3643 4.30777 17.8665 3.95353 18.3687 4.18658C18.6756 4.32641 18.7779 4.58743 18.7779 4.9137C18.7779 6.20014 18.7779 7.47726 18.7779 8.7637C18.7779 9.10861 18.7872 9.46285 18.7779 9.80776C18.7686 9.9942 18.8244 10.0967 19.0011 10.1713C19.6614 10.4603 20.3124 10.7679 20.9541 11.0849C21.3634 11.2806 21.4936 11.7467 21.261 12.1196C21.075 12.4179 20.703 12.5391 20.3682 12.3806C19.5312 11.9984 18.6942 11.6069 17.8572 11.2061C17.4852 11.0289 17.3457 10.6747 17.3457 10.2832C17.355 9.38827 17.355 8.50268 17.355 7.60776Z" fill="white"/>
</svg>
