<svg width="29" height="26" viewBox="0 0 29 26" fill="none" xmlns="http://www.w3.org/2000/svg">
<path d="M28.4499 10.2364C28.3848 10.6932 28.3476 11.1593 28.2453 11.6161C27.3153 15.5407 24.9159 18.0576 21.0284 19.1017C20.3774 19.2788 19.6799 19.3254 18.9359 19.4373C19.0103 19.1856 19.0568 19.0271 19.1126 18.8686C19.2242 18.5424 19.3544 18.2161 19.4381 17.8805C19.5032 17.6475 19.6241 17.5636 19.8566 17.5356C21.1307 17.3771 22.3025 16.9203 23.3441 16.1653C25.2693 14.767 26.3853 12.8839 26.6271 10.5161C27.0363 6.44238 24.2463 2.76018 20.21 2.02374C16.3598 1.32459 12.5095 3.64577 11.3098 7.39323C10.6867 9.33221 10.7983 11.2432 11.4958 13.1356C11.5144 13.2009 11.5423 13.2568 11.5795 13.3686C11.2447 13.3686 10.9378 13.3686 10.6216 13.3686C10.3798 13.3686 10.1287 13.378 9.88688 13.3593C9.81248 13.35 9.71018 13.2661 9.68228 13.2009C9.09637 11.2619 8.94757 9.32289 9.45908 7.32797C10.4263 3.62713 13.6627 0.672047 17.4293 0.103403C21.9212 -0.577105 26.4132 2.16357 27.8919 6.48899C28.1709 7.30933 28.3662 8.15763 28.4127 9.02458C28.4127 9.07119 28.4406 9.1178 28.4499 9.16441C28.4499 9.52797 28.4499 9.88221 28.4499 10.2364Z" fill="black"/>
<path d="M13.6907 26.0001C13.6256 25.9814 13.5605 25.9628 13.4954 25.9441C12.7421 25.7856 12.2027 25.0678 12.2864 24.3501C12.3794 23.5111 12.9932 22.9331 13.8023 22.9331C14.5835 22.9331 15.2345 23.5297 15.3089 24.3034C15.3833 25.0772 14.8532 25.7763 14.0906 25.9348C14.0255 25.9441 13.9604 25.9721 13.8953 25.9907C13.8302 26.0001 13.7651 26.0001 13.6907 26.0001Z" fill="black"/>
<path d="M7.12482 25.9999C6.95742 25.944 6.78072 25.916 6.62261 25.8414C5.9251 25.5338 5.581 24.7787 5.7856 24.0423C5.98091 23.3245 6.65981 22.8677 7.41312 22.9423C8.10133 23.0075 8.69654 23.6041 8.75234 24.294C8.81744 25.0677 8.34313 25.7482 7.59912 25.9346C7.52472 25.9533 7.45962 25.9719 7.38522 25.9999C7.30152 25.9999 7.20852 25.9999 7.12482 25.9999Z" fill="black"/>
<path d="M6.92954 20.6586C7.03184 20.6586 7.11554 20.6586 7.19925 20.6586C9.82188 20.6586 12.4445 20.6586 15.0578 20.6679C15.2717 20.6679 15.374 20.612 15.4298 20.3976C15.5228 20.0154 15.6437 19.6332 15.7646 19.2137C15.6251 19.2137 15.5321 19.2137 15.4298 19.2137C13.0211 19.2137 10.6124 19.2137 8.20366 19.2137C7.87815 19.2137 7.61775 19.0086 7.53405 18.6917C7.44105 18.3281 7.55265 18.0018 7.85025 17.8527C7.96185 17.7967 8.11065 17.7781 8.24086 17.7781C10.7891 17.7781 13.3466 17.7688 15.8948 17.7781C16.1181 17.7781 16.2204 17.7222 16.2762 17.4984C16.3785 17.0789 16.518 16.6688 16.6482 16.212C16.5273 16.212 16.4343 16.212 16.3413 16.212C13.7465 16.212 11.1518 16.212 8.55706 16.212C8.18506 16.212 7.91535 15.9976 7.82235 15.6433C7.72935 15.2705 7.86885 14.9162 8.18506 14.7578C8.27806 14.7111 8.39896 14.6925 8.50126 14.6925C11.5424 14.6925 14.5928 14.6925 17.634 14.6925C18.3594 14.6925 18.7314 15.1306 18.5454 15.8391C18.3222 16.6501 18.0432 17.4425 17.7735 18.2349C17.3922 19.3908 16.9923 20.5467 16.611 21.712C16.4343 22.2433 16.1367 22.4764 15.5786 22.4764C12.5375 22.4764 9.48707 22.4764 6.44594 22.4764C5.83213 22.4764 5.47872 22.1781 5.39502 21.5628C5.15322 19.801 4.92072 18.0484 4.68822 16.2866C4.56731 15.3917 4.45571 14.4967 4.32551 13.6111C4.26971 13.2103 3.97211 12.9772 3.6373 12.8188C2.88399 12.4552 2.12139 12.1103 1.35878 11.7467C0.930972 11.5417 0.558968 11.262 0.503167 10.7586C0.484567 10.5628 0.549667 10.3205 0.651968 10.1434C0.772869 9.91962 1.04257 9.84505 1.27507 9.95691C2.60499 10.6281 3.92561 11.3086 5.25552 11.9984C5.34852 12.045 5.43222 12.1289 5.52523 12.1942C5.78563 12.39 5.93443 12.6417 5.98093 12.9772C6.22273 15.0374 6.48314 17.0883 6.73424 19.1484C6.78074 19.6332 6.85514 20.1272 6.92954 20.6586Z" fill="black"/>
<path d="M17.8291 7.60752C17.8291 6.70328 17.8198 5.80837 17.8291 4.90413C17.8384 4.30752 18.3406 3.95328 18.8428 4.18634C19.1497 4.32617 19.252 4.58718 19.252 4.91345C19.252 6.19989 19.252 7.47701 19.252 8.76345C19.252 9.10837 19.2613 9.4626 19.252 9.80752C19.2427 9.99396 19.2985 10.0965 19.4752 10.1711C20.1356 10.4601 20.7866 10.7677 21.4283 11.0846C21.8375 11.2804 21.9677 11.7465 21.7352 12.1194C21.5492 12.4177 21.1772 12.5389 20.8424 12.3804C20.0054 11.9982 19.1683 11.6067 18.3313 11.2058C17.9593 11.0287 17.8198 10.6745 17.8198 10.2829C17.8291 9.38803 17.8291 8.50243 17.8291 7.60752Z" fill="black"/>
</svg>
