<svg width="44" height="44" viewBox="0 0 44 44" fill="none" xmlns="http://www.w3.org/2000/svg">
<path d="M44 22C44 34.1507 34.1507 44 22 44C9.84934 44 0 34.1507 0 22C0 9.84934 9.84934 0 22 0C34.1507 0 44 9.84934 44 22Z" fill="#EDF7F6"/>
<path d="M13.4818 9C13.2872 9 13.0945 9.03737 12.9147 9.10997C12.735 9.18257 12.5716 9.28899 12.434 9.42314C12.2964 9.55729 12.1873 9.71656 12.1128 9.89183C12.0383 10.0671 12 10.255 12 10.4447V33.5553C12 33.9385 12.1561 34.3059 12.434 34.5769C12.7119 34.8478 13.0888 35 13.4818 35H30.5182C30.9112 35 31.2881 34.8478 31.566 34.5769C31.8439 34.3059 32 33.9385 32 33.5553V15.6926L24.8587 9H13.4818Z" fill="#3F8483"/>
<path d="M32.0001 15.69H26.3407C26.1462 15.69 25.9535 15.6526 25.7738 15.5801C25.5941 15.5075 25.4309 15.4011 25.2934 15.267C25.1559 15.1328 25.0468 14.9736 24.9725 14.7984C24.8981 14.6232 24.86 14.4355 24.8601 14.2459V9L32.0001 15.69Z" fill="#104649"/>
<path d="M28 26.0214C28.0002 26.2812 27.9392 26.5385 27.8205 26.7785C27.7017 27.0185 27.5276 27.2367 27.308 27.4204C27.0884 27.6042 26.8276 27.7499 26.5406 27.8494C26.2536 27.9488 25.946 28 25.6354 28H8.36625C7.73868 28 7.13681 27.7915 6.69306 27.4205C6.2493 27.0494 6 26.5462 6 26.0214V19.9786C6 19.4538 6.2493 18.9506 6.69306 18.5795C7.13681 18.2085 7.73868 18 8.36625 18H25.6354C25.946 18 26.2536 18.0512 26.5406 18.1506C26.8276 18.2501 27.0884 18.3958 27.308 18.5796C27.5276 18.7633 27.7017 18.9815 27.8205 19.2215C27.9392 19.4615 28.0002 19.7188 28 19.9786V26.0214Z" fill="#104649"/>
<path d="M11.54 25.37C11.54 25.51 11.5333 25.6483 11.52 25.785C11.5066 25.9183 11.475 26.0383 11.425 26.145C11.375 26.2517 11.3 26.3383 11.2 26.405C11.1 26.4683 10.9633 26.5 10.79 26.5C10.6133 26.5 10.475 26.4683 10.375 26.405C10.275 26.3383 10.1983 26.2517 10.145 26.145C10.095 26.0383 10.0633 25.9183 10.05 25.785C10.0366 25.6483 10.03 25.51 10.03 25.37V23.63L8.53995 20.97C8.45995 20.83 8.38328 20.6933 8.30995 20.56C8.23662 20.4233 8.19995 20.2867 8.19995 20.15C8.19995 20.06 8.22495 19.97 8.27495 19.88C8.32828 19.7867 8.42328 19.7 8.55995 19.62C8.70995 19.54 8.84995 19.5 8.97995 19.5C9.07995 19.5 9.16995 19.5233 9.24995 19.57C9.33328 19.6133 9.40828 19.6717 9.47495 19.745C9.54162 19.8183 9.60162 19.9017 9.65495 19.995C9.70828 20.085 9.75662 20.1767 9.79995 20.27L10.71 22.18H10.87L11.78 20.27C11.8233 20.1767 11.8716 20.085 11.925 19.995C11.9783 19.9017 12.0383 19.8183 12.105 19.745C12.1716 19.6717 12.245 19.6133 12.325 19.57C12.4083 19.5233 12.5 19.5 12.6 19.5C12.67 19.5 12.7383 19.51 12.805 19.53C12.8716 19.55 12.9433 19.58 13.02 19.62C13.15 19.7 13.2416 19.7867 13.295 19.88C13.3516 19.97 13.38 20.06 13.38 20.15C13.38 20.21 13.3533 20.3083 13.3 20.445C13.2466 20.5783 13.16 20.7533 13.04 20.97L11.54 23.63V25.37Z" fill="white"/>
<path d="M17.19 24.88C17.0933 24.88 17.01 24.8617 16.94 24.825C16.8733 24.7883 16.815 24.7417 16.765 24.685C16.715 24.6283 16.6716 24.565 16.635 24.495C16.6016 24.425 16.5733 24.3567 16.55 24.29L15.6 21.55H15.47V25.72C15.47 25.8267 15.4633 25.9267 15.45 26.02C15.4366 26.1133 15.4066 26.1967 15.36 26.27C15.3166 26.34 15.25 26.3967 15.16 26.44C15.0733 26.48 14.9533 26.5 14.8 26.5C14.6266 26.5 14.49 26.48 14.39 26.44C14.29 26.3967 14.215 26.34 14.165 26.27C14.115 26.1967 14.0833 26.1133 14.07 26.02C14.0566 25.9267 14.05 25.8267 14.05 25.72V20.64C14.05 20.4967 14.0533 20.3567 14.06 20.22C14.07 20.0833 14.0983 19.9617 14.145 19.855C14.1916 19.7483 14.265 19.6633 14.365 19.6C14.4683 19.5333 14.6133 19.5 14.8 19.5H15.48C15.5933 19.5 15.6883 19.505 15.765 19.515C15.845 19.5217 15.9183 19.55 15.985 19.6C16.0516 19.6467 16.1166 19.7233 16.18 19.83C16.2466 19.9367 16.3183 20.0883 16.395 20.285C16.475 20.4783 16.5666 20.7267 16.67 21.03C16.7733 21.33 16.9 21.7 17.05 22.14L17.18 22.54H17.3L17.46 22.04C17.5966 21.62 17.7133 21.265 17.81 20.975C17.9066 20.685 17.9916 20.4467 18.065 20.26C18.1383 20.07 18.2033 19.925 18.26 19.825C18.32 19.7217 18.3816 19.6467 18.445 19.6C18.5116 19.55 18.5833 19.5217 18.66 19.515C18.7366 19.505 18.83 19.5 18.94 19.5H19.67C19.8566 19.5 20 19.5333 20.1 19.6C20.2033 19.6633 20.2783 19.7483 20.325 19.855C20.3716 19.9617 20.3983 20.0833 20.405 20.22C20.415 20.3567 20.42 20.4967 20.42 20.64V25.72C20.42 25.8267 20.4133 25.9267 20.4 26.02C20.3866 26.1133 20.355 26.1967 20.305 26.27C20.255 26.34 20.18 26.3967 20.08 26.44C19.98 26.48 19.8433 26.5 19.67 26.5C19.5166 26.5 19.395 26.48 19.305 26.44C19.2183 26.3967 19.1516 26.34 19.105 26.27C19.0616 26.1967 19.0333 26.1133 19.02 26.02C19.0066 25.9267 19 25.8267 19 25.72V21.55H18.86L17.92 24.29C17.8933 24.3567 17.8633 24.425 17.83 24.495C17.7966 24.565 17.755 24.6283 17.705 24.685C17.655 24.7417 17.5966 24.7883 17.53 24.825C17.4633 24.8617 17.3833 24.88 17.29 24.88H17.19Z" fill="white"/>
<path d="M22.13 20.65C22.13 20.5067 22.1366 20.3667 22.15 20.23C22.1633 20.0933 22.195 19.9717 22.245 19.865C22.2983 19.755 22.375 19.6667 22.475 19.6C22.575 19.5333 22.7133 19.5 22.89 19.5C23.08 19.5 23.2283 19.5333 23.335 19.6C23.4416 19.6667 23.52 19.755 23.57 19.865C23.62 19.9717 23.65 20.0933 23.66 20.23C23.6733 20.3667 23.68 20.5067 23.68 20.65V25.03H24.66C24.7966 25.03 24.9316 25.0367 25.065 25.05C25.1983 25.0633 25.3166 25.095 25.42 25.145C25.5266 25.195 25.6116 25.2683 25.675 25.365C25.7383 25.4617 25.77 25.5933 25.77 25.76C25.77 25.93 25.7383 26.065 25.675 26.165C25.6116 26.2617 25.5266 26.335 25.42 26.385C25.3166 26.435 25.1983 26.4667 25.065 26.48C24.9316 26.4933 24.7966 26.5 24.66 26.5H23.24C23.0633 26.5 22.9066 26.4933 22.77 26.48C22.6333 26.4667 22.5166 26.435 22.42 26.385C22.3266 26.335 22.255 26.2617 22.205 26.165C22.155 26.065 22.13 25.93 22.13 25.76V20.65Z" fill="white"/>
</svg>
