<svg width="26" height="26" viewBox="0 0 26 26" fill="none" xmlns="http://www.w3.org/2000/svg">
<g clip-path="url(#clip0)">
<path d="M23.0208 26H2.97923C1.33578 26 0 24.6642 0 23.0208V5.14578C0 3.50233 1.33578 2.16675 2.97923 2.16675H23.0208C24.6642 2.16675 26 3.50233 26 5.14578V23.0208C26 24.6642 24.6642 26 23.0208 26ZM2.97923 3.79175C2.23279 3.79175 1.625 4.39934 1.625 5.14578V23.0208C1.625 23.7672 2.23279 24.375 2.97923 24.375H23.0208C23.7672 24.375 24.375 23.7672 24.375 23.0208V5.14578C24.375 4.39934 23.7672 3.79175 23.0208 3.79175H2.97923Z" fill="#159822"/>
<path d="M25.1875 10.2917H0.8125C0.363998 10.2917 0 9.92775 0 9.47925C0 9.03075 0.363998 8.66675 0.8125 8.66675H25.1875C25.636 8.66675 26 9.03075 26 9.47925C26 9.92775 25.636 10.2917 25.1875 10.2917Z" fill="#159822"/>
<path d="M6.22998 6.5C5.78148 6.5 5.41748 6.136 5.41748 5.6875V0.8125C5.41748 0.363998 5.78148 0 6.22998 0C6.67848 0 7.04248 0.363998 7.04248 0.8125V5.6875C7.04248 6.136 6.67848 6.5 6.22998 6.5Z" fill="#159822"/>
<path d="M19.77 6.5C19.3215 6.5 18.9575 6.136 18.9575 5.6875V0.8125C18.9575 0.363998 19.3215 0 19.77 0C20.2185 0 20.5825 0.363998 20.5825 0.8125V5.6875C20.5825 6.136 20.2185 6.5 19.77 6.5Z" fill="#159822"/>
</g>
<defs>
<clipPath id="clip0">
<rect width="26" height="26" fill="white"/>
</clipPath>
</defs>
</svg>
