<svg width="29" height="29" viewBox="0 0 29 29" fill="none" xmlns="http://www.w3.org/2000/svg">
<g clip-path="url(#clip0)">
<path d="M25.4566 9.02167H3.54353C3.20753 9.02167 2.93481 9.29438 2.93481 9.63038V13.2826C2.93481 19.6592 8.12335 24.8478 14.5 24.8478C20.8767 24.8478 26.0653 19.6592 26.0653 13.2826V9.63038C26.0653 9.29438 25.7926 9.02167 25.4566 9.02167ZM24.8479 13.2826C24.8479 18.9884 20.206 23.6304 14.5001 23.6304C8.79421 23.6304 4.15224 18.9884 4.15224 13.2826V10.2391H24.8479V13.2826Z" fill="#009B3E"/>
<path d="M14.5 11.4565C11.4796 11.4565 9.02173 13.9145 9.02173 16.9348C9.02173 19.9551 11.4796 22.4131 14.5 22.4131C17.5203 22.4131 19.9783 19.9551 19.9783 16.9348C19.9783 13.9145 17.5203 11.4565 14.5 11.4565ZM14.5 21.1957C12.1504 21.1957 10.2391 19.2844 10.2391 16.9348C10.2391 14.5852 12.1504 12.6739 14.5 12.6739C16.8496 12.6739 18.7609 14.5853 18.7609 16.9348C18.7609 19.2843 16.8496 21.1957 14.5 21.1957Z" fill="#009B3E"/>
<path d="M14.5 13.8914C12.8213 13.8914 11.4565 15.2573 11.4565 16.9348C11.4565 18.6124 12.8213 19.9783 14.5 19.9783C16.1787 19.9783 17.5435 18.6124 17.5435 16.9348C17.5435 15.2573 16.1788 13.8914 14.5 13.8914ZM14.5 18.7609C13.4932 18.7609 12.6739 17.9416 12.6739 16.9348C12.6739 15.928 13.4932 15.1087 14.5 15.1087C15.5068 15.1087 16.3261 15.928 16.3261 16.9348C16.3261 17.9416 15.5068 18.7609 14.5 18.7609Z" fill="#009B3E"/>
<path d="M27.8913 4.15216H1.10871C0.772714 4.15216 0.5 4.42487 0.5 4.76087V8.41304C0.5 9.41984 1.31928 10.2391 2.32609 10.2391H26.6739C27.6807 10.2391 28.5 9.41984 28.5 8.41304V4.76087C28.5 4.42487 28.2273 4.15216 27.8913 4.15216ZM27.2826 8.41304C27.2826 8.74904 27.0087 9.02176 26.6739 9.02176H2.32609C1.99128 9.02176 1.71737 8.74904 1.71737 8.41304V5.36953H27.2826V8.41304Z" fill="#009B3E"/>
<path d="M21.8043 13.8913C22.1405 13.8913 22.413 13.6188 22.413 13.2826C22.413 12.9464 22.1405 12.6739 21.8043 12.6739C21.4681 12.6739 21.1956 12.9464 21.1956 13.2826C21.1956 13.6188 21.4681 13.8913 21.8043 13.8913Z" fill="#009B3E"/>
</g>
<defs>
<clipPath id="clip0">
<rect width="28" height="28" fill="white" transform="translate(0.5 0.5)"/>
</clipPath>
</defs>
</svg>
