<svg width="28" height="20" viewBox="0 0 28 20" fill="none" xmlns="http://www.w3.org/2000/svg">
<path d="M27.05 8.93416L25.1434 8.10899L23.5243 4.95834C23.0867 4.09566 22.199 3.55805 21.2301 3.5643H18.442V2.77664C18.442 1.35134 17.3042 0.188599 15.879 0.188599H2.55118C1.12589 0.188599 0.000654615 1.35759 0.000654615 2.77664V14.8416C-0.011848 15.7106 0.682046 16.4232 1.55098 16.4357C1.55723 16.4357 1.56348 16.4357 1.57598 16.4357H1.9073C1.9073 16.4982 1.90105 16.5232 1.90105 16.5607C1.8948 18.3486 3.33885 19.8052 5.12672 19.8114C6.91459 19.8177 8.37114 18.3736 8.37739 16.5858C8.37739 16.5732 8.37739 16.567 8.37739 16.5545C8.37739 16.5107 8.37739 16.492 8.37114 16.4295H19.1421C19.1421 16.492 19.1421 16.517 19.1421 16.5545C19.1359 18.3424 20.5799 19.7989 22.3678 19.8052C24.1557 19.8114 25.6122 18.3674 25.6185 16.5795C25.6185 16.567 25.6185 16.5607 25.6185 16.5482C25.6185 16.5045 25.6185 16.4857 25.6185 16.4232H26.4249C27.2938 16.4232 28.0002 15.7168 28.0002 14.8479C28.0002 14.8416 28.0002 14.8354 28.0002 14.8229V10.3845C28.0127 9.77184 27.6376 9.19047 27.05 8.93416ZM5.14547 18.5674C4.04524 18.5674 3.15756 17.6797 3.15756 16.5795C3.15756 15.4793 4.04524 14.5916 5.14547 14.5916C6.2457 14.5916 7.13339 15.4793 7.13339 16.5795C7.13339 17.6735 6.23945 18.5674 5.14547 18.5674ZM17.1917 15.198H8.07733C7.55222 14.054 6.40198 13.3226 5.14547 13.3288C3.88271 13.3226 2.73872 14.0477 2.21361 15.198H1.57598C1.38219 15.198 1.25091 15.0479 1.25091 14.8541V11.6347H17.1917V15.198ZM17.1917 2.78289V10.3845H1.25091V2.78289C1.25091 2.05149 1.81978 1.44511 2.55118 1.44511H15.879C16.6104 1.45136 17.198 2.05149 17.1917 2.77664V2.78289ZM18.442 4.82081H21.2301C21.7239 4.81456 22.1865 5.08336 22.4178 5.52721L23.6681 7.94646H18.442V4.82081ZM22.3866 18.5674C21.2863 18.5674 20.3986 17.6797 20.3986 16.5795C20.3986 15.4793 21.2863 14.5916 22.3866 14.5916C23.4868 14.5916 24.3745 15.4793 24.3745 16.5795C24.3745 17.6735 23.4868 18.5674 22.3866 18.5674ZM26.7562 14.8541C26.7562 15.0479 26.6249 15.198 26.4311 15.198H25.3184C24.562 13.5789 22.6366 12.8787 21.0175 13.6351C20.3299 13.954 19.7735 14.5103 19.4547 15.198H18.442V9.19672H24.5683L26.5562 10.0719C26.6812 10.1344 26.7625 10.2719 26.7562 10.4095V14.8541Z" fill="#363636"/>
</svg>
