<svg width="24" height="24" viewBox="0 0 24 24" fill="none" xmlns="http://www.w3.org/2000/svg">
<path d="M15.4455 4.19727H4.28843C3.24153 4.19727 2.39124 5.04756 2.39124 6.09446V22.1027C2.39124 23.1495 3.24153 23.9998 4.28843 23.9998H15.4455C16.4924 23.9998 17.3427 23.1495 17.3427 22.1027V6.09446C17.3378 5.04756 16.4875 4.19727 15.4455 4.19727ZM16.0107 22.0977C16.0107 22.4123 15.7552 22.6679 15.4406 22.6679H4.28351C3.96895 22.6679 3.71337 22.4123 3.71337 22.0977V6.09446C3.71337 5.7799 3.96895 5.52432 4.28351 5.52432H15.4406C15.7552 5.52432 16.0107 5.7799 16.0107 6.09446V22.0977Z" fill="#9E9E9E"/>
<path d="M19.7117 0H8.55467C7.50777 0 6.65747 0.850297 6.65747 1.89719C6.65747 2.26582 6.95237 2.56072 7.321 2.56072C7.68962 2.56072 7.98452 2.26582 7.98452 1.89719C7.98452 1.58263 8.2401 1.32705 8.55467 1.32705H19.7117C20.0263 1.32705 20.2819 1.58263 20.2819 1.89719V17.9054C20.2819 18.2199 20.0263 18.4755 19.7117 18.4755C19.3431 18.4755 19.0482 18.7704 19.0482 19.1391C19.0482 19.5077 19.3431 19.8026 19.7117 19.8026C20.7586 19.8026 21.6089 18.9523 21.6089 17.9054V1.89719C21.6089 0.850297 20.7586 0 19.7117 0Z" fill="#9E9E9E"/>
</svg>
