<svg width="24" height="24" viewBox="0 0 24 24" fill="none" xmlns="http://www.w3.org/2000/svg">
<path d="M20.4383 4.87829H16.2275V4.19984C16.2275 2.98684 15.2288 2 14.0014 2H9.99861C8.77115 2 7.77254 2.98684 7.77254 4.19984V4.87829H3.56172C3.24965 4.87829 3 5.125 3 5.43339C3 5.74178 3.24965 5.98849 3.56172 5.98849H4.57698V19.0312C4.57698 20.6678 5.9251 22 7.58114 22H16.4189C18.0749 22 19.423 20.6678 19.423 19.0312V5.98849H20.4383C20.7503 5.98849 21 5.74178 21 5.43339C21 5.125 20.7503 4.87829 20.4383 4.87829ZM8.89598 4.19984C8.89598 3.59951 9.39112 3.1102 9.99861 3.1102H14.0014C14.6089 3.1102 15.104 3.59951 15.104 4.19984V4.87829H8.89598V4.19984ZM18.2996 19.0312C18.2996 20.0551 17.4549 20.8898 16.4189 20.8898H7.58114C6.54508 20.8898 5.70042 20.0551 5.70042 19.0312V5.98849H18.3037V19.0312H18.2996Z" fill="#7E7E7E"/>
<path d="M12.0001 18.8996C12.3121 18.8996 12.5618 18.6529 12.5618 18.3445V8.53361C12.5618 8.22523 12.3121 7.97852 12.0001 7.97852C11.688 7.97852 11.4384 8.22523 11.4384 8.53361V18.3404C11.4384 18.6487 11.688 18.8996 12.0001 18.8996Z" fill="#7E7E7E"/>
<path d="M8.3343 18.287C8.64637 18.287 8.89602 18.0403 8.89602 17.7319V9.14226C8.89602 8.83387 8.64637 8.58716 8.3343 8.58716C8.02224 8.58716 7.77258 8.83387 7.77258 9.14226V17.7319C7.77258 18.0403 8.0264 18.287 8.3343 18.287Z" fill="#7E7E7E"/>
<path d="M15.6658 18.287C15.9779 18.287 16.2276 18.0403 16.2276 17.7319V9.14226C16.2276 8.83387 15.9779 8.58716 15.6658 8.58716C15.3538 8.58716 15.1041 8.83387 15.1041 9.14226V17.7319C15.1041 18.0403 15.3538 18.287 15.6658 18.287Z" fill="#7E7E7E"/>
</svg>
