<svg width="29" height="29" viewBox="0 0 29 29" fill="none" xmlns="http://www.w3.org/2000/svg">
<g clip-path="url(#clip0)">
<path d="M26.5475 14.9059L26.6373 14.862L26.5475 14.9059L27.5918 17.0423C28.1496 18.1833 27.7079 19.5427 26.586 20.1379L24.4855 21.2524L24.4854 21.2524C24.2316 21.3871 24.0572 21.6272 24.0075 21.9103L24.106 21.9276L24.0075 21.9103L23.5967 24.2524C23.3772 25.5033 22.2213 26.3435 20.9634 26.1656L18.609 25.8325L18.6089 25.8325C18.3245 25.7926 18.0423 25.884 17.8357 26.0838L17.8357 26.0838L16.1266 27.7371L16.1961 27.809L16.1266 27.7371C15.6701 28.1788 15.0844 28.3994 14.4992 28.3994C13.9138 28.3995 13.3285 28.179 12.8718 27.7371L11.1628 26.0838L11.1627 26.0838C10.9562 25.8841 10.6739 25.7921 10.3894 25.8325L8.035 26.1656C7.92212 26.1815 7.80988 26.1893 7.69934 26.1893C6.57753 26.1894 5.6015 25.3913 5.40172 24.2524L4.99091 21.9102L4.9909 21.9102C4.94122 21.6272 4.76682 21.3871 4.51293 21.2524L2.4124 20.1379L2.36553 20.2262L2.4124 20.1379C1.29051 19.5426 0.848837 18.1834 1.40658 17.0424L2.45089 14.9061C2.57709 14.6479 2.57709 14.3511 2.45089 14.0929L2.36105 14.1368L2.45089 14.0929L1.40664 11.9566C0.84889 10.8156 1.29057 9.4562 2.41245 8.861L2.36559 8.77266L2.41246 8.861L4.51299 7.74648L4.51301 7.74647C4.76682 7.61175 4.94122 7.37166 4.9909 7.08864L4.99091 7.08862L5.40172 4.74654C5.62115 3.49558 6.77724 2.65535 8.03494 2.83334L8.03495 2.83334L10.3894 3.16638L10.3895 3.16639C10.674 3.20645 10.9561 3.11494 11.1627 2.91508L11.0932 2.84321L11.1627 2.91508L12.8718 1.26161L12.8023 1.18974L12.8718 1.26161C13.7846 0.378463 15.2138 0.37851 16.1267 1.26161L16.1962 1.18974L16.1267 1.26161L17.8357 2.91492C18.0422 3.11469 18.3243 3.20641 18.609 3.16622L18.609 3.16622L20.9634 2.83318L20.9494 2.73416L20.9634 2.83318C22.2207 2.65529 23.3772 3.49543 23.5967 4.74637L24.0075 7.08857C24.0572 7.37154 24.2316 7.61171 24.4855 7.74637L26.586 8.86089C27.7079 9.45615 28.1496 10.8154 27.5918 11.9564L26.5475 14.0928C26.4213 14.351 26.4213 14.6477 26.5475 14.9059ZM21.1616 24.7645L21.1616 24.7645C21.6587 24.8347 22.1164 24.5022 22.2031 24.0078L22.6139 21.6657C22.7395 20.9493 23.1798 20.3434 23.8223 20.0025L25.9228 18.8879C26.3662 18.6527 26.541 18.1145 26.3206 17.6635L25.2763 15.5272C24.9569 14.8738 24.9569 14.1248 25.2763 13.4714L26.3206 11.3351L26.2307 11.2912L26.3206 11.3351C26.541 10.8842 26.3661 10.346 25.9227 10.1108L23.8222 8.99626L23.7753 9.0846L23.8222 8.99626C23.1797 8.65542 22.7395 8.04951 22.6138 7.33308L22.203 4.99089C22.1163 4.49653 21.6583 4.16392 21.1615 4.2342L18.8071 4.56725L18.8211 4.66626L18.8071 4.56725C18.0869 4.66918 17.3746 4.4377 16.8518 3.93196L15.1428 2.27866L15.1428 2.27865C14.782 1.92978 14.2161 1.92976 13.8555 2.27866L12.1464 3.93196C11.6236 4.43765 10.9111 4.66918 10.1911 4.56725L10.1911 4.56725L7.83666 4.2342L7.83664 4.2342C7.33957 4.16398 6.88195 4.49654 6.79519 4.99088L6.79519 4.99089L6.38438 7.33303C6.25873 8.04945 5.81848 8.6553 5.17601 8.99626C5.17601 8.99626 5.17601 8.99627 5.17601 8.99627L3.07548 10.1108C2.63212 10.346 2.45725 10.8842 2.67764 11.3351L2.76748 11.2912L2.67764 11.3351L3.72195 13.4714C4.04134 14.1249 4.04134 14.8738 3.72195 15.5272L2.67764 17.6636L2.76748 17.7075L2.67764 17.6636C2.45725 18.1145 2.63212 18.6527 3.07548 18.8879L5.17601 20.0024L5.22288 19.9141L5.17602 20.0024C5.81852 20.3433 6.25873 20.9492 6.38444 21.6656L6.7953 24.0078L6.8938 23.9905L6.7953 24.0078C6.88206 24.5022 7.34008 24.8347 7.83677 24.7645L7.82277 24.6655L7.83677 24.7645L10.1912 24.4314L10.1772 24.3324L10.1912 24.4314C10.3028 24.4156 10.4143 24.4079 10.5248 24.4079C11.1273 24.4079 11.7045 24.6392 12.1465 25.0667L13.8555 26.72L13.8555 26.72C14.2163 27.0689 14.7822 27.0689 15.1428 26.72L16.8519 25.0668C17.3747 24.5611 18.0869 24.3295 18.8071 24.4315L21.1616 24.7645Z" fill="#009B3E" stroke="white" stroke-width="0.2"/>
<path d="M20.3284 8.67079L20.3284 8.67079C20.6048 8.94712 20.6048 9.39501 20.3284 9.67134L20.3284 9.67135L9.67045 20.3293L9.67042 20.3293C9.53234 20.4675 9.35141 20.5365 9.17022 20.5365C8.98906 20.5365 8.80816 20.4674 8.67 20.3293C8.39372 20.053 8.39372 19.6051 8.67 19.3288L19.3279 8.67079C19.6042 8.39451 20.0522 8.39452 20.3284 8.67079Z" fill="#009B3E" stroke="white" stroke-width="0.2"/>
<path d="M8.40981 10.1936C8.40981 8.61627 9.69323 7.33285 11.2705 7.33285C12.8478 7.33285 14.1312 8.61627 14.1312 10.1936C14.1312 11.7709 12.8478 13.0543 11.2705 13.0543C9.69323 13.0543 8.40981 11.7709 8.40981 10.1936ZM9.82478 10.1935C9.82478 10.9908 10.4732 11.6393 11.2705 11.6393C12.0678 11.6393 12.7163 10.9908 12.7163 10.1935C12.7163 9.39622 12.0678 8.74776 11.2705 8.74776C10.4732 8.74776 9.82478 9.39622 9.82478 10.1935Z" fill="#009B3E" stroke="white" stroke-width="0.2"/>
<path d="M14.8686 18.8065C14.8686 17.2292 16.152 15.9458 17.7293 15.9458C19.3065 15.9458 20.59 17.2292 20.59 18.8065C20.59 20.3838 19.3065 21.6672 17.7293 21.6672C16.152 21.6672 14.8686 20.3838 14.8686 18.8065ZM16.2835 18.8065C16.2835 19.6038 16.932 20.2523 17.7293 20.2523C18.5265 20.2523 19.175 19.6038 19.175 18.8065C19.175 18.0093 18.5265 17.3608 17.7293 17.3608C16.9319 17.3608 16.2835 18.0093 16.2835 18.8065Z" fill="#009B3E" stroke="white" stroke-width="0.2"/>
</g>
<defs>
<clipPath id="clip0">
<rect width="28" height="28" fill="white" transform="translate(0.5 0.5)"/>
</clipPath>
</defs>
</svg>
