<svg width="28" height="28" viewBox="0 0 28 28" fill="none" xmlns="http://www.w3.org/2000/svg">
<path d="M22.9997 14.0001C22.4474 14.0001 21.9997 14.4478 21.9997 15.0001V24.9999C21.9997 25.5522 21.552 25.9999 20.9997 25.9999H2.99996C2.44766 25.9999 1.99995 25.5522 1.99995 24.9999V5.0002C1.99995 4.44791 2.44766 4.0002 2.99996 4.0002H14.9998C15.5521 4.0002 15.9998 3.55249 15.9998 3.00019C15.9998 2.44789 15.5521 2.00024 14.9998 2.00024H2.99996C1.34313 2.00024 0 3.34337 0 5.0002V24.9999C0 26.6568 1.34313 27.9999 2.99996 27.9999H20.9997C22.6566 27.9999 23.9997 26.6568 23.9997 24.9999V15C23.9997 14.4478 23.552 14.0001 22.9997 14.0001Z" fill="#159822"/>
<path d="M26.8786 1.12161C26.1606 0.403497 25.1868 0.000142775 24.1713 0.000259961C23.1552 -0.00266969 22.1804 0.401387 21.4644 1.12226L8.29247 14.293C8.1832 14.4031 8.10076 14.5369 8.05148 14.684L6.05152 20.6839C5.87698 21.2079 6.16027 21.7742 6.68427 21.9487C6.78593 21.9825 6.89239 21.9998 6.9995 21.9999C7.10684 21.9998 7.21354 21.9825 7.31549 21.949L13.3154 19.949C13.4628 19.8998 13.5967 19.8169 13.7064 19.707L26.8782 6.53519C28.3732 5.04037 28.3734 2.61661 26.8786 1.12161ZM25.4643 5.12217L12.4644 18.122L8.58046 19.419L9.87343 15.54L22.8783 2.54021C23.5932 1.82666 24.7513 1.82783 25.4648 2.54278C25.8057 2.88432 25.9978 3.34668 25.9992 3.82919C26.0004 4.31428 25.8079 4.77975 25.4643 5.12217Z" fill="#159822"/>
</svg>
