<svg width="28" height="28" viewBox="0 0 28 28" fill="none" xmlns="http://www.w3.org/2000/svg">
<path d="M23.9463 15.4291L18.5137 20.8602C18.0954 21.28 17.5373 21.5117 16.9426 21.5117C16.3489 21.5117 15.7908 21.2805 15.371 20.8607C14.9511 20.4409 14.72 19.8832 14.72 19.2891C14.72 18.6949 14.9516 18.1372 15.371 17.7174L16.866 16.2223H5.76778C4.54238 16.2223 3.54517 15.2251 3.54517 13.9997C3.54517 12.7743 4.54238 11.7771 5.76778 11.7771H16.8655L15.371 10.2825C14.9506 9.8627 14.72 9.30458 14.72 8.71089C14.72 8.11721 14.9511 7.55859 15.371 7.13926C15.7903 6.71943 16.3484 6.48828 16.9421 6.48828C17.5358 6.48828 18.0939 6.71943 18.5142 7.13877L23.8243 12.4488C23.9473 12.5753 24.4071 13.0776 24.455 13.8728C24.5059 14.7218 24.051 15.3022 23.9463 15.4291ZM23.0869 13.1092L17.8153 7.83766C17.3486 7.37189 16.5346 7.3714 16.0698 7.83766C15.8357 8.07128 15.7078 8.38145 15.7078 8.71139C15.7078 9.04083 15.8362 9.35101 16.0694 9.58463L19.2511 12.7654H5.76778V12.7649C5.08717 12.7649 4.53299 13.3191 4.53299 13.9997C4.53299 14.6808 5.08717 15.2345 5.76778 15.2345H19.2507L16.0694 18.4158C15.8357 18.6494 15.7078 18.9591 15.7078 19.2891C15.7078 19.619 15.8362 19.9287 16.0694 20.1623C16.5371 20.6295 17.3511 20.6281 17.8148 20.1628L23.1353 14.8419C23.1985 14.7771 23.4726 14.4838 23.482 14.0239C23.4934 13.4925 23.1417 13.1596 23.0869 13.1092Z" fill="#3F8483"/>
</svg>
