<svg width="22" height="15" viewBox="0 0 22 15" fill="none" xmlns="http://www.w3.org/2000/svg">
<path d="M10.7208 4.2854C9.14466 4.2854 7.86377 5.56629 7.86377 7.14243C7.86377 8.71857 9.14466 9.99946 10.7208 9.99946C12.2969 9.99946 13.5778 8.71857 13.5778 7.14243C13.5778 5.56629 12.2969 4.2854 10.7208 4.2854Z" fill="#009B44"/>
<path d="M10.7209 0C5.95917 0 1.89269 2.96176 0.245117 7.14257C1.89269 11.3233 5.95917 14.2851 10.7209 14.2851C15.4874 14.2851 19.5491 11.3233 21.1967 7.14257C19.5491 2.96176 15.4874 0 10.7209 0ZM10.7209 11.9043C8.09244 11.9043 5.95917 9.77099 5.95917 7.14253C5.95917 4.51406 8.09244 2.38084 10.7209 2.38084C13.3494 2.38084 15.4826 4.5141 15.4826 7.14257C15.4826 9.77104 13.3494 11.9043 10.7209 11.9043Z" fill="#009B44"/>
</svg>
