<svg width="24" height="24" viewBox="0 0 24 24" fill="none" xmlns="http://www.w3.org/2000/svg">
<path fill-rule="evenodd" clip-rule="evenodd" d="M8.9425 5L7.98 3H2.5C1.6715 3 1 3.672 1 4.5V19.5C1 20.3285 1.6715 21 2.5 21H20.5C21.3285 21 22 20.328 22 19.5V6.5005C22.0005 5.672 21.3285 5 20.5 5H8.9425ZM21 19.5C21 19.7765 20.7699 20.0005 20.4865 20.0005H2.51351C2.23005 20.0005 2 19.7765 2 19.5V9.5C2 9.2235 2.23005 9 2.51351 9H20.4865C20.7699 9 21 9.2235 21 9.5V19.5ZM21 8.0005H2V4.5005C2 4.2245 2.224 4.0005 2.5 4.0005H7.492L8.489 6.0005H20.5C20.776 6.0005 21 6.2245 21 6.5005V7.0005V8.0005Z" fill="#7E7E7E"/>
</svg>
