<svg width="29" height="23" viewBox="0 0 29 23" fill="none" xmlns="http://www.w3.org/2000/svg">
<g clip-path="url(#clip0)">
<path d="M27.9616 2.70511H16.1155V4.32049L16.6539 4.85895L17.1924 7.0128L18.2693 9.70511L19.8847 10.782L22.0386 11.3205L24.1924 10.782L26.3462 9.16665L26.8847 7.0128V4.85895L27.9616 4.32049V2.70511Z" fill="white"/>
<path d="M27.0953 4.38437H16.9816C16.7713 4.38437 16.6007 4.55502 16.6007 4.76532V6.45094C16.6007 9.44925 19.0402 11.8887 22.0385 11.8887C25.0368 11.8887 27.4763 9.44925 27.4763 6.45094V4.76532C27.4763 4.55502 27.3056 4.38437 27.0953 4.38437ZM26.7144 6.45094C26.7144 9.0292 24.6168 11.1268 22.0385 11.1268C19.4602 11.1268 17.3626 9.0292 17.3626 6.45094V5.14627H26.7144V6.45094Z" fill="#009B3E" stroke="#009B3E" stroke-width="0.2"/>
<path d="M22.0384 5.9827C20.8503 5.9827 19.8845 6.94936 19.8845 8.13657C19.8845 9.32378 20.8503 10.2904 22.0384 10.2904C23.2264 10.2904 24.1923 9.32378 24.1923 8.13657C24.1923 6.94936 23.2265 5.9827 22.0384 5.9827ZM22.0384 9.4289C21.3259 9.4289 20.7461 8.84909 20.7461 8.13657C20.7461 7.42405 21.3259 6.84424 22.0384 6.84424C22.7509 6.84424 23.3307 7.42405 23.3307 8.13657C23.3307 8.84909 22.7509 9.4289 22.0384 9.4289Z" fill="#009B3E"/>
<path d="M28.219 2.13691H15.8578C15.6475 2.13691 15.4769 2.30755 15.4769 2.51785V4.20347C15.4769 4.72338 15.8998 5.14628 16.4197 5.14628H27.6572C28.1771 5.14628 28.6 4.72338 28.6 4.20347V2.51785C28.6 2.30755 28.4293 2.13691 28.219 2.13691ZM27.8381 4.20347C27.8381 4.30319 27.7566 4.38441 27.6571 4.38441H16.4197C16.3203 4.38441 16.2388 4.30319 16.2388 4.20347V2.89877H27.8381V4.20347Z" fill="#009B3E" stroke="#009B3E" stroke-width="0.2"/>
<path d="M25.4096 6.83187C25.62 6.83187 25.7906 6.66132 25.7906 6.45093C25.7906 6.24054 25.62 6.06998 25.4096 6.06998C25.1992 6.06998 25.0287 6.24054 25.0287 6.45093C25.0287 6.66132 25.1992 6.83187 25.4096 6.83187Z" fill="#009B3E" stroke="#009B3E" stroke-width="0.2"/>
</g>
<g clip-path="url(#clip1)">
<path d="M20.4233 2.70511H8.57715V4.32049L9.11561 4.85895L9.65407 7.0128L10.731 9.70511L12.3464 10.782L14.5002 11.3205L16.6541 10.782L18.8079 9.16665L19.3464 7.0128V4.85895L20.4233 4.32049V2.70511Z" fill="white"/>
<path d="M19.557 4.38437H9.4433C9.23299 4.38437 9.06235 4.55502 9.06235 4.76532V6.45094C9.06235 9.44925 11.5018 11.8887 14.5002 11.8887C17.4985 11.8887 19.9379 9.44925 19.9379 6.45094V4.76532C19.9379 4.55502 19.7673 4.38437 19.557 4.38437ZM19.1761 6.45094C19.1761 9.0292 17.0784 11.1268 14.5002 11.1268C11.9219 11.1268 9.82424 9.0292 9.82424 6.45094V5.14627H19.1761V6.45094Z" fill="#009B3E" stroke="#009B3E" stroke-width="0.2"/>
<path d="M14.5001 5.9827C13.312 5.9827 12.3462 6.94936 12.3462 8.13657C12.3462 9.32378 13.312 10.2904 14.5001 10.2904C15.6881 10.2904 16.6539 9.32378 16.6539 8.13657C16.6539 6.94936 15.6881 5.9827 14.5001 5.9827ZM14.5001 9.4289C13.7875 9.4289 13.2077 8.84909 13.2077 8.13657C13.2077 7.42405 13.7875 6.84424 14.5001 6.84424C15.2126 6.84424 15.7924 7.42405 15.7924 8.13657C15.7924 8.84909 15.2126 9.4289 14.5001 9.4289Z" fill="#009B3E"/>
<path d="M20.6807 2.13691H8.31952C8.10921 2.13691 7.93857 2.30755 7.93857 2.51785V4.20347C7.93857 4.72338 8.36148 5.14628 8.88138 5.14628H20.1188C20.6387 5.14628 21.0617 4.72338 21.0617 4.20347V2.51785C21.0617 2.30755 20.891 2.13691 20.6807 2.13691ZM20.2998 4.20347C20.2998 4.30319 20.2182 4.38441 20.1188 4.38441H8.88138C8.78196 4.38441 8.70044 4.30319 8.70044 4.20347V2.89877H20.2998V4.20347Z" fill="#009B3E" stroke="#009B3E" stroke-width="0.2"/>
<path d="M17.8713 6.83187C18.0817 6.83187 18.2522 6.66132 18.2522 6.45093C18.2522 6.24054 18.0817 6.06998 17.8713 6.06998C17.6609 6.06998 17.4903 6.24054 17.4903 6.45093C17.4903 6.66132 17.6609 6.83187 17.8713 6.83187Z" fill="#009B3E" stroke="#009B3E" stroke-width="0.2"/>
</g>
<g clip-path="url(#clip2)">
<path d="M12.8847 2.70511H1.03857V4.32049L1.57704 4.85895L2.1155 7.0128L3.19242 9.70511L4.8078 10.782L6.96165 11.3205L9.1155 10.782L11.2693 9.16665L11.8078 7.0128V4.85895L12.8847 4.32049V2.70511Z" fill="white"/>
<path d="M12.0184 4.38437H1.90472C1.69442 4.38437 1.52378 4.55502 1.52378 4.76532V6.45094C1.52378 9.44925 3.96326 11.8887 6.96158 11.8887C9.95989 11.8887 12.3994 9.44925 12.3994 6.45094V4.76532C12.3994 4.55502 12.2287 4.38437 12.0184 4.38437ZM11.6375 6.45094C11.6375 9.0292 9.53986 11.1268 6.9616 11.1268C4.38334 11.1268 2.28567 9.0292 2.28567 6.45094V5.14627H11.6375V6.45094Z" fill="#009B3E" stroke="#009B3E" stroke-width="0.2"/>
<path d="M6.96148 5.9827C5.77343 5.9827 4.80762 6.94936 4.80762 8.13657C4.80762 9.32378 5.77343 10.2904 6.96148 10.2904C8.14953 10.2904 9.11535 9.32378 9.11535 8.13657C9.11535 6.94936 8.14957 5.9827 6.96148 5.9827ZM6.96148 9.4289C6.24897 9.4289 5.66915 8.84909 5.66915 8.13657C5.66915 7.42405 6.24897 6.84424 6.96148 6.84424C7.674 6.84424 8.25381 7.42405 8.25381 8.13657C8.25381 8.84909 7.674 9.4289 6.96148 9.4289Z" fill="#009B3E"/>
<path d="M13.1421 2.13691H0.780945C0.57064 2.13691 0.4 2.30755 0.4 2.51785V4.20347C0.4 4.72338 0.822903 5.14628 1.34281 5.14628H12.5803C13.1002 5.14628 13.5231 4.72338 13.5231 4.20347V2.51785C13.5231 2.30755 13.3524 2.13691 13.1421 2.13691ZM12.7612 4.20347C12.7612 4.30319 12.6797 4.38441 12.5802 4.38441H1.34281C1.24339 4.38441 1.16186 4.30319 1.16186 4.20347V2.89877H12.7612V4.20347Z" fill="#009B3E" stroke="#009B3E" stroke-width="0.2"/>
<path d="M10.3327 6.83187C10.5431 6.83187 10.7136 6.66132 10.7136 6.45093C10.7136 6.24054 10.5431 6.06998 10.3327 6.06998C10.1223 6.06998 9.95176 6.24054 9.95176 6.45093C9.95176 6.66132 10.1223 6.83187 10.3327 6.83187Z" fill="#009B3E" stroke="#009B3E" stroke-width="0.2"/>
</g>
<path d="M25.8076 17.5628C26.0837 17.5628 26.3536 17.4809 26.5832 17.3275C26.8128 17.1741 26.9918 16.956 27.0975 16.7009C27.2031 16.4458 27.2308 16.1651 27.1769 15.8942C27.123 15.6234 26.9901 15.3746 26.7948 15.1794C26.5996 14.9841 26.3508 14.8512 26.08 14.7973C25.8091 14.7434 25.5284 14.7711 25.2733 14.8767C25.0182 14.9824 24.8001 15.1614 24.6467 15.391C24.4933 15.6206 24.4114 15.8905 24.4114 16.1666C24.4114 16.35 24.4475 16.5315 24.5177 16.7009C24.5879 16.8703 24.6907 17.0242 24.8204 17.1538C24.95 17.2835 25.1039 17.3863 25.2733 17.4565C25.4427 17.5267 25.6242 17.5628 25.8076 17.5628ZM25.8076 15.7679C25.8864 15.7679 25.9635 15.7913 26.0291 15.8351C26.0947 15.8789 26.1458 15.9412 26.1759 16.014C26.2061 16.0869 26.214 16.1671 26.1986 16.2444C26.1833 16.3217 26.1453 16.3928 26.0895 16.4486C26.0338 16.5043 25.9627 16.5423 25.8854 16.5577C25.808 16.5731 25.7279 16.5652 25.655 16.535C25.5821 16.5048 25.5199 16.4537 25.4761 16.3881C25.4322 16.3226 25.4089 16.2455 25.4089 16.1666C25.4089 16.0609 25.4509 15.9595 25.5256 15.8847C25.6004 15.8099 25.7018 15.7679 25.8076 15.7679Z" fill="#009B3E" stroke="#009B3E" stroke-width="0.1"/>
<path d="M3.82054 15.2191C3.68828 15.2191 3.56143 15.2717 3.4679 15.3652C3.37437 15.4587 3.32183 15.5856 3.32183 15.7179V18.4102C3.32183 18.5424 3.37437 18.6693 3.4679 18.7628C3.56142 18.8563 3.68828 18.9089 3.82054 18.9089H16.3846C16.5169 18.9089 16.6438 18.8563 16.7373 18.7628C16.8308 18.6693 16.8834 18.5424 16.8834 18.4102V15.7179C16.8834 15.5856 16.8308 15.4587 16.7373 15.3652C16.6438 15.2717 16.5169 15.2191 16.3846 15.2191H3.82054ZM15.8859 17.9114H4.31926V16.2166H15.8859V17.9114Z" fill="#009B3E" stroke="#009B3E" stroke-width="0.1"/>
<path d="M19.5256 15.2191H19.4756V15.2691V16.1666V16.2166H19.5256H20.4231H20.4731V16.1666V15.2691V15.2191H20.4231H19.5256Z" fill="#009B3E" stroke="#009B3E" stroke-width="0.1"/>
<path d="M21.3206 15.2191H21.2706V15.2691V16.1666V16.2166H21.3206H22.218H22.268V16.1666V15.2691V15.2191H22.218H21.3206Z" fill="#009B3E" stroke="#009B3E" stroke-width="0.1"/>
<path d="M19.5256 17.9115H19.4756V17.9615V18.8589V18.9089H19.5256H20.4231H20.4731V18.8589V17.9615V17.9115H20.4231H19.5256Z" fill="#009B3E" stroke="#009B3E" stroke-width="0.1"/>
<path d="M21.3206 17.9115H21.2706V17.9615V18.8589V18.9089H21.3206H22.218H22.268V18.8589V17.9615V17.9115H22.218H21.3206Z" fill="#009B3E" stroke="#009B3E" stroke-width="0.1"/>
<path d="M2.92306 13.4243H13.2436H27.1538C27.5241 13.4243 27.8792 13.5714 28.1411 13.8333C28.4029 14.0951 28.55 14.4502 28.55 14.8205V19.3077C28.55 19.678 28.4029 20.0331 28.1411 20.2949C27.8792 20.5567 27.5241 20.7038 27.1538 20.7038H25.7484L25.394 22.1207C25.394 22.1207 25.394 22.1207 25.394 22.1207M2.92306 13.4243L22.6801 22.1086C22.7043 22.2057 22.7603 22.2919 22.8392 22.3535C22.9181 22.4152 23.0153 22.4487 23.1154 22.4487H24.9102C25.0103 22.4487 25.1075 22.4152 25.1864 22.3535C25.2653 22.2919 25.3213 22.2057 25.3455 22.1086L25.394 22.1207M2.92306 13.4243C2.55278 13.4243 2.19766 13.5714 1.93583 13.8333C1.674 14.0951 1.5269 14.4502 1.5269 14.8205V19.3077C1.5269 19.678 1.674 20.0331 1.93583 20.2949C2.19766 20.5567 2.55278 20.7038 2.92306 20.7038H4.32845L4.68288 22.1207L2.92306 13.4243ZM25.394 22.1207C25.3671 22.2286 25.3048 22.3245 25.2172 22.3929C25.1295 22.4614 25.0215 22.4987 24.9102 22.4987H23.1154C23.0041 22.4987 22.8961 22.4614 22.8084 22.3929C22.7208 22.3244 22.6585 22.2286 22.6316 22.1207M25.394 22.1207H22.6316M22.6316 22.1207C22.6316 22.1207 22.6316 22.1207 22.6316 22.1207L22.2772 20.7038H7.79972L7.44529 22.1207L7.44528 22.1207L7.39678 22.1086C7.37255 22.2057 7.31656 22.2919 7.23769 22.3535C7.15882 22.4152 7.06161 22.4487 6.96152 22.4487H5.16665C5.06656 22.4487 4.96935 22.4152 4.89048 22.3535C4.81161 22.2919 4.75561 22.2057 4.73139 22.1086L22.6316 22.1207ZM6.77139 20.7038L6.57203 21.5013H5.55614L5.35678 20.7038H6.77139ZM24.7201 20.7038L24.5208 21.5013H23.5049L23.3055 20.7038H24.7201ZM27.5525 14.8205V19.3077C27.5525 19.4134 27.5105 19.5148 27.4358 19.5896C27.361 19.6644 27.2596 19.7064 27.1538 19.7064H2.92306C2.81731 19.7064 2.7159 19.6644 2.64112 19.5896C2.56635 19.5148 2.52434 19.4134 2.52434 19.3077V14.8205C2.52434 14.7147 2.56635 14.6133 2.64112 14.5386C2.7159 14.4638 2.81731 14.4218 2.92306 14.4218H27.1538C27.2596 14.4218 27.361 14.4638 27.4358 14.5386C27.5105 14.6133 27.5525 14.7147 27.5525 14.8205Z" fill="#009B3E" stroke="#009B3E" stroke-width="0.1"/>
<defs>
<clipPath id="clip0">
<rect width="12.9231" height="12.9231" fill="white" transform="translate(15.5769 0.55127)"/>
</clipPath>
<clipPath id="clip1">
<rect width="12.9231" height="12.9231" fill="white" transform="translate(8.03857 0.55127)"/>
</clipPath>
<clipPath id="clip2">
<rect width="12.9231" height="12.9231" fill="white" transform="translate(0.5 0.55127)"/>
</clipPath>
</defs>
</svg>
