<svg width="24" height="24" viewBox="0 0 24 24" fill="none" xmlns="http://www.w3.org/2000/svg">
<path d="M5.24993 7.5C7.64993 4.8 12.9999 3.875 15.3749 3.75C18.7499 3.75 20.625 6.375 21.375 9C22.125 11.625 16.8749 18.375 8.62493 18.75C0.374932 19.125 2.24993 10.875 5.24993 7.5Z" fill="#E2A977" fill-opacity="0.15"/>
<path fill-rule="evenodd" clip-rule="evenodd" d="M13.5 1.50374V10.5001H22.4964C22.1325 5.70011 18.3 1.86758 13.5 1.50374ZM23.2484 10.5C23.2775 10.9132 22.9389 11.2501 22.5247 11.2501H13.5C13.0858 11.2501 12.75 10.9143 12.75 10.5001V1.47543C12.75 1.06121 13.0869 0.72265 13.5001 0.751745C18.7149 1.11896 22.8812 5.28522 23.2484 10.5Z" fill="#009B44"/>
<path fill-rule="evenodd" clip-rule="evenodd" d="M11.2623 2.97628C11.2623 2.97629 11.2623 2.97627 11.2623 2.97628L11.2623 12.7377H21.0238C21.438 12.7377 21.7774 13.0746 21.7483 13.4878C21.3637 18.9436 16.8159 23.2501 11.2623 23.2501C5.45653 23.2501 0.75 18.5435 0.75 12.7377C0.75 7.18413 5.0565 2.63638 10.5122 2.25175C10.9254 2.22262 11.2623 2.56208 11.2623 2.97628ZM20.9953 13.4886H11.2614C10.8472 13.4886 10.5114 13.1528 10.5114 12.7386V3.00473C5.4712 3.38815 1.50088 7.59928 1.50088 12.7377C1.50088 18.1288 5.87123 22.4992 11.2623 22.4992C16.4008 22.4992 20.6119 18.5288 20.9953 13.4886Z" fill="#009B44"/>
</svg>
