<svg width="28" height="28" viewBox="0 0 28 28" fill="none" xmlns="http://www.w3.org/2000/svg">
<path d="M21.4164 11.9076V7.47339C21.4283 5.46703 20.6269 3.53784 19.1963 2.13102C17.8133 0.753869 16.0028 0 14.0855 0C14.0558 0 14.0202 0 13.9905 0C9.90061 0.00593598 6.57646 3.35383 6.57646 7.47339V11.9076C5.03311 12.0916 3.90527 13.3856 3.90527 14.9527V24.9133C3.90527 26.605 5.25868 28 6.95043 28H21.0484C22.7401 28 24.0935 26.605 24.0935 24.9133V14.9527C24.0876 13.3916 22.9598 12.0916 21.4164 11.9076ZM7.75772 7.47339H7.76366C7.76366 4.00678 10.5595 1.16939 13.9964 1.16939H14.0024C15.6348 1.16345 17.2019 1.81047 18.3594 2.96205C19.5644 4.15518 20.2351 5.78164 20.2233 7.47339V11.9135H18.9174V7.47339C18.9292 6.12593 18.395 4.83188 17.4393 3.88213C16.537 2.97986 15.3142 2.46937 14.038 2.46937H14.0024C11.2718 2.46937 9.06364 4.71317 9.06364 7.46746V11.9135H7.75772V7.47339ZM17.7361 7.47339V11.9135H10.2568V7.47339C10.2568 5.37206 11.9307 3.6625 14.0083 3.6625H14.0439C15.0055 3.6625 15.9316 4.04834 16.6142 4.73097C17.3384 5.45516 17.748 6.44647 17.7361 7.47339ZM22.9598 24.9311C22.9598 25.9699 22.1168 26.8128 21.0781 26.8128H6.97417C5.93538 26.8128 5.09247 25.9699 5.09247 24.9311V14.9824C5.09247 13.9436 5.93538 13.1007 6.97417 13.1007H21.0781C22.1168 13.1007 22.9598 13.9436 22.9598 14.9824V24.9311Z" fill="#363636"/>
<path d="M16.0517 19.5887C15.7905 18.6686 14.9536 18.0394 13.9979 18.0394C12.8166 18.0394 11.855 18.9951 11.855 20.1823C11.855 21.138 12.4842 21.975 13.4043 22.2362V23.8982C13.4043 24.2247 13.6714 24.4918 13.9979 24.4918C14.3243 24.4918 14.5915 24.2247 14.5915 23.8982V22.2362C15.7252 21.9097 16.3841 20.7225 16.0517 19.5887ZM13.9979 21.1321C13.4696 21.1321 13.0422 20.7047 13.0422 20.1764C13.0422 19.6481 13.4696 19.2207 13.9979 19.2207C14.5262 19.2207 14.9536 19.6481 14.9536 20.1764C14.9536 20.7047 14.5262 21.1321 13.9979 21.1321Z" fill="#363636"/>
</svg>
