<svg width="121" height="25" viewBox="0 0 121 25" fill="none" xmlns="http://www.w3.org/2000/svg">
<path fill-rule="evenodd" clip-rule="evenodd" d="M111.021 11.4453C111.021 11.4359 111.016 11.3981 111.018 11.4069C110.967 10.9656 110.861 10.5327 110.7 10.1186C110.476 9.53312 110.131 9.00119 109.688 8.55719C109.261 8.13614 108.748 7.81221 108.184 7.6075C107.597 7.39393 106.977 7.2866 106.352 7.29052C105.739 7.28772 105.13 7.39508 104.554 7.6075C103.991 7.81423 103.479 8.13791 103.051 8.55719C102.603 9.0013 102.252 9.53281 102.019 10.1186C101.849 10.5441 101.737 10.9902 101.686 11.4453C101.653 11.7202 101.637 11.9968 101.638 12.2736C101.623 13.0083 101.748 13.7392 102.007 14.4272C102.23 15.0114 102.575 15.5415 103.018 15.9825C103.447 16.4007 103.96 16.7227 104.522 16.9268C105.11 17.1405 105.73 17.2478 106.355 17.2438C106.991 17.2489 107.623 17.1416 108.221 16.9268C108.784 16.7261 109.295 16.4037 109.719 15.9825C110.155 15.5395 110.493 15.0096 110.71 14.4272C110.964 13.7381 111.087 13.0077 111.072 12.2736C111.071 11.9967 111.054 11.7202 111.021 11.4453ZM108.697 13.5403C108.595 13.8916 108.428 14.2207 108.204 14.5102C107.993 14.7784 107.721 14.9929 107.411 15.1361C107.076 15.2817 106.714 15.3568 106.348 15.3568C105.982 15.3568 105.62 15.2817 105.285 15.1361C104.977 14.9917 104.708 14.7774 104.498 14.5102C104.274 14.2208 104.108 13.8917 104.006 13.5403C103.887 13.129 103.83 12.7024 103.835 12.2742C103.834 11.9976 103.856 11.7214 103.903 11.4487C103.929 11.3022 103.963 11.1572 104.004 11.0143C104.105 10.6604 104.272 10.3289 104.496 10.0377C104.707 9.76969 104.976 9.55331 105.283 9.40502C105.616 9.24812 105.981 9.17031 106.349 9.1777C106.714 9.17223 107.076 9.24756 107.409 9.39827C107.719 9.54143 107.991 9.7559 108.202 10.0242C108.427 10.3158 108.594 10.6474 108.695 11.0015C108.738 11.1496 108.773 11.3 108.799 11.4521C108.845 11.7239 108.868 11.9992 108.867 12.2749C108.873 12.7025 108.815 13.1286 108.697 13.5396L108.697 13.5403ZM99.857 7.51105V11.4453V17.0496H97.7243V7.51105H99.857ZM96.0833 14.4346C96.1036 14.8289 96.0298 15.2223 95.8681 15.5825C95.7064 15.9426 95.4613 16.2591 95.1532 16.5059C94.3267 17.0562 93.3403 17.3154 92.3501 17.2425C91.9703 17.2451 91.591 17.2199 91.2149 17.167C90.9128 17.1237 90.6136 17.0615 90.3192 16.9808C90.0909 16.9184 89.8671 16.8405 89.6495 16.7474C89.4881 16.6778 89.3304 16.5997 89.1773 16.5133L89.7783 14.8069C90.5679 15.2295 91.4542 15.4387 92.3494 15.414C92.5989 15.419 92.848 15.3937 93.0913 15.3384C93.2603 15.2997 93.4205 15.2294 93.5635 15.1314C93.6739 15.054 93.7594 14.9462 93.8096 14.8211C93.8564 14.6935 93.8793 14.5584 93.8771 14.4225C93.8758 14.2664 93.835 14.1132 93.7584 13.9772C93.6819 13.8412 93.5721 13.7269 93.4393 13.6448C92.9696 13.3568 92.4639 13.1323 91.9353 12.977C91.6259 12.8664 91.3161 12.7403 91.0058 12.5987C90.7029 12.4605 90.4218 12.2787 90.1715 12.0591C89.9716 11.8814 89.8003 11.6739 89.6636 11.4439L89.6603 11.4372V11.4318C89.6299 11.3805 89.6009 11.3286 89.5739 11.2747C89.4096 10.9241 89.3299 10.5399 89.3412 10.153C89.3346 9.74266 89.4186 9.33594 89.5874 8.96186C89.7481 8.6124 89.9864 8.30421 90.2841 8.06075C90.6079 7.80049 90.9796 7.60639 91.3782 7.48948C91.8484 7.34943 92.337 7.28122 92.8276 7.28714C93.8026 7.26682 94.7668 7.494 95.6301 7.94746L95.0149 9.64108C94.7313 9.49559 94.4363 9.37354 94.1327 9.27617C93.7537 9.16278 93.3594 9.10932 92.9639 9.11768C92.5844 9.08942 92.2044 9.16326 91.8631 9.3315C91.7533 9.40015 91.664 9.49716 91.6046 9.6123C91.5453 9.72744 91.5181 9.85643 91.5259 9.98573C91.5206 10.1415 91.5637 10.2952 91.6493 10.4255C91.7428 10.5556 91.8614 10.6656 91.998 10.7493C92.1625 10.8524 92.3364 10.9398 92.5173 11.0103C92.7138 11.0885 92.9303 11.1688 93.1669 11.2511C93.3159 11.3064 93.4576 11.3617 93.5938 11.4163L93.6302 11.4311L93.6552 11.4413C93.9472 11.56 94.2137 11.678 94.4511 11.794C94.7859 11.9522 95.093 12.1636 95.3603 12.4199C95.6001 12.6565 95.7844 12.9433 95.8999 13.2597C96.0297 13.6372 96.0921 14.0348 96.084 14.434L96.0833 14.4346ZM87.5788 7.51105V17.0496H85.4454V7.51105H87.5788ZM83.4901 9.57566C83.2931 10.1308 82.6436 11.854 82.5876 11.9984C82.2594 12.8424 81.9129 13.6967 81.5482 14.5614C81.1836 15.4261 80.8144 16.2564 80.4408 17.0523H78.3896C78.0155 16.2546 77.6461 15.4243 77.2815 14.5614C76.9166 13.6981 75.54 10.1523 75.3336 9.57834C75.0552 8.80718 74.8158 8.119 74.6152 7.51377H76.9672C77.1497 8.06459 77.348 8.65881 77.5621 9.29642C77.7759 9.93448 78.6858 12.5171 78.8672 13.0202C79.0772 13.598 79.2732 14.0981 79.4553 14.5203C79.6289 14.0981 79.8227 13.598 80.0367 13.0202C80.2229 12.5171 80.4994 11.7482 80.693 11.2025C80.9178 10.5698 81.1366 9.93448 81.3493 9.29642C81.562 8.65837 81.76 8.06414 81.9435 7.51377H84.2131C84.005 8.1172 83.7641 8.8045 83.4907 9.57566H83.4901ZM43.8515 7.51105V11.4453V17.0496H42.0607C41.4501 15.9578 40.7891 14.8797 40.0778 13.8154C39.5517 13.0269 38.7362 11.9498 38.136 11.1971C38.0274 11.0622 37.9188 10.9314 37.8081 10.7998V17.0489H35.7024V7.51105H37.4385C37.7398 7.81367 38.0725 8.18532 38.4368 8.62598C38.801 9.06664 39.1724 9.53696 39.551 10.037C39.8565 10.4417 40.158 10.8592 40.4636 11.2868L40.5553 11.417L40.5614 11.4257L40.5756 11.4453C40.61 11.4939 40.643 11.5431 40.6787 11.5924C41.0524 12.1292 41.4034 12.6463 41.7316 13.1437V7.51377L43.8515 7.51105ZM34.1302 15.246V17.0489H27.4164V11.4453V7.51105H33.8159V9.31396H29.5498V11.189H33.337V11.448V12.9514H29.5498V15.2494L34.1302 15.246ZM25.8449 15.246V17.0489H19.1311V7.51105H25.5299V9.31396H21.2638V11.189H25.0517V11.448V12.9514H21.2638V15.2494L25.8449 15.246ZM17.2304 15.9825C17.0393 15.6228 16.841 15.2741 16.6355 14.9364C16.43 14.5987 16.2227 14.2777 16.0136 13.9733C15.8036 13.6661 15.6031 13.3932 15.412 13.1544C15.9345 12.9551 16.3913 12.6144 16.7313 12.1704C16.8934 11.9541 17.0106 11.7076 17.076 11.4453V11.4419V11.4372V11.4285C17.1519 11.1381 17.1889 10.8389 17.1859 10.5388C17.2188 10.0785 17.1315 9.61759 16.9324 9.20125C16.7334 8.7849 16.4296 8.42743 16.0507 8.16396C15.0596 7.59519 13.9234 7.32951 12.7828 7.39978C12.3907 7.39978 11.9463 7.41819 11.4494 7.45506C10.9651 7.49015 10.4833 7.55436 10.0067 7.64731V17.0489H12.1421V13.5666H13.195C13.3748 13.7869 13.5571 14.0322 13.742 14.3024C13.9268 14.5727 14.1114 14.8595 14.2957 15.1631C14.4823 15.4657 14.6647 15.7775 14.8427 16.0985C15.0208 16.4203 15.1962 16.7359 15.3688 17.0482H17.7612C17.5984 16.7006 17.4215 16.3454 17.2304 15.9825ZM12.7458 11.8601H12.1421V9.27214C12.2514 9.26269 12.3674 9.25391 12.4908 9.24447C12.6142 9.23503 12.7525 9.23097 12.9076 9.23097C13.4412 9.19988 13.9742 9.30141 14.459 9.52642C14.6325 9.62556 14.7742 9.77211 14.8673 9.94892C14.9605 10.1257 15.0013 10.3254 14.985 10.5246C14.9971 10.6946 14.9712 10.8651 14.9092 11.0238C14.8471 11.1825 14.7504 11.3253 14.6262 11.4419C14.5762 11.485 14.5224 11.5236 14.4657 11.5573C13.926 11.7984 13.3355 11.9035 12.7458 11.8635V11.8601ZM121 7.51039V17.0489H119.209C118.598 15.9571 117.937 14.8791 117.226 13.8148C116.693 13.0175 115.857 11.9148 115.254 11.16C115.155 11.04 115.056 10.9179 114.957 10.7991V17.0482H112.851V7.51105H114.587C114.888 7.81367 115.221 8.18532 115.586 8.62598C115.951 9.06664 116.322 9.53696 116.7 10.037C117.044 10.4907 117.386 10.9601 117.725 11.4453H117.713L117.828 11.5924C118.202 12.1292 118.553 12.6463 118.881 13.1437V7.51377L121 7.51039ZM8.02776 12.0119V16.7333C7.62684 16.8732 7.21549 16.9813 6.79752 17.0563C6.10786 17.1819 5.40752 17.2395 4.70661 17.2283C4.04703 17.2373 3.39141 17.1252 2.77221 16.8978C2.2125 16.6903 1.70572 16.3614 1.28834 15.9347C0.863949 15.4902 0.539876 14.9598 0.337998 14.3793C0.10364 13.7025 -0.0104936 12.9898 0.000757687 12.2736C0.00102037 11.9968 0.0172493 11.7202 0.0493348 11.4453V11.421C0.100691 10.987 0.207459 10.5613 0.367021 10.1543C0.593412 9.5697 0.93781 9.03796 1.37874 8.59226C1.80771 8.16511 2.32275 7.83422 2.88957 7.62167C3.48178 7.39925 4.1098 7.28745 4.74238 7.29184C5.14747 7.28852 5.55216 7.31831 5.9524 7.38088C6.26648 7.43032 6.57711 7.49948 6.88249 7.58795C7.1026 7.65097 7.31734 7.73148 7.52462 7.82874C7.69324 7.91102 7.81396 7.97512 7.8868 8.02099L7.27169 9.74156C6.95051 9.57411 6.61366 9.43858 6.26602 9.33689C5.86443 9.21882 5.44759 9.16086 5.02903 9.1649C4.63008 9.1277 4.22794 9.18354 3.85424 9.32808C3.48055 9.47262 3.14549 9.7019 2.87541 9.99787C2.5544 10.4185 2.34779 10.9151 2.27577 11.4393C2.23196 11.7161 2.20943 11.9959 2.20834 12.2763C2.20357 12.7063 2.25898 13.135 2.37293 13.5497C2.47051 13.9066 2.63784 14.2406 2.86529 14.5324C3.08379 14.8082 3.36497 15.0279 3.68546 15.1731C4.04668 15.3311 4.43792 15.4087 4.83208 15.4005C5.0695 15.4005 5.27182 15.3958 5.43909 15.3863C5.58847 15.3795 5.73708 15.361 5.88357 15.331V12.0119H8.02776Z" fill="white"/>
<path d="M53.129 9.51556C53.4366 12.7173 57.3148 14.844 61.1695 15.4213C60.6944 12.9788 60.4544 10.4964 60.4525 8.00811C59.3308 7.69717 57.4005 7.26012 56.9823 7.17513C56.518 7.08151 56.0455 7.0345 55.5719 7.03483C54.7221 7.04023 52.9489 7.6196 53.129 9.51556ZM69.0683 11.5195C67.1684 10.4556 65.1795 9.55917 63.1241 8.84042C63.025 11.1215 62.5437 13.3698 61.7003 15.4915C65.5637 15.9245 69.2363 14.7678 69.0697 11.5195H69.0683ZM71.9281 12.2675C71.9281 14.6937 71.2087 17.0655 69.8607 19.0829C68.5127 21.1003 66.5968 22.6726 64.3552 23.6011C62.1136 24.5296 59.6471 24.7725 57.2674 24.2992C54.8877 23.8258 52.7019 22.6575 50.9863 20.9419C49.2706 19.2262 48.1023 17.0404 47.6289 14.6607C47.1556 12.281 47.3985 9.81447 48.327 7.57289C49.2555 5.3313 50.8279 3.41542 52.8452 2.06745C54.8626 0.719485 57.2344 1.66916e-07 59.6607 1.66916e-07C61.2718 -0.000265595 62.8672 0.316829 64.3558 0.933216C65.8443 1.5496 67.1969 2.45319 68.3362 3.59236C69.4755 4.73154 70.3792 6.08399 70.9957 7.57248C71.6123 9.06096 71.9296 10.6563 71.9295 12.2675H71.9281ZM50.0574 6.7367C50.5363 6.54437 51.0456 6.43887 51.5615 6.42511C52.4509 6.48581 53.3502 6.57956 54.2594 6.70636C53.8606 6.68298 53.4647 6.66724 53.0717 6.65914C52.0201 6.72052 49.8679 7.57107 50.2159 9.97964C51.3956 18.1409 70.0632 19.9026 70.0571 12.0564C70.2878 12.1886 70.5164 12.3234 70.7431 12.461C70.7431 12.3983 70.7431 12.3363 70.7431 12.2736C70.7431 9.83252 69.9373 7.45973 68.4507 5.52355C66.9642 3.58737 64.88 2.19608 62.5218 1.56567C60.1636 0.935249 57.6632 1.10095 55.4088 2.03707C53.1544 2.97319 51.2721 4.62737 50.054 6.7428L50.0574 6.7367ZM69.5364 17.3038C64.5405 21.0377 51.6256 18.5597 48.5749 12.2836C48.5779 14.7723 49.4182 17.1876 50.9606 19.1407C52.5031 21.0938 54.6579 22.471 57.0782 23.0506C59.4984 23.6303 62.0433 23.3786 64.3032 22.3362C66.563 21.2937 68.4064 19.5211 69.5364 17.3038Z" fill="#159822"/>
</svg>
