<svg width="24" height="24" viewBox="0 0 24 24" fill="none" xmlns="http://www.w3.org/2000/svg">
<path fill-rule="evenodd" clip-rule="evenodd" d="M8.9425 5L7.98 3H2.5C1.6715 3 1 3.672 1 4.5V19.5C1 20.3285 1.6715 21 2.5 21H20.5C21.3285 21 22 20.328 22 19.5V6.5005C22.0005 5.672 21.3285 5 20.5 5H8.9425ZM21 19.5C21 19.7765 20.7699 20.0005 20.4865 20.0005H2.51351C2.23005 20.0005 2 19.7765 2 19.5V9.5C2 9.2235 2.23005 9 2.51351 9H20.4865C20.7699 9 21 9.2235 21 9.5V19.5ZM21 8.0005H2V4.5005C2 4.2245 2.224 4.0005 2.5 4.0005H7.492L8.489 6.0005H20.5C20.776 6.0005 21 6.2245 21 6.5005V7.0005V8.0005Z" fill="#7E7E7E"/>
<path fill-rule="evenodd" clip-rule="evenodd" d="M14.8887 10.1108L18.3889 13.611C18.6037 13.8258 18.6037 14.174 18.3889 14.3888L14.8887 17.889C14.674 18.1038 14.3257 18.1038 14.1109 17.889C13.8961 17.6742 13.8961 17.3259 14.1109 17.1112L16.6722 14.5499L5.00001 14.5499C4.69626 14.5499 4.45001 14.3036 4.45001 13.9999C4.45001 13.6961 4.69626 13.4499 5.00001 13.4499L16.6722 13.4499L14.1109 10.8886C13.8961 10.6738 13.8961 10.3256 14.1109 10.1108C14.3257 9.89601 14.674 9.89601 14.8887 10.1108Z" fill="#7E7E7E"/>
</svg>
