<svg width="28" height="28" viewBox="0 0 28 28" fill="none" xmlns="http://www.w3.org/2000/svg">
<path d="M9.95405 19.7969H4.21186C3.75883 19.7969 3.39155 20.1642 3.39155 20.6172C3.39155 21.0702 3.75883 21.4375 4.21186 21.4375H9.95405C10.4071 21.4375 10.7744 21.0702 10.7744 20.6172C10.7744 20.1642 10.4071 19.7969 9.95405 19.7969Z" fill="#363636"/>
<path d="M9.95405 16.5156H4.21186C3.75883 16.5156 3.39155 16.8829 3.39155 17.3359C3.39155 17.789 3.75883 18.1562 4.21186 18.1562H9.95405C10.4071 18.1562 10.7744 17.789 10.7744 17.3359C10.7744 16.8829 10.4071 16.5156 9.95405 16.5156Z" fill="#363636"/>
<path d="M9.95405 13.2344H4.21186C3.75883 13.2344 3.39155 13.6017 3.39155 14.0547C3.39155 14.5077 3.75883 14.875 4.21186 14.875H9.95405C10.4071 14.875 10.7744 14.5077 10.7744 14.0547C10.7744 13.6017 10.4071 13.2344 9.95405 13.2344Z" fill="#363636"/>
<path d="M4.21186 9.95312H15.6962C16.1493 9.95312 16.5166 9.58584 16.5166 9.13281C16.5166 8.67978 16.1493 8.3125 15.6962 8.3125H4.21186C3.75883 8.3125 3.39155 8.67978 3.39155 9.13281C3.39155 9.58584 3.75883 9.95312 4.21186 9.95312Z" fill="#363636"/>
<path d="M27.9998 8.22615C27.9998 8.07138 27.9764 6.7031 27.1795 5.9063C26.3823 5.10907 25.0131 5.08599 24.8594 5.08599C24.8594 5.08599 24.8594 5.08599 24.8594 5.08599C24.8591 5.08599 24.8589 5.08605 24.8586 5.08605C24.6525 5.08621 24.4368 5.16879 24.2794 5.32618C24.2793 5.32623 24.2793 5.32623 24.2793 5.32629L21.4399 8.1136V0.820312C21.4399 0.367281 21.0726 0 20.6196 0H18.1587C17.7056 0 17.3384 0.367281 17.3384 0.820312C17.3384 1.27263 16.9704 1.64062 16.518 1.64062C16.0657 1.64062 15.6977 1.27263 15.6977 0.820312C15.6977 0.367281 15.3304 0 14.8774 0H12.4165C11.9634 0 11.5962 0.367281 11.5962 0.820312C11.5962 1.27263 11.2282 1.64062 10.7758 1.64062C10.3235 1.64062 9.95554 1.27263 9.95554 0.820312C9.95554 0.367281 9.58825 0 9.13522 0H6.67429C6.22125 0 5.85397 0.367281 5.85397 0.820312C5.85397 1.27263 5.48598 1.64062 5.03366 1.64062C4.58134 1.64062 4.21335 1.27263 4.21335 0.820312C4.21335 0.367281 3.84607 0 3.39304 0H0.822722C0.60523 0 0.396543 0.0864609 0.242761 0.240242C0.0888706 0.394133 0.00246429 0.602766 0.00246429 0.820312V23.8984C0.00246429 26.16 1.84243 28 4.10403 28H22.2603C23.6172 28 24.7212 26.896 24.7212 25.5391V20.6172C24.7212 20.1642 24.3539 19.7969 23.9009 19.7969H21.44V15.0741C28.1963 8.3177 23.9776 12.5548 27.7594 8.80666C27.9161 8.65014 28 8.43484 27.9998 8.22615ZM26.3333 7.91263L24.282 9.91195C23.054 8.68399 23.1497 8.7797 23.1218 8.75181L25.1734 6.75232C25.4763 6.79541 25.848 6.89495 26.0194 7.06634C26.1855 7.23248 26.2886 7.59823 26.3333 7.91263ZM16.4028 17.791C15.9549 18.239 15.4005 18.5816 14.7996 18.7819L13.9781 19.0557L14.252 18.2341C14.4522 17.6333 14.7948 17.0789 15.2427 16.631L21.9618 9.91189C23.1898 11.1398 23.094 11.0441 23.1219 11.072C22.3901 11.8038 17.2327 16.9611 16.4028 17.791ZM23.0806 25.5391C23.0806 25.9914 22.7126 26.3594 22.2603 26.3594C21.808 26.3594 21.44 25.9914 21.44 25.5391V21.4375H23.0806V25.5391ZM19.7993 25.5391C19.7993 25.8266 19.8494 26.1026 19.9404 26.3594H4.10403C2.74707 26.3594 1.64309 25.2554 1.64309 23.8984V1.64062H2.71332C3.05184 2.59552 3.96419 3.28125 5.03372 3.28125C6.10324 3.28125 7.01554 2.59552 7.35411 1.64062H8.45557C8.79408 2.59552 9.70643 3.28125 10.776 3.28125C11.8455 3.28125 12.7578 2.59552 13.0963 1.64062H14.1978C14.5363 2.59552 15.4487 3.28125 16.5182 3.28125C17.5877 3.28125 18.5 2.59552 18.8386 1.64062H19.7995V9.75412L14.0825 15.4709C13.4555 16.098 12.9758 16.8742 12.6954 17.7154L11.9027 20.0934C11.8045 20.3882 11.8812 20.7132 12.1009 20.9328C12.3214 21.1533 12.6467 21.229 12.9404 21.131L15.3184 20.3383C16.1597 20.0579 16.9358 19.5782 17.5629 18.9512L19.7994 16.7147C19.7993 18.5664 19.7993 23.6859 19.7993 25.5391Z" fill="#363636"/>
</svg>
