<svg width="23" height="22" viewBox="0 0 23 22" fill="none" xmlns="http://www.w3.org/2000/svg">
<path fill-rule="evenodd" clip-rule="evenodd" d="M21.4763 16.3914L17.4302 13.6982C17.1829 13.5346 16.8827 13.47 16.5896 13.5175C16.2966 13.565 16.0323 13.7211 15.8498 13.9545L14.6697 15.4671C14.5947 15.5634 14.4878 15.63 14.3681 15.6548C14.2484 15.6796 14.1237 15.6611 14.0164 15.6026L13.7951 15.4797C12.4719 14.7595 11.2788 13.8236 10.2654 12.7109C9.15156 11.695 8.21191 10.5042 7.48376 9.18585L7.36787 8.96108C7.30619 8.85641 7.285 8.73288 7.30829 8.61372C7.33157 8.49456 7.39772 8.388 7.4943 8.31406L9.01157 7.13869C9.24426 6.95583 9.4002 6.69304 9.44891 6.40168C9.49762 6.11033 9.4356 5.81134 9.27498 5.56313L6.56708 1.52339C6.40056 1.2723 6.14317 1.09506 5.84864 1.02871C5.55412 0.962354 5.24526 1.01202 4.9866 1.16733L3.29024 2.18303C2.76061 2.49686 2.37208 3.00146 2.20494 3.59263C1.59382 5.80891 2.05743 9.63437 7.70501 15.2696C12.1936 19.7515 15.5337 20.9563 17.8306 20.9563C18.3608 20.9596 18.8889 20.891 19.4006 20.7525C19.9933 20.5834 20.4985 20.1944 20.8125 19.6654L21.8335 17.9775C21.9883 17.7183 22.0376 17.4099 21.9711 17.1156C21.9047 16.8213 21.7276 16.5636 21.4763 16.3956V16.3914Z" stroke="#393D38" stroke-width="2"/>
</svg>
