<svg width="20" height="20" viewBox="0 0 20 20" fill="none" xmlns="http://www.w3.org/2000/svg">
<path d="M7.89014 16C7.66354 16.0017 7.44403 15.9179 7.27217 15.764C7.18895 15.6907 7.12168 15.5998 7.07479 15.4974C7.02789 15.3949 7.00244 15.2832 7.00017 15.1697C6.9979 15.0562 7.01885 14.9435 7.06161 14.8391C7.10437 14.7347 7.16794 14.6409 7.24815 14.5641L11.8726 9.99941L7.24815 5.43472C7.16794 5.35789 7.10437 5.26413 7.06161 5.15971C7.01885 5.05529 6.9979 4.94261 7.00017 4.82911C7.00244 4.71561 7.02789 4.6039 7.07478 4.50143C7.12168 4.39896 7.18895 4.30807 7.27217 4.23479C7.44956 4.07927 7.67498 3.99593 7.90677 4.00015C8.13856 4.00438 8.36101 4.0959 8.53306 4.2578L13.7534 9.41043C13.8311 9.48533 13.8932 9.57619 13.9356 9.67729C13.9781 9.77838 14 9.88753 14 9.99788C14 10.1082 13.9781 10.2174 13.9356 10.3185C13.8932 10.4196 13.8311 10.5105 13.7534 10.5854L8.53306 15.737C8.35894 15.9072 8.12885 16.0013 7.89014 16Z" fill="#159822"/>
</svg>
