<svg width="44" height="44" viewBox="0 0 44 44" fill="none" xmlns="http://www.w3.org/2000/svg">
<path d="M44 22C44 34.1507 34.1507 44 22 44C9.84934 44 0 34.1507 0 22C0 9.84934 9.84934 0 22 0C34.1507 0 44 9.84934 44 22Z" fill="#EDF7F6"/>
<path d="M13.4818 9C13.2872 9 13.0945 9.03737 12.9147 9.10997C12.735 9.18257 12.5716 9.28899 12.434 9.42314C12.2964 9.55729 12.1873 9.71656 12.1128 9.89183C12.0383 10.0671 12 10.255 12 10.4447V33.5553C12 33.9385 12.1561 34.3059 12.434 34.5769C12.7119 34.8478 13.0888 35 13.4818 35H30.5182C30.9112 35 31.2881 34.8478 31.566 34.5769C31.8439 34.3059 32 33.9385 32 33.5553V15.6926L24.8587 9H13.4818Z" fill="#3F8483"/>
<path d="M32.0001 15.69H26.3407C26.1462 15.69 25.9535 15.6526 25.7738 15.5801C25.5941 15.5075 25.4309 15.4011 25.2934 15.267C25.1559 15.1328 25.0468 14.9736 24.9725 14.7984C24.8981 14.6232 24.86 14.4355 24.8601 14.2459V9L32.0001 15.69Z" fill="#104649"/>
<path d="M28 26.0214C28.0002 26.2812 27.9392 26.5385 27.8205 26.7785C27.7017 27.0185 27.5276 27.2367 27.308 27.4204C27.0884 27.6042 26.8276 27.7499 26.5406 27.8494C26.2536 27.9488 25.946 28 25.6354 28H8.36625C7.73868 28 7.13681 27.7915 6.69306 27.4205C6.2493 27.0494 6 26.5462 6 26.0214V19.9786C6 19.4538 6.2493 18.9506 6.69306 18.5795C7.13681 18.2085 7.73868 18 8.36625 18H25.6354C25.946 18 26.2536 18.0512 26.5406 18.1506C26.8276 18.2501 27.0884 18.3958 27.308 18.5796C27.5276 18.7633 27.7017 18.9815 27.8205 19.2215C27.9392 19.4615 28.0002 19.7188 28 19.9786V26.0214Z" fill="#104649"/>
<path d="M11.8037 19.5C12.1662 19.5 12.4776 19.5412 12.738 19.6236C13.0016 19.706 13.2225 19.8131 13.4004 19.9449C13.5817 20.0767 13.7267 20.2267 13.8355 20.3948C13.9442 20.5596 14.0266 20.7276 14.0826 20.899C14.1419 21.0704 14.1798 21.2352 14.1963 21.3934C14.2161 21.5516 14.226 21.6883 14.226 21.8037C14.226 21.8531 14.221 21.9141 14.2112 21.9866C14.2046 22.0558 14.1766 22.1234 14.1271 22.1893C14.0777 22.2552 13.9986 22.3112 13.8898 22.3573C13.7844 22.4035 13.6328 22.4266 13.435 22.4266C13.3691 22.4266 13.2867 22.4233 13.1879 22.4167C13.089 22.4068 12.9934 22.3854 12.9011 22.3524C12.8089 22.3161 12.7298 22.2667 12.6638 22.2041C12.5979 22.1382 12.565 22.0476 12.565 21.9322C12.565 21.7542 12.5534 21.5944 12.5304 21.4527C12.5106 21.311 12.4727 21.1907 12.4167 21.0918C12.3606 20.9929 12.2832 20.9171 12.1843 20.8644C12.0855 20.8117 11.9586 20.7853 11.8037 20.7853C11.6422 20.7853 11.5169 20.8199 11.428 20.8891C11.3423 20.955 11.2797 21.0275 11.2401 21.1066C11.194 21.2022 11.1676 21.3093 11.161 21.428V24.5621C11.1676 24.7072 11.194 24.834 11.2401 24.9428C11.2797 25.0384 11.3423 25.1257 11.428 25.2048C11.5169 25.2839 11.6422 25.3234 11.8037 25.3234C11.9586 25.3234 12.0855 25.2921 12.1843 25.2295C12.2832 25.1636 12.3606 25.0763 12.4167 24.9675C12.4727 24.8588 12.5106 24.7335 12.5304 24.5918C12.5534 24.4501 12.565 24.3018 12.565 24.1469C12.565 24.0975 12.5732 24.0464 12.5897 23.9936C12.6062 23.9409 12.6441 23.8931 12.7034 23.8503C12.7627 23.8041 12.85 23.7662 12.9654 23.7366C13.0807 23.7069 13.2373 23.6921 13.435 23.6921C13.6328 23.6921 13.7844 23.7152 13.8898 23.7613C13.9986 23.8041 14.0777 23.8552 14.1271 23.9145C14.1766 23.9706 14.2046 24.0266 14.2112 24.0826C14.221 24.1354 14.226 24.17 14.226 24.1864C14.226 24.549 14.165 24.8736 14.0431 25.1603C13.9211 25.4437 13.7481 25.6843 13.524 25.8821C13.3032 26.0798 13.0379 26.2314 12.7281 26.3369C12.4216 26.439 12.0838 26.4901 11.7147 26.4901C11.6554 26.4901 11.5581 26.4852 11.423 26.4753C11.2912 26.4654 11.1429 26.439 10.9781 26.3962C10.8133 26.3533 10.6436 26.2891 10.4689 26.2034C10.2943 26.1177 10.1344 25.9991 9.98941 25.8475C9.84769 25.6926 9.7307 25.5014 9.63842 25.274C9.54614 25.0433 9.5 24.7632 9.5 24.4336V21.6751C9.5 21.4049 9.53296 21.166 9.59887 20.9583C9.66478 20.7507 9.75047 20.5711 9.85593 20.4195C9.96469 20.2646 10.0883 20.1361 10.2267 20.0339C10.3651 19.9284 10.5068 19.8411 10.6518 19.7719C10.988 19.6137 11.3719 19.5231 11.8037 19.5Z" fill="white"/>
<path d="M16.5099 21.2797C16.5132 21.4181 16.5527 21.5433 16.6285 21.6554C16.7076 21.7641 16.8098 21.8679 16.935 21.9668C17.0636 22.0657 17.2086 22.1629 17.3701 22.2585C17.5315 22.3508 17.6963 22.4496 17.8644 22.5551C18.0358 22.6573 18.2022 22.7693 18.3637 22.8912C18.5252 23.0132 18.6702 23.1516 18.7987 23.3065C18.9273 23.4614 19.0311 23.6361 19.1102 23.8305C19.1893 24.025 19.2321 24.2458 19.2387 24.4929V24.5325C19.2387 24.8027 19.2057 25.0384 19.1398 25.2394C19.0739 25.4404 18.9866 25.6135 18.8778 25.7585C18.7691 25.9035 18.6422 26.0238 18.4972 26.1194C18.3522 26.2116 18.1989 26.2858 18.0374 26.3418C17.8792 26.3978 17.7177 26.4374 17.553 26.4605C17.3915 26.4835 17.2382 26.4967 17.0932 26.5H17.0438C16.7637 26.5 16.5181 26.472 16.3072 26.416C16.0963 26.3599 15.915 26.2858 15.7634 26.1935C15.6118 26.0979 15.4849 25.9892 15.3828 25.8672C15.2839 25.7453 15.2048 25.6201 15.1455 25.4915C15.0862 25.3597 15.0433 25.2295 15.0169 25.101C14.9906 24.9725 14.9774 24.8522 14.9774 24.7401C14.9774 24.6248 14.9972 24.5242 15.0367 24.4386C15.0763 24.3529 15.1274 24.2837 15.19 24.2309C15.2559 24.1749 15.33 24.1337 15.4124 24.1073C15.4981 24.081 15.5871 24.0678 15.6794 24.0678C15.7651 24.0678 15.8524 24.081 15.9414 24.1073C16.0337 24.1337 16.1161 24.1749 16.1886 24.2309C16.2644 24.2837 16.3253 24.3529 16.3715 24.4386C16.4209 24.521 16.4473 24.6182 16.4506 24.7302C16.4572 24.9774 16.5132 25.1471 16.6186 25.2394C16.7241 25.3284 16.8757 25.3729 17.0734 25.3729C17.1723 25.3696 17.2629 25.3581 17.3453 25.3383C17.431 25.3152 17.5035 25.2773 17.5629 25.2246C17.6222 25.1686 17.6683 25.096 17.7013 25.0071C17.7375 24.9148 17.7556 24.7994 17.7556 24.661C17.7556 24.4896 17.7161 24.3347 17.637 24.1963C17.5612 24.0579 17.4607 23.9294 17.3355 23.8107C17.2102 23.6921 17.0669 23.58 16.9054 23.4746C16.7439 23.3658 16.5791 23.2587 16.411 23.1532C16.2429 23.0445 16.0782 22.9324 15.9167 22.8171C15.7585 22.6984 15.6151 22.5699 15.4866 22.4315C15.3581 22.2931 15.2542 22.1398 15.1751 21.9718C15.0993 21.8037 15.0598 21.6125 15.0565 21.3983V21.3192C15.0598 20.9666 15.1059 20.6733 15.1949 20.4393C15.2872 20.2053 15.4207 20.0191 15.5953 19.8806C15.7733 19.7422 15.9908 19.645 16.2479 19.589C16.5049 19.5297 16.7999 19.5 17.1328 19.5H17.2613C17.5645 19.5 17.8216 19.533 18.0325 19.5989C18.2434 19.6648 18.4181 19.7488 18.5565 19.851C18.6982 19.9532 18.8086 20.0685 18.8877 20.197C18.9701 20.3256 19.0311 20.4524 19.0706 20.5777C19.1102 20.7029 19.1349 20.8199 19.1448 20.9287C19.1547 21.0374 19.1596 21.1248 19.1596 21.1907C19.1596 21.2895 19.1398 21.3802 19.1003 21.4626C19.064 21.5417 19.0129 21.6092 18.947 21.6653C18.8844 21.7213 18.8086 21.7658 18.7196 21.7987C18.6339 21.8284 18.54 21.8432 18.4379 21.8432C18.3588 21.8432 18.2797 21.8284 18.2006 21.7987C18.1215 21.7658 18.0506 21.7246 17.988 21.6751C17.9254 21.6257 17.8743 21.5697 17.8347 21.5071C17.7952 21.4411 17.7754 21.3752 17.7754 21.3093C17.7754 21.0391 17.726 20.8512 17.6271 20.7458C17.5315 20.6403 17.3898 20.5876 17.202 20.5876C17.113 20.5876 17.0257 20.5925 16.94 20.6024C16.8576 20.6123 16.7834 20.6403 16.7175 20.6864C16.6549 20.7293 16.6038 20.7968 16.5643 20.8891C16.528 20.9814 16.5099 21.1116 16.5099 21.2797Z" fill="white"/>
<path d="M23.7274 19.5395C23.823 19.5395 23.9153 19.556 24.0042 19.589C24.0932 19.6219 24.1707 19.6664 24.2366 19.7225C24.3058 19.7785 24.3602 19.846 24.3997 19.9251C24.4393 20.0009 24.459 20.0833 24.459 20.1723C24.459 20.2152 24.4557 20.2564 24.4492 20.2959C24.4459 20.3322 24.4409 20.3651 24.4343 20.3948C24.4244 20.431 24.4162 20.4623 24.4096 20.4887C24.1855 21.3686 23.9515 22.2667 23.7076 23.1829C23.4637 24.0958 23.2298 24.9906 23.0056 25.8672C22.9562 25.9793 22.8903 26.0782 22.8079 26.1638C22.7387 26.2396 22.6481 26.3089 22.536 26.3715C22.4273 26.4308 22.2905 26.4605 22.1257 26.4605H21.9675C21.8027 26.4605 21.6643 26.4308 21.5523 26.3715C21.4402 26.3089 21.3496 26.2396 21.2804 26.1638C21.198 26.0782 21.1337 25.9793 21.0876 25.8672L19.6836 20.4887C19.6737 20.4623 19.6655 20.431 19.6589 20.3948C19.6424 20.3289 19.6342 20.2547 19.6342 20.1723C19.6342 20.0833 19.6523 20.0009 19.6886 19.9251C19.7281 19.846 19.7808 19.7785 19.8468 19.7225C19.9127 19.6664 19.9901 19.6219 20.0791 19.589C20.1681 19.556 20.2637 19.5395 20.3658 19.5395C20.524 19.5395 20.6509 19.5742 20.7465 19.6434C20.8453 19.7126 20.9228 19.79 20.9788 19.8757C21.0414 19.9746 21.0876 20.0866 21.1172 20.2119C21.1568 20.3701 21.1996 20.5497 21.2458 20.7507C21.2919 20.9484 21.338 21.1544 21.3842 21.3686C21.4303 21.5829 21.4765 21.802 21.5226 22.0261C21.572 22.2469 21.6182 22.4612 21.661 22.6688C21.7632 23.1565 21.8653 23.6558 21.9675 24.1667H22.1257C22.2378 23.6558 22.3465 23.1565 22.452 22.6688C22.4948 22.4612 22.5393 22.2469 22.5855 22.0261C22.6349 21.802 22.6827 21.5829 22.7288 21.3686C22.775 21.1544 22.8194 20.9484 22.8623 20.7507C22.9051 20.5497 22.943 20.3701 22.976 20.2119C23.0089 20.0866 23.0567 19.9746 23.1194 19.8757C23.1754 19.79 23.2512 19.7126 23.3468 19.6434C23.4423 19.5742 23.5692 19.5395 23.7274 19.5395Z" fill="white"/>
</svg>
