<svg width="44" height="44" viewBox="0 0 44 44" fill="none" xmlns="http://www.w3.org/2000/svg">
<path d="M44 22C44 34.1507 34.1507 44 22 44C9.84934 44 0 34.1507 0 22C0 9.84934 9.84934 0 22 0C34.1507 0 44 9.84934 44 22Z" fill="#EDF7F6"/>
<path d="M13.4818 9C13.2872 9 13.0945 9.03737 12.9147 9.10997C12.735 9.18257 12.5716 9.28899 12.434 9.42314C12.2964 9.55729 12.1873 9.71656 12.1128 9.89183C12.0383 10.0671 12 10.255 12 10.4447V33.5553C12 33.9385 12.1561 34.3059 12.434 34.5769C12.7119 34.8478 13.0888 35 13.4818 35H30.5182C30.9112 35 31.2881 34.8478 31.566 34.5769C31.8439 34.3059 32 33.9385 32 33.5553V15.6926L24.8587 9H13.4818Z" fill="#3F8483"/>
<path d="M32.0001 15.69H26.3407C26.1462 15.69 25.9535 15.6526 25.7738 15.5801C25.5941 15.5075 25.4309 15.4011 25.2934 15.267C25.1559 15.1328 25.0468 14.9736 24.9725 14.7984C24.8981 14.6232 24.86 14.4355 24.8601 14.2459V9L32.0001 15.69Z" fill="#104649"/>
<path d="M28 26.0214C28.0002 26.2812 27.9392 26.5385 27.8205 26.7785C27.7017 27.0185 27.5276 27.2367 27.308 27.4204C27.0884 27.6042 26.8276 27.7499 26.5406 27.8494C26.2536 27.9488 25.946 28 25.6354 28H8.36625C7.73868 28 7.13681 27.7915 6.69306 27.4205C6.2493 27.0494 6 26.5462 6 26.0214V19.9786C6 19.4538 6.2493 18.9506 6.69306 18.5795C7.13681 18.2085 7.73868 18 8.36625 18H25.6354C25.946 18 26.2536 18.0512 26.5406 18.1506C26.8276 18.2501 27.0884 18.3958 27.308 18.5796C27.5276 18.7633 27.7017 18.9815 27.8205 19.2215C27.9392 19.4615 28.0002 19.7188 28 19.9786V26.0214Z" fill="#104649"/>
<path d="M9.66 22.93L8.4 21.02C8.32667 20.91 8.26 20.8 8.2 20.69C8.15 20.6 8.10333 20.505 8.06 20.405C8.02 20.305 8 20.22 8 20.15C8 20.06 8.025 19.9683 8.075 19.875C8.12833 19.7817 8.22 19.6967 8.35 19.62C8.5 19.54 8.63667 19.5 8.76 19.5C8.85333 19.5 8.93833 19.5217 9.015 19.565C9.095 19.605 9.16667 19.66 9.23 19.73C9.29667 19.7967 9.35833 19.8733 9.415 19.96C9.47167 20.0467 9.52667 20.1333 9.58 20.22L10.51 21.75H10.66L11.59 20.22C11.6433 20.1333 11.6983 20.0467 11.755 19.96C11.8117 19.8733 11.8717 19.7967 11.935 19.73C12.0017 19.66 12.0733 19.605 12.15 19.565C12.2267 19.5217 12.3133 19.5 12.41 19.5C12.47 19.5 12.5333 19.5117 12.6 19.535C12.67 19.5583 12.7433 19.59 12.82 19.63C12.96 19.7067 13.0567 19.79 13.11 19.88C13.1633 19.9667 13.19 20.0533 13.19 20.14C13.19 20.2133 13.1683 20.3 13.125 20.4C13.0817 20.5 13.0333 20.5967 12.98 20.69C12.92 20.8 12.85 20.91 12.77 21.02L11.52 22.93V23.02L12.91 25.21C12.98 25.32 13.04 25.43 13.09 25.54C13.1433 25.6467 13.17 25.7533 13.17 25.86C13.17 25.95 13.145 26.04 13.095 26.13C13.0483 26.2167 12.96 26.3 12.83 26.38C12.68 26.46 12.5433 26.5 12.42 26.5C12.3333 26.5 12.255 26.4833 12.185 26.45C12.115 26.4133 12.05 26.3667 11.99 26.31C11.93 26.2533 11.8733 26.1883 11.82 26.115C11.77 26.0417 11.72 25.9667 11.67 25.89L10.66 24.25H10.51L9.5 25.89C9.45 25.9667 9.39833 26.0417 9.345 26.115C9.295 26.1883 9.24 26.2533 9.18 26.31C9.12333 26.3667 9.06 26.4133 8.99 26.45C8.92 26.4833 8.84333 26.5 8.76 26.5C8.63333 26.5 8.5 26.46 8.36 26.38C8.22333 26.3 8.12833 26.2167 8.075 26.13C8.025 26.04 8 25.95 8 25.86C8 25.7533 8.025 25.6467 8.075 25.54C8.12833 25.43 8.19 25.32 8.26 25.21L9.66 23.02V22.93Z" fill="white"/>
<path d="M17.37 24.88C17.2733 24.88 17.19 24.8617 17.12 24.825C17.0533 24.7883 16.995 24.7417 16.945 24.685C16.895 24.6283 16.8517 24.565 16.815 24.495C16.7817 24.425 16.7533 24.3567 16.73 24.29L15.78 21.55H15.65V25.72C15.65 25.8267 15.6433 25.9267 15.63 26.02C15.6167 26.1133 15.5867 26.1967 15.54 26.27C15.4967 26.34 15.43 26.3967 15.34 26.44C15.2533 26.48 15.1333 26.5 14.98 26.5C14.8067 26.5 14.67 26.48 14.57 26.44C14.47 26.3967 14.395 26.34 14.345 26.27C14.295 26.1967 14.2633 26.1133 14.25 26.02C14.2367 25.9267 14.23 25.8267 14.23 25.72V20.64C14.23 20.4967 14.2333 20.3567 14.24 20.22C14.25 20.0833 14.2783 19.9617 14.325 19.855C14.3717 19.7483 14.445 19.6633 14.545 19.6C14.6483 19.5333 14.7933 19.5 14.98 19.5H15.66C15.7733 19.5 15.8683 19.505 15.945 19.515C16.025 19.5217 16.0983 19.55 16.165 19.6C16.2317 19.6467 16.2967 19.7233 16.36 19.83C16.4267 19.9367 16.4983 20.0883 16.575 20.285C16.655 20.4783 16.7467 20.7267 16.85 21.03C16.9533 21.33 17.08 21.7 17.23 22.14L17.36 22.54H17.48L17.64 22.04C17.7767 21.62 17.8933 21.265 17.99 20.975C18.0867 20.685 18.1717 20.4467 18.245 20.26C18.3183 20.07 18.3833 19.925 18.44 19.825C18.5 19.7217 18.5617 19.6467 18.625 19.6C18.6917 19.55 18.7633 19.5217 18.84 19.515C18.9167 19.505 19.01 19.5 19.12 19.5H19.85C20.0367 19.5 20.18 19.5333 20.28 19.6C20.3833 19.6633 20.4583 19.7483 20.505 19.855C20.5517 19.9617 20.5783 20.0833 20.585 20.22C20.595 20.3567 20.6 20.4967 20.6 20.64V25.72C20.6 25.8267 20.5933 25.9267 20.58 26.02C20.5667 26.1133 20.535 26.1967 20.485 26.27C20.435 26.34 20.36 26.3967 20.26 26.44C20.16 26.48 20.0233 26.5 19.85 26.5C19.6967 26.5 19.575 26.48 19.485 26.44C19.3983 26.3967 19.3317 26.34 19.285 26.27C19.2417 26.1967 19.2133 26.1133 19.2 26.02C19.1867 25.9267 19.18 25.8267 19.18 25.72V21.55H19.04L18.1 24.29C18.0733 24.3567 18.0433 24.425 18.01 24.495C17.9767 24.565 17.935 24.6283 17.885 24.685C17.835 24.7417 17.7767 24.7883 17.71 24.825C17.6433 24.8617 17.5633 24.88 17.47 24.88H17.37Z" fill="white"/>
<path d="M22.31 20.65C22.31 20.5067 22.3167 20.3667 22.33 20.23C22.3433 20.0933 22.375 19.9717 22.425 19.865C22.4783 19.755 22.555 19.6667 22.655 19.6C22.755 19.5333 22.8933 19.5 23.07 19.5C23.26 19.5 23.4083 19.5333 23.515 19.6C23.6217 19.6667 23.7 19.755 23.75 19.865C23.8 19.9717 23.83 20.0933 23.84 20.23C23.8533 20.3667 23.86 20.5067 23.86 20.65V25.03H24.84C24.9767 25.03 25.1117 25.0367 25.245 25.05C25.3783 25.0633 25.4967 25.095 25.6 25.145C25.7067 25.195 25.7917 25.2683 25.855 25.365C25.9183 25.4617 25.95 25.5933 25.95 25.76C25.95 25.93 25.9183 26.065 25.855 26.165C25.7917 26.2617 25.7067 26.335 25.6 26.385C25.4967 26.435 25.3783 26.4667 25.245 26.48C25.1117 26.4933 24.9767 26.5 24.84 26.5H23.42C23.2433 26.5 23.0867 26.4933 22.95 26.48C22.8133 26.4667 22.6967 26.435 22.6 26.385C22.5067 26.335 22.435 26.2617 22.385 26.165C22.335 26.065 22.31 25.93 22.31 25.76V20.65Z" fill="white"/>
</svg>
