<svg width="41" height="41" viewBox="0 0 41 41" fill="none" xmlns="http://www.w3.org/2000/svg">
    <path d="M33.0876 29.0648L28.627 24.4564C29.438 22.7805 29.9787 20.8254 29.9787 18.8703C29.9787 12.3067 24.8423 7 18.4894 7C12.1364 7 7 12.3067 7 18.8703C7 25.4339 12.1364 30.7406 18.4894 30.7406C20.3817 30.7406 22.2741 30.182 23.8961 29.3441L28.3567 33.9526C29.7084 35.3491 31.7359 35.3491 33.0876 33.9526C34.3041 32.5561 34.3041 30.4613 33.0876 29.0648ZM9.70338 18.8703C9.70338 13.8429 13.6233 9.79302 18.4894 9.79302C23.3554 9.79302 27.2753 13.8429 27.2753 18.8703C27.2753 23.8978 23.3554 27.9476 18.4894 27.9476C13.6233 27.9476 9.70338 23.8978 9.70338 18.8703Z" fill="white"/>
    <line x1="19" y1="14" x2="19" y2="24" stroke="white" stroke-width="2" stroke-linecap="round"/>
    <line x1="14" y1="19" x2="24" y2="19" stroke="white" stroke-width="2" stroke-linecap="round"/>
</svg>
