<svg width="29" height="29" viewBox="0 0 29 29" fill="none" xmlns="http://www.w3.org/2000/svg">
<g clip-path="url(#clip0)">
<path d="M25.875 0.9375H3.125C1.91881 0.9375 0.9375 1.91881 0.9375 3.125V17.125C0.9375 18.3312 1.91881 19.3125 3.125 19.3125H15.1672L15.7526 23.7002C15.8046 24.0944 15.9639 24.4671 16.2124 24.7778L17.2751 26.106C17.4606 26.3388 17.5625 26.6297 17.5625 26.9263V28.0625H24.5625V26.8423C24.5625 26.582 24.6386 26.3304 24.783 26.1143L25.945 24.3713C26.1856 24.0108 26.3125 23.5913 26.3125 23.1577V19.2683C27.3096 19.0649 28.0625 18.1816 28.0625 17.125V3.125C28.0625 1.91881 27.0812 0.9375 25.875 0.9375ZM25.4375 23.1577C25.4375 23.418 25.3614 23.6696 25.217 23.8857L24.055 25.6287C23.8144 25.9892 23.6875 26.4087 23.6875 26.8423V27.1875H18.4375V26.9263C18.4375 26.4319 18.2669 25.9463 17.958 25.5596L16.8953 24.2313C16.7461 24.0449 16.6508 23.8214 16.6193 23.5847L15.8156 17.5594C15.8138 17.5424 15.8125 17.5253 15.8125 17.5082C15.8125 17.2969 15.9844 17.125 16.1953 17.125H16.4215C16.6118 17.125 16.7706 17.2615 16.7995 17.4496L17.4347 21.5766C17.545 22.2927 18.1505 22.8125 18.875 22.8125H19.3125V11.4375C19.3125 11.1964 19.5085 11 19.75 11C19.9915 11 20.1875 11.1964 20.1875 11.4375V15.8125V19.3125V21.0625H21.0625V19.3125V15.8125C21.0625 15.5714 21.2585 15.375 21.5 15.375C21.7415 15.375 21.9375 15.5714 21.9375 15.8125V16.6875V21.0625H22.8125V16.6875C22.8125 16.4464 23.0085 16.25 23.25 16.25C23.4915 16.25 23.6875 16.4464 23.6875 16.6875V18V20.1875V21.0625H24.5625V20.1875V18C24.5625 17.7589 24.7585 17.5625 25 17.5625C25.2415 17.5625 25.4375 17.7589 25.4375 18V23.1577ZM19.75 10.125C19.0264 10.125 18.4375 10.7139 18.4375 11.4375V12.3116C17.8976 11.9056 17.5625 11.2621 17.5625 10.5625C17.5625 9.35631 18.5438 8.375 19.75 8.375C20.9562 8.375 21.9375 9.35631 21.9375 10.5625C21.9375 11.2621 21.6024 11.9052 21.0625 12.3112V11.4375C21.0625 10.7139 20.4736 10.125 19.75 10.125ZM27.1875 17.125C27.1875 17.6946 26.8204 18.1759 26.3125 18.357V18C26.3125 17.2764 25.7236 16.6875 25 16.6875C24.846 16.6875 24.6999 16.719 24.5625 16.768V16.6875C24.5625 15.9639 23.9736 15.375 23.25 15.375C23.0772 15.375 22.9131 15.4104 22.7617 15.4713C22.6108 14.9134 22.1051 14.5 21.5 14.5C21.346 14.5 21.1999 14.5315 21.0625 14.5805V13.3209C22.1182 12.8178 22.8125 11.7503 22.8125 10.5625C22.8125 8.87375 21.4383 7.5 19.75 7.5C18.0617 7.5 16.6875 8.87375 16.6875 10.5625C16.6875 11.7503 17.3818 12.8174 18.4375 13.3209V21.7411C18.3662 21.6597 18.3172 21.5582 18.2997 21.4436L17.6644 17.3166C17.5695 16.6984 17.0462 16.25 16.4215 16.25H16.1953C15.5019 16.25 14.9375 16.8144 14.9375 17.5082C14.9375 17.5634 14.9414 17.6185 14.9484 17.6741L15.0504 18.4375H3.125C2.40137 18.4375 1.8125 17.8486 1.8125 17.125V3.125C1.8125 2.40137 2.40137 1.8125 3.125 1.8125H25.875C26.5986 1.8125 27.1875 2.40137 27.1875 3.125V17.125Z" fill="#009B3E"/>
<path d="M11.6081 9.78114L10.125 9.35764V9.24126C10.6701 8.83045 11 8.18426 11 7.50045V6.71645C11 5.54045 10.1246 4.54383 9.00719 4.4467C8.39337 4.39245 7.78481 4.59983 7.33462 5.01283C6.88356 5.42583 6.625 6.01383 6.625 6.62501V7.50001C6.625 8.18383 6.95487 8.83045 7.5 9.24083V9.3572L6.01687 9.78114C5.08675 10.0467 4.4375 10.9077 4.4375 11.875V12.3125H13.1875V11.875C13.1875 10.9077 12.5382 10.0467 11.6081 9.78114ZM5.38906 11.4375C5.52819 11.0503 5.84713 10.7397 6.25706 10.6225L8.375 10.0174V8.75564L8.15756 8.6292C7.74588 8.38945 7.5 7.96726 7.5 7.50001V6.62501C7.5 6.25839 7.65488 5.90533 7.92613 5.65726C8.2 5.40614 8.55875 5.28714 8.9315 5.31776C9.60087 5.37595 10.125 5.98976 10.125 6.71601V7.50001C10.125 7.96726 9.87912 8.38945 9.46744 8.6292L9.25 8.75564V10.0174L11.3679 10.6225C11.7783 10.7397 12.0968 11.0503 12.2359 11.4375H5.38906Z" fill="#009B3E"/>
<path d="M2.6875 14.0625H14.9375V2.6875H2.6875V14.0625ZM3.5625 3.5625H14.0625V13.1875H3.5625V3.5625Z" fill="#009B3E"/>
<path d="M4 14.9375C3.27637 14.9375 2.6875 15.5264 2.6875 16.25C2.6875 16.9736 3.27637 17.5625 4 17.5625C4.72362 17.5625 5.3125 16.9736 5.3125 16.25C5.3125 15.5264 4.72362 14.9375 4 14.9375ZM4 16.6875C3.7585 16.6875 3.5625 16.4911 3.5625 16.25C3.5625 16.0089 3.7585 15.8125 4 15.8125C4.2415 15.8125 4.4375 16.0089 4.4375 16.25C4.4375 16.4911 4.2415 16.6875 4 16.6875Z" fill="#009B3E"/>
<path d="M7.5 14.9375C6.77637 14.9375 6.1875 15.5264 6.1875 16.25C6.1875 16.9736 6.77637 17.5625 7.5 17.5625C8.22362 17.5625 8.8125 16.9736 8.8125 16.25C8.8125 15.5264 8.22362 14.9375 7.5 14.9375ZM7.5 16.6875C7.2585 16.6875 7.0625 16.4911 7.0625 16.25C7.0625 16.0089 7.2585 15.8125 7.5 15.8125C7.7415 15.8125 7.9375 16.0089 7.9375 16.25C7.9375 16.4911 7.7415 16.6875 7.5 16.6875Z" fill="#009B3E"/>
<path d="M11 14.9375C10.2764 14.9375 9.6875 15.5264 9.6875 16.25C9.6875 16.9736 10.2764 17.5625 11 17.5625C11.7236 17.5625 12.3125 16.9736 12.3125 16.25C12.3125 15.5264 11.7236 14.9375 11 14.9375ZM11 16.6875C10.7585 16.6875 10.5625 16.4911 10.5625 16.25C10.5625 16.0089 10.7585 15.8125 11 15.8125C11.2415 15.8125 11.4375 16.0089 11.4375 16.25C11.4375 16.4911 11.2415 16.6875 11 16.6875Z" fill="#009B3E"/>
<path d="M25 2.6875C24.2764 2.6875 23.6875 3.27637 23.6875 4C23.6875 4.72362 24.2764 5.3125 25 5.3125C25.7236 5.3125 26.3125 4.72362 26.3125 4C26.3125 3.27637 25.7236 2.6875 25 2.6875ZM25 4.4375C24.7585 4.4375 24.5625 4.24106 24.5625 4C24.5625 3.75894 24.7585 3.5625 25 3.5625C25.2415 3.5625 25.4375 3.75894 25.4375 4C25.4375 4.24106 25.2415 4.4375 25 4.4375Z" fill="#009B3E"/>
<path d="M21.5 2.6875C20.7764 2.6875 20.1875 3.27637 20.1875 4C20.1875 4.72362 20.7764 5.3125 21.5 5.3125C22.2236 5.3125 22.8125 4.72362 22.8125 4C22.8125 3.27637 22.2236 2.6875 21.5 2.6875ZM21.5 4.4375C21.2585 4.4375 21.0625 4.24106 21.0625 4C21.0625 3.75894 21.2585 3.5625 21.5 3.5625C21.7415 3.5625 21.9375 3.75894 21.9375 4C21.9375 4.24106 21.7415 4.4375 21.5 4.4375Z" fill="#009B3E"/>
<path d="M18 2.6875C17.2764 2.6875 16.6875 3.27637 16.6875 4C16.6875 4.72362 17.2764 5.3125 18 5.3125C18.7236 5.3125 19.3125 4.72362 19.3125 4C19.3125 3.27637 18.7236 2.6875 18 2.6875ZM18 4.4375C17.7585 4.4375 17.5625 4.24106 17.5625 4C17.5625 3.75894 17.7585 3.5625 18 3.5625C18.2415 3.5625 18.4375 3.75894 18.4375 4C18.4375 4.24106 18.2415 4.4375 18 4.4375Z" fill="#009B3E"/>
</g>
<defs>
<clipPath id="clip0">
<rect width="28" height="28" fill="white" transform="translate(0.5 0.5)"/>
</clipPath>
</defs>
</svg>
