<svg id="Слой_1" data-name="Слой 1" xmlns="http://www.w3.org/2000/svg" viewBox="0 0 28 28"><defs><style>.cls-1{fill:#02af48;}</style></defs><path class="cls-1" d="M20.46,11.69H19.17l5.14,4.62h1.28l-5.13-4.62M21.94,15l-1.48,1.33H19.18L20.66,15h1.28m2.17-2,1.48-1.33H24.31L22.83,13h1.28M5.62,11.69l-.53.75,2.68,3.87H8.83L5.62,11.69m-1.36,2h1L3.47,16.31H2.41l1.85-2.67m11-2-.52.75,2.67,3.87h1.06l-3.21-4.62m-1.36,2H15l-1.84,2.67H12.06l1.85-2.67m-3-2v2.83A1,1,0,0,1,10,15.6H9.72v.71h.38a1.68,1.68,0,0,0,1.16-.5,1.93,1.93,0,0,0,.49-1.34V11.69h-.83"/></svg>