<svg width="29" height="29" viewBox="0 0 29 29" fill="none" xmlns="http://www.w3.org/2000/svg">
<g clip-path="url(#clip0)">
<path d="M2.83325 14.5H5.63325V15.4333H2.83325V14.5Z" fill="#009B3E"/>
<path d="M28.0333 6.1V0.966667C28.0333 0.708952 27.8244 0.5 27.5667 0.5H21.9667C21.709 0.5 21.5 0.708952 21.5 0.966667V6.1C21.2423 6.1 21.0333 6.30895 21.0333 6.56667V12.1667C21.0361 12.189 21.0404 12.2109 21.0463 12.2325C21.0488 12.2482 21.0436 12.2642 21.0463 12.2792L22.4463 17.8792C22.498 18.0875 22.6854 18.2336 22.9 18.2333H23.3667V24.0667C23.3667 24.9688 22.6354 25.7 21.7333 25.7C20.8312 25.7 20.1 24.9688 20.1 24.0667V4C20.1 2.06702 18.533 0.5 16.6 0.5C14.667 0.5 13.1 2.06702 13.1 4V25C13.1 25.3867 12.7867 25.7 12.4 25.7C12.0133 25.7 11.7 25.3867 11.7 25V4.93333C11.7 2.48493 9.71507 0.5 7.26667 0.5C4.81826 0.5 2.83333 2.48493 2.83333 4.93333V10.7667H2.36667C2.1527 10.7667 1.96608 10.9123 1.9139 11.1199L0.5139 16.7199C0.510254 16.7358 0.5139 16.7518 0.5139 16.7666C0.50752 16.7884 0.502962 16.8108 0.5 16.8333V22.4333C0.5 22.691 0.708952 22.9 0.966667 22.9V28.0333C0.966667 28.291 1.17562 28.5 1.43333 28.5H7.03333C7.29105 28.5 7.5 28.291 7.5 28.0333V22.9C7.75771 22.9 7.96667 22.691 7.96667 22.4333V16.8333C7.96393 16.811 7.9596 16.7891 7.95368 16.7675C7.95117 16.7518 7.95641 16.7358 7.95368 16.7208L6.55368 11.1208C6.50195 10.9125 6.31465 10.7664 6.1 10.7667H5.63333V4.93333C5.63333 4.03122 6.36455 3.3 7.26667 3.3C8.16878 3.3 8.9 4.03122 8.9 4.93333V25C8.9 26.933 10.467 28.5 12.4 28.5C14.333 28.5 15.9 26.933 15.9 25V4C15.9 3.61331 16.2133 3.3 16.6 3.3C16.9867 3.3 17.3 3.61331 17.3 4V24.0667C17.3 26.5151 19.2849 28.5 21.7333 28.5C24.1817 28.5 26.1667 26.5151 26.1667 24.0667V18.2333H26.6333C26.8473 18.2333 27.0339 18.0877 27.0861 17.8801L28.4861 12.2801C28.4897 12.2642 28.4861 12.2482 28.4861 12.2334C28.4925 12.2116 28.497 12.1892 28.5 12.1667V6.56667C28.5 6.30895 28.291 6.1 28.0333 6.1ZM21.9667 7.03333H23.3667V8.43333C23.3667 8.69105 23.5756 8.9 23.8333 8.9H25.7C25.9577 8.9 26.1667 8.69105 26.1667 8.43333V7.03333H27.5667V11.7H21.9667V7.03333ZM25.2333 7.96667H24.3V5.16667H25.2333V7.96667ZM22.4333 1.43333H23.3667V3.33874H24.3V1.43333H25.2333V3.3H26.1667V1.43333H27.1V6.1H26.1667V4.7C26.1667 4.44229 25.9577 4.23333 25.7 4.23333H23.8333C23.5756 4.23333 23.3667 4.44229 23.3667 4.7V6.1H22.4333V1.43333ZM7.03333 21.9667H1.43333V17.3H7.03333V21.9667ZM6.56667 27.5667H5.63333V25.7H4.7V27.5667H3.76667V25.7H2.83333V27.5667H1.9V22.9H6.56667V27.5667ZM6.90231 16.3667H1.56436L2.73102 11.7H5.73564L6.90231 16.3667ZM25.2333 24.0667C25.2333 25.9996 23.6663 27.5667 21.7333 27.5667C19.8004 27.5667 18.2333 25.9996 18.2333 24.0667V4C18.2333 3.09788 17.5021 2.36667 16.6 2.36667C15.6979 2.36667 14.9667 3.09788 14.9667 4V25C14.9667 26.4175 13.8175 27.5667 12.4 27.5667C10.9825 27.5667 9.83333 26.4175 9.83333 25V4.93333C9.83333 3.51579 8.68421 2.36667 7.26667 2.36667C5.84912 2.36667 4.7 3.51579 4.7 4.93333V10.7667H3.76667V4.93333C3.76667 3.00036 5.33369 1.43333 7.26667 1.43333C9.19964 1.43333 10.7667 3.00036 10.7667 4.93333V25C10.7667 25.9021 11.4979 26.6333 12.4 26.6333C13.3021 26.6333 14.0333 25.9021 14.0333 25V4C14.0333 2.58245 15.1825 1.43333 16.6 1.43333C18.0175 1.43333 19.1667 2.58245 19.1667 4V24.0667C19.1667 25.4842 20.3158 26.6333 21.7333 26.6333C23.1509 26.6333 24.3 25.4842 24.3 24.0667V18.2333H25.2333V24.0667ZM26.269 17.3H23.2644L22.0977 12.6333H27.4356L26.269 17.3Z" fill="#009B3E"/>
<path d="M23.3667 13.5667H26.1667V14.5H23.3667V13.5667Z" fill="#009B3E"/>
<path d="M23.8333 15.4333H25.6999V16.3667H23.8333V15.4333Z" fill="#009B3E"/>
<path d="M2.83325 23.8333H5.63325V24.7667H2.83325V23.8333Z" fill="#009B3E"/>
<path d="M3.30005 12.6333H5.16672V13.5667H3.30005V12.6333Z" fill="#009B3E"/>
</g>
<defs>
<clipPath id="clip0">
<rect width="28" height="28" fill="white" transform="translate(0.5 0.5)"/>
</clipPath>
</defs>
</svg>
