<svg id="Слой_1" data-name="Слой 1" xmlns="http://www.w3.org/2000/svg" viewBox="0 0 28 28"><defs><style>.cls-1{fill:#02af48;}</style></defs><path class="cls-1" d="M6.9,15l7,9.09,7-9.08h-2c-1.66,0-1.8-.14-1.77-1.81a1.82,1.82,0,0,0,0-.25h.58c0,1.54.08,1.47,1.57,1.44.42,0,.84,0,1.27,0,1.33,0,1.55.08.59,1.24q-3.24,4.26-6.51,8.5c-.45.58-1,.52-1.53-.11l-4.67-6.1c-.55-.72-1.05-1.5-1.64-2.19-1.08-1.26-1.15-1.34.65-1.34.64,0,1.27,0,1.91,0s.76-.19.75-.77c0-3.12,0-6.25,0-9.37,0-.95.42-1.23,1.37-1.19v.55c-.67-.06-.78.26-.77.84,0,3.05,0,6.11,0,9.16,0,1.14-.22,1.36-1.36,1.38Z"/><path class="cls-1" d="M16.66,5.27a1.75,1.75,0,0,1-1.77,1.94c-1.12,0-1.77-.74-1.75-2a1.71,1.71,0,0,1,1.8-1.88C16,3.34,16.67,4.05,16.66,5.27Zm-2.9,0c0,.84.46,1.4,1.16,1.39S16,6.11,16,5.29s-.42-1.42-1.11-1.42S13.76,4.43,13.76,5.28Z"/><path class="cls-1" d="M21.68,8.39a1.81,1.81,0,0,1-1.79,1.94,1.75,1.75,0,0,1-1.76-1.94,1.78,1.78,0,1,1,3.55,0Zm-2.91,0c0,.87.42,1.39,1.13,1.39S21,9.23,21,8.35,20.58,7,19.92,7,18.77,7.5,18.77,8.37Z"/><path class="cls-1" d="M19.76,3.18l-5.06,7c-.23.31.29.61.52.3l5.06-6.95c.22-.31-.3-.61-.52-.3Z"/></svg>