<svg width="22" height="17" viewBox="0 0 22 17" fill="none" xmlns="http://www.w3.org/2000/svg">
<path d="M20.5751 10.0049C20.4377 10.0049 20.3059 10.0595 20.2087 10.1566C20.1115 10.2538 20.057 10.3856 20.057 10.523V15.9634H1.03627V10.523C1.03627 10.3856 0.981678 10.2538 0.88451 10.1566C0.787341 10.0595 0.655551 10.0049 0.518134 10.0049C0.380716 10.0049 0.248927 10.0595 0.151758 10.1566C0.054589 10.2538 0 10.3856 0 10.523V15.9634C0 16.2383 0.109178 16.5018 0.303516 16.6962C0.497854 16.8905 0.761432 16.9997 1.03627 16.9997H20.057C20.3318 16.9997 20.5954 16.8905 20.7897 16.6962C20.984 16.5018 21.0932 16.2383 21.0932 15.9634V10.523C21.0932 10.3856 21.0386 10.2538 20.9415 10.1566C20.8443 10.0595 20.7125 10.0049 20.5751 10.0049Z" fill="#F36C21"/>
<path d="M10.5476 0C10.4101 0 10.2784 0.0545885 10.1812 0.151757C10.084 0.248926 10.0294 0.380716 10.0294 0.518134V11.6062L6.26 7.82641C6.16278 7.72919 6.03092 7.67457 5.89342 7.67457C5.75593 7.67457 5.62407 7.72919 5.52684 7.82641C5.42962 7.92363 5.375 8.0555 5.375 8.19299C5.375 8.33049 5.42962 8.46235 5.52684 8.55957L10.19 13.2228C10.2382 13.2709 10.2953 13.3092 10.3582 13.3352C10.4211 13.3613 10.4885 13.3747 10.5566 13.3747C10.6247 13.3747 10.6921 13.3613 10.755 13.3352C10.8179 13.3092 10.8751 13.2709 10.9232 13.2228L15.5864 8.55957C15.6345 8.51143 15.6727 8.45428 15.6988 8.39138C15.7248 8.32848 15.7383 8.26107 15.7383 8.19299C15.7383 8.12491 15.7248 8.0575 15.6988 7.9946C15.6727 7.9317 15.6345 7.87455 15.5864 7.82641C15.5383 7.77827 15.4811 7.74008 15.4182 7.71403C15.3553 7.68798 15.2879 7.67457 15.2198 7.67457C15.1517 7.67457 15.0843 7.68798 15.0214 7.71403C14.9585 7.74008 14.9014 7.77827 14.8533 7.82641L11.0657 11.6062V0.518134C11.0657 0.380716 11.0111 0.248926 10.9139 0.151757C10.8168 0.0545885 10.685 0 10.5476 0Z" fill="#F36C21"/>
</svg>
