<svg width="118" height="27" viewBox="0 0 118 27" fill="none" xmlns="http://www.w3.org/2000/svg">
<path fill-rule="evenodd" clip-rule="evenodd" d="M12.9174 6.98892C14.552 6.98892 15.8488 7.54892 16.8076 8.66891C17.7665 9.7889 18.1341 11.1486 17.9105 12.748C17.6869 14.3434 16.9376 15.6945 15.6625 16.8014C14.4706 17.8774 12.9202 18.47 11.3144 18.4633C9.67878 18.4633 8.378 17.9093 7.41211 16.8014C6.44622 15.6935 6.08011 14.3424 6.31377 12.748C6.53737 11.1526 7.28269 9.79293 8.54972 8.66891C9.74148 7.57787 11.3017 6.97776 12.9174 6.98892ZM11.5758 16.4796C12.6316 16.4858 13.65 16.0893 14.4236 15.3707C15.2208 14.6892 15.7401 13.7387 15.883 12.6997C16.0281 11.6673 15.7889 10.787 15.1654 10.0588C14.5445 9.32761 13.703 8.96502 12.6409 8.96502C11.5897 8.95617 10.5744 9.34716 9.80065 10.0588C9.0106 10.7318 8.49549 11.6716 8.35332 12.6997C8.20527 13.7512 8.43994 14.644 9.05735 15.3783C9.67223 16.114 10.5137 16.4796 11.5758 16.4796Z" fill="#434343"/>
<path fill-rule="evenodd" clip-rule="evenodd" d="M0 18.1853L1.53797 7.18079H3.57148L2.30847 16.2107H5.67599L5.40103 18.1853H0Z" fill="#434343"/>
<path fill-rule="evenodd" clip-rule="evenodd" d="M23.3733 12.5788H30.5389C30.267 14.3021 29.5247 15.7121 28.3121 16.809C27.0994 17.9058 25.6203 18.4537 23.8749 18.4527C22.1919 18.4527 20.8644 17.9199 19.8925 16.8543C18.9206 15.7887 18.5565 14.4229 18.8002 12.7571C19.0093 11.1476 19.8187 9.67663 21.0664 8.63867C22.2733 7.56706 23.8336 6.979 25.4476 6.98739C26.7066 6.98739 27.7641 7.29207 28.6203 7.90141C29.4695 8.50506 30.0623 9.40446 30.2821 10.4229H27.8573C27.6346 9.95157 27.263 9.56665 26.7998 9.32759C26.297 9.07635 25.7406 8.95138 25.1787 8.96349C24.1243 8.95035 23.1021 9.32694 22.3082 10.021C21.5022 10.6922 20.9807 11.644 20.8488 12.6845C20.7649 13.1488 20.7807 13.6257 20.8953 14.0833C21.0099 14.541 21.2207 14.9691 21.5135 15.339C22.1098 16.0954 23.0077 16.4746 24.2073 16.4766C24.8997 16.4881 25.5834 16.3211 26.1924 15.9916C26.8265 15.646 27.3481 15.1259 27.6957 14.4929H23.1059L23.3733 12.5788Z" fill="#434343"/>
<path fill-rule="evenodd" clip-rule="evenodd" d="M31.1222 18.1853L32.6601 7.18079H34.6936L33.1542 18.1853H31.1222Z" fill="#434343"/>
<path fill-rule="evenodd" clip-rule="evenodd" d="M46.6169 10.3337H44.3039C44.0304 9.91063 43.6554 9.56267 43.2131 9.32148C42.7565 9.08101 42.2471 8.95845 41.7311 8.96493C40.6772 8.95355 39.6605 9.35353 38.8968 10.0799C38.1284 10.7511 37.6253 11.6749 37.4782 12.6845C37.3322 13.7249 37.5684 14.6203 38.1868 15.3706C38.8052 16.121 39.6411 16.4906 40.6947 16.4795C41.2083 16.4779 41.7162 16.3715 42.1873 16.1668C42.6973 15.9444 43.1525 15.6134 43.5213 15.1969H45.8857C45.3001 16.1683 44.4898 16.9849 43.5228 17.5779C42.5714 18.1597 41.476 18.4632 40.3608 18.4541C38.7493 18.4541 37.4692 17.9002 36.5204 16.7923C35.5716 15.6844 35.2131 14.3161 35.4447 12.6875C35.6653 11.1112 36.4061 9.76766 37.6671 8.65673C38.8489 7.57814 40.3939 6.98473 41.9939 6.99488C43.1331 6.99488 44.11 7.28998 44.9248 7.88019C45.7476 8.48556 46.3434 9.34951 46.6169 10.3337Z" fill="#434343"/>
<path fill-rule="evenodd" clip-rule="evenodd" d="M67.6164 18.1853L69.1574 7.18079H72.2364C73.4913 7.19086 74.4194 7.50057 75.0207 8.10991C75.622 8.71926 75.8466 9.55523 75.6945 10.6178C75.5785 11.5775 75.0989 12.4561 74.3545 13.0728C73.6001 13.7104 72.5738 14.0281 71.2755 14.0261H70.2331L69.6514 18.1868L67.6164 18.1853ZM70.9129 9.15537L70.508 12.0515H71.7166C72.1876 12.0752 72.654 11.9493 73.0492 11.692C73.2205 11.562 73.3633 11.3983 73.4688 11.211C73.5743 11.0236 73.6403 10.8166 73.6625 10.6027C73.731 10.1273 73.6303 9.76674 73.3604 9.52098C73.0915 9.27775 72.6775 9.15537 72.1215 9.15537H70.9129Z" fill="#434343"/>
<path fill-rule="evenodd" clip-rule="evenodd" d="M82.7665 6.98892C84.4011 6.98892 85.6979 7.54892 86.6567 8.66891C87.6156 9.7889 87.9832 11.1486 87.7596 12.748C87.534 14.3434 86.7846 15.6945 85.5116 16.8014C84.3192 17.8777 82.7682 18.4703 81.162 18.4633C79.5274 18.4633 78.2266 17.9093 77.2597 16.8014C76.2928 15.6935 75.9277 14.3424 76.1644 12.748C76.385 11.1526 77.1328 9.79444 78.3973 8.66891C79.5896 7.57778 81.1503 6.97768 82.7665 6.98892ZM81.4234 16.4796C82.4797 16.4861 83.4987 16.0895 84.2727 15.3707C85.0694 14.6887 85.5886 13.7385 85.7321 12.6997C85.8772 11.6673 85.638 10.787 85.0145 10.0588C84.3936 9.32761 83.5506 8.96502 82.49 8.96502C81.4388 8.95617 80.4235 9.34717 79.6497 10.0588C78.8597 10.7318 78.3446 11.6716 78.2024 12.6997C78.0544 13.7512 78.2885 14.644 78.9049 15.3783C79.5213 16.114 80.3628 16.4796 81.4234 16.4796Z" fill="#434343"/>
<path fill-rule="evenodd" clip-rule="evenodd" d="M90.1012 18.1853L88.4514 7.18079H90.5L91.3385 14.8842L94.2921 7.18079H95.7772L96.5734 14.8842L99.5692 7.18079H101.618L96.8891 18.1853H95.3209L94.5278 10.8067L91.6709 18.1853H90.1012Z" fill="#434343"/>
<path fill-rule="evenodd" clip-rule="evenodd" d="M101.19 18.1853L102.728 7.18079H108.634L108.358 9.15537H104.487L104.129 11.7041H107.838L107.56 13.6786H103.852L103.499 16.2107H107.37L107.095 18.1853H101.19Z" fill="#434343"/>
<path fill-rule="evenodd" clip-rule="evenodd" d="M108.921 18.1853L110.459 7.18079H113.645C114.972 7.18079 115.949 7.49301 116.576 8.11747C117.204 8.74192 117.441 9.59803 117.289 10.6858C117.171 11.572 116.766 12.3953 116.137 13.0305C115.53 13.6688 114.709 14.0605 113.831 14.1304L116.359 18.1853H113.882L111.592 14.1304H111.521L110.955 18.1853H108.921ZM112.218 9.15537L111.764 12.4322H112.973C113.516 12.4548 114.054 12.3183 114.52 12.0394C114.923 11.7766 115.165 11.3616 115.245 10.7946C115.326 10.2275 115.197 9.81558 114.858 9.55875C114.533 9.28983 114.058 9.15537 113.432 9.15537H112.218Z" fill="#434343"/>
<path fill-rule="evenodd" clip-rule="evenodd" d="M55.7386 9.48164L58.2782 0H55.8715L52.2457 13.5018C52.0674 14.1666 52.4617 14.7104 53.1265 14.7104H58.4006L59.156 12.2962H54.9787L55.7386 9.48164Z" fill="#F36C21"/>
<path fill-rule="evenodd" clip-rule="evenodd" d="M61.8756 9.2384C62.5418 9.2384 62.9331 9.77775 62.7579 10.447L61.0023 16.5475C60.9036 16.8811 60.7038 17.1757 60.4305 17.3909C60.1572 17.606 59.8238 17.731 59.4764 17.7486H56.3159C55.9155 19.2443 55.1481 22.08 54.7417 23.6029H55.3883L52.7263 26.28L51.5932 23.6029H52.332L54.2325 16.5475C54.3296 16.2127 54.5286 15.9165 54.8018 15.6999C55.0749 15.4833 55.4088 15.3571 55.7569 15.3389H58.919C59.1607 14.4325 59.7801 12.55 60.0233 11.6481H55.917L56.5486 9.23992L61.8756 9.2384Z" fill="#F36C21"/>
<path fill-rule="evenodd" clip-rule="evenodd" d="M52.7686 19.2563C51.4297 18.3318 50.4164 17.0088 49.8727 15.4753C49.3289 13.9419 49.2825 12.276 49.7399 10.7147C50.1974 9.15328 51.1354 7.77585 52.4207 6.77823C53.7059 5.7806 55.273 5.21355 56.899 5.15771L57.4792 2.98975C57.387 2.98975 57.2964 2.98975 57.2042 2.98975C55.0413 2.99261 52.9394 3.70617 51.2218 5.02061C49.5041 6.33505 48.2661 8.17752 47.6981 10.2645C47.1302 12.3514 47.2638 14.5672 48.0784 16.5708C48.893 18.5744 50.3434 20.2547 52.2065 21.3533L52.7686 19.2563Z" fill="#F36C21"/>
<path fill-rule="evenodd" clip-rule="evenodd" d="M58.2073 3.03357L57.6348 5.16528C58.7956 5.23438 59.926 5.56418 60.9419 6.13019C61.9578 6.6962 62.833 7.48386 63.5027 8.43464C64.1723 9.38542 64.6191 10.4749 64.8098 11.6221C65.0005 12.7692 64.9303 13.9446 64.6043 15.0609C64.2783 16.1772 63.7049 17.2057 62.9268 18.07C62.1487 18.9342 61.1858 19.612 60.1098 20.053C59.0337 20.494 57.8721 20.6868 56.7112 20.6171C55.5504 20.5475 54.4202 20.2171 53.4046 19.6506L52.8547 21.7023C54.1497 22.3384 55.5684 22.6827 57.011 22.711C58.4535 22.7393 59.8847 22.4508 61.2036 21.8659C62.5226 21.281 63.6972 20.4139 64.6446 19.3257C65.5921 18.2376 66.2893 16.9549 66.6872 15.568C67.085 14.1811 67.1739 12.7238 66.9474 11.2989C66.7209 9.87398 66.1846 8.51607 65.3763 7.32091C64.5681 6.12574 63.5075 5.12241 62.2693 4.38164C61.0312 3.64088 59.6457 3.18071 58.2104 3.03357" fill="#F36C21"/>
</svg>
