<svg width="8" height="14" viewBox="0 0 8 14" fill="none" xmlns="http://www.w3.org/2000/svg">
<path d="M1.0173 13.0886C0.758336 13.0905 0.507458 12.9997 0.311048 12.833C0.215949 12.7536 0.139065 12.6551 0.085469 12.5441C0.0318735 12.4331 0.00278436 12.3121 0.000190912 12.1891C-0.00240254 12.0661 0.0215398 11.9441 0.0704081 11.831C0.119276 11.7178 0.191934 11.6163 0.283603 11.533L5.56864 6.58798L0.283603 1.6429C0.191933 1.55967 0.119276 1.4581 0.0704076 1.34498C0.0215393 1.23186 -0.0024031 1.10978 0.000190335 0.986822C0.00278377 0.863862 0.0318729 0.74285 0.0854684 0.63184C0.139064 0.520831 0.215948 0.422361 0.311047 0.342976C0.513778 0.174494 0.771411 0.0842091 1.03631 0.0887891C1.30121 0.093369 1.55544 0.192515 1.75207 0.367902L7.71813 5.94992C7.80701 6.03106 7.87793 6.12949 7.92644 6.23902C7.97494 6.34854 8 6.46678 8 6.58633C8 6.70587 7.97494 6.82415 7.92644 6.93367C7.87793 7.0432 7.80701 7.14163 7.71813 7.22277L1.75207 12.8037C1.55308 12.988 1.29012 13.09 1.0173 13.0886Z" fill="#009B3E"/>
</svg>
