<svg width="170" height="35" viewBox="0 0 170 35" fill="none" xmlns="http://www.w3.org/2000/svg">
<path fill-rule="evenodd" clip-rule="evenodd" d="M155.984 16.0302C155.984 16.0169 155.978 15.9638 155.98 15.9763C155.909 15.3583 155.759 14.752 155.533 14.1722C155.218 13.3522 154.734 12.6072 154.112 11.9854C153.511 11.3963 152.789 10.9434 151.997 10.6577C151.172 10.3586 150.3 10.2084 149.422 10.214C148.56 10.2101 147.704 10.3604 146.896 10.6577C146.104 10.946 145.383 11.3986 144.78 11.9854C144.151 12.6073 143.658 13.3517 143.33 14.1722C143.091 14.7679 142.933 15.3928 142.86 16.0302C142.814 16.4153 142.791 16.8028 142.793 17.1907C142.772 18.2201 142.948 19.2439 143.311 20.2077C143.625 21.0259 144.109 21.7683 144.732 22.386C145.335 22.9712 146.056 23.4215 146.848 23.7066C147.673 24.0056 148.544 24.1559 149.422 24.1502C150.316 24.1575 151.203 24.0073 152.044 23.7066C152.834 23.426 153.553 22.9751 154.148 22.386C154.761 21.7655 155.235 21.0233 155.541 20.2077C155.898 19.2425 156.07 18.2192 156.05 17.1907C156.051 16.8029 156.029 16.4154 155.984 16.0302ZM152.719 18.9644C152.576 19.4567 152.341 19.9177 152.027 20.3233C151.73 20.6992 151.349 20.9997 150.913 21.2004C150.442 21.4044 149.933 21.5097 149.419 21.5097C148.905 21.5097 148.396 21.4044 147.925 21.2004C147.493 20.998 147.115 20.6977 146.82 20.3233C146.506 19.9179 146.272 19.4568 146.129 18.9644C145.962 18.3882 145.881 17.7905 145.889 17.1907C145.887 16.8031 145.92 16.4161 145.986 16.0341C146.023 15.8288 146.071 15.6258 146.129 15.4257C146.27 14.9299 146.505 14.4655 146.82 14.0574C147.116 13.682 147.494 13.3788 147.925 13.1709C148.393 12.951 148.906 12.8419 149.424 12.8523C149.937 12.8459 150.445 12.9526 150.912 13.1647C151.348 13.3653 151.73 13.6659 152.026 14.0417C152.342 14.4503 152.577 14.9149 152.718 15.4108C152.779 15.6182 152.828 15.8289 152.865 16.0419C152.928 16.4228 152.959 16.8084 152.958 17.1946C152.965 17.793 152.885 18.3893 152.719 18.9644ZM140.298 10.5194V16.0302V23.88H137.302V10.5194H140.298ZM134.996 20.2171C135.024 20.7693 134.921 21.3205 134.694 21.8249C134.466 22.3294 134.122 22.7728 133.689 23.1185C132.528 23.8893 131.142 24.2523 129.751 24.1502C129.217 24.154 128.684 24.1188 128.156 24.0448C127.731 23.9841 127.311 23.897 126.897 23.7839C126.577 23.6964 126.263 23.5871 125.957 23.4567C125.731 23.3591 125.509 23.2496 125.295 23.1287L126.138 20.7388C127.248 21.3299 128.493 21.6223 129.751 21.587C130.103 21.5945 130.454 21.5591 130.797 21.4815C131.035 21.4273 131.26 21.3291 131.461 21.1918C131.616 21.0835 131.736 20.9326 131.807 20.7575C131.873 20.5789 131.905 20.3896 131.903 20.1992C131.901 19.9805 131.844 19.7659 131.736 19.5754C131.629 19.3849 131.474 19.2246 131.288 19.1096C130.627 18.7055 129.916 18.3903 129.173 18.1724C128.738 18.0162 128.303 17.8395 127.867 17.6421C127.44 17.4499 127.044 17.1966 126.691 16.8901C126.411 16.6419 126.17 16.3521 125.978 16.0309L125.973 16.0216L125.968 16.0138C125.926 15.9419 125.885 15.8693 125.847 15.7935C125.616 15.3025 125.504 14.7642 125.52 14.2222C125.511 13.6475 125.629 13.0778 125.866 12.554C126.092 12.0645 126.427 11.6328 126.846 11.2918C127.301 10.9272 127.823 10.6553 128.383 10.4913C129.044 10.2965 129.731 10.2022 130.42 10.2117C131.79 10.1833 133.144 10.5014 134.357 11.1364L133.496 13.5083C133.097 13.3047 132.683 13.1339 132.256 12.9976C131.723 12.8385 131.168 12.7637 130.611 12.7758C130.078 12.7361 129.544 12.8394 129.064 13.0749C128.911 13.1715 128.786 13.3075 128.703 13.4687C128.621 13.6299 128.583 13.8103 128.594 13.991C128.587 14.2093 128.647 14.4245 128.768 14.6072C128.899 14.7894 129.065 14.9436 129.257 15.0609C129.488 15.2054 129.732 15.3277 129.987 15.4265C130.262 15.5358 130.567 15.6483 130.899 15.7638C131.108 15.8419 131.307 15.92 131.499 15.9981L131.55 16.0192L131.586 16.0333C131.996 16.1996 132.369 16.3644 132.704 16.5276C133.174 16.7493 133.606 17.0455 133.981 17.4047C134.319 17.7359 134.578 18.1377 134.74 18.5809C134.921 19.1073 135.007 19.661 134.996 20.2171ZM123.046 10.5194V23.88H120.049V10.5194H123.046ZM117.301 13.4091C117.025 14.1901 116.112 16.6003 116.034 16.8026C115.572 17.985 115.085 19.1805 114.573 20.3889C114.061 21.5974 113.543 22.7603 113.017 23.8776H110.136C109.61 22.7603 109.091 21.5974 108.579 20.3889C108.067 19.1799 106.132 14.2128 105.842 13.4091C105.451 12.3293 105.114 11.366 104.833 10.5194H108.137C108.394 11.291 108.672 12.1241 108.973 13.0186C109.274 13.9121 110.552 17.5297 110.807 18.2342C111.103 19.0433 111.378 19.7435 111.634 20.335C111.877 19.7441 112.149 19.0438 112.451 18.2342C112.712 17.5313 113.101 16.4519 113.373 15.6881C113.686 14.803 113.994 13.9131 114.295 13.0186C114.596 12.1241 114.875 11.291 115.13 10.5194H118.32C118.025 11.3676 117.686 12.3316 117.301 13.4115V13.4091ZM61.6063 10.5194V16.0302V23.88H59.0899C58.2323 22.3508 57.3036 20.8409 56.304 19.3502C55.5644 18.2459 54.419 16.7369 53.5753 15.6795C53.4186 15.4936 53.2705 15.307 53.1146 15.1234V23.8769H50.1563V10.5194H52.596C53.019 10.9438 53.4865 11.4644 53.9983 12.0814C54.5101 12.6984 55.0324 13.3573 55.5652 14.0581C55.9945 14.6236 56.4215 15.2093 56.8469 15.8091L56.9754 15.9911L56.984 16.0036L57.0036 16.0309C57.0521 16.0989 57.1007 16.1676 57.1485 16.2371C57.6734 16.9895 58.1665 17.7124 58.6276 18.406V10.5179L61.6063 10.5194ZM47.9462 21.3543V23.88H38.5128V16.0302V10.5194H47.5044V13.0452H41.5103V15.667H46.8314V16.0302V18.1389H41.5103V21.3574L47.9462 21.3543ZM36.3043 21.3543V23.88H26.8709V10.5194H35.8617V13.0452H29.8676V15.667H35.1895V16.0302V18.1389H29.8676V21.3574L36.3043 21.3543ZM24.2002 22.386C23.9312 21.8793 23.6525 21.3909 23.3642 20.9208C23.0759 20.4506 22.7847 20.0008 22.4907 19.5712C22.1951 19.1406 21.9133 18.7582 21.6454 18.4239C22.3795 18.1448 23.0213 17.6675 23.499 17.0455C23.7267 16.7426 23.8913 16.3974 23.9831 16.0302V16.0255V16.0192V16.0067C24.0905 15.6003 24.1432 15.1814 24.1398 14.761C24.1859 14.1163 24.0632 13.4708 23.7836 12.8876C23.5039 12.3045 23.077 11.8038 22.5447 11.4347C21.152 10.6382 19.5556 10.2662 17.953 10.3648C17.402 10.3648 16.7776 10.3908 16.0798 10.4429C15.3994 10.4921 14.7226 10.5821 14.053 10.7123V23.8808H17.0504V19.0034H18.5296C18.785 19.3122 19.0412 19.6558 19.2982 20.0344C19.5551 20.4129 19.8144 20.8149 20.0761 21.2402C20.3372 21.6646 20.5934 22.1014 20.8447 22.5507C21.0946 23.0014 21.3414 23.4434 21.5843 23.8784H24.946C24.7177 23.3911 24.4686 22.8936 24.2002 22.386ZM17.8989 16.612H17.0536V12.9874C17.2103 12.9741 17.367 12.9616 17.5433 12.9484C17.7195 12.9351 17.9115 12.9296 18.1293 12.9296C18.8792 12.8858 19.6283 13.028 20.3096 13.3435C20.5535 13.4823 20.7526 13.6875 20.8836 13.9351C21.0146 14.1828 21.072 14.4625 21.0491 14.7415C21.066 14.9795 21.0296 15.2183 20.9425 15.4405C20.8554 15.6627 20.7197 15.8628 20.5454 16.0263C20.4751 16.0866 20.3996 16.1407 20.3198 16.1879C19.5598 16.5247 18.7285 16.6703 17.8989 16.612ZM170 10.5202V23.8808H167.483C166.625 22.3516 165.697 20.8417 164.697 19.351C163.95 18.2342 162.774 16.6893 161.927 15.6326C161.787 15.4647 161.649 15.2937 161.508 15.1273V23.8808H158.549V10.5194H160.99C161.413 10.9438 161.88 11.4644 162.393 12.0814C162.905 12.6984 163.427 13.3573 163.96 14.0581C164.443 14.6939 164.924 15.3515 165.4 16.0309H165.377L165.539 16.2371C166.065 16.9895 166.558 17.7124 167.019 18.406V10.5179L170 10.5202ZM11.275 16.8252V23.4379C10.7115 23.6342 10.1333 23.7857 9.54588 23.8909C8.57607 24.067 7.59128 24.1478 6.60564 24.1322C5.67895 24.1446 4.75783 23.9877 3.88789 23.6691C3.10151 23.3783 2.38953 22.9174 1.80314 22.3195C1.20805 21.6968 0.753873 20.954 0.471286 20.1413C0.143243 19.1929 -0.0158241 18.1946 0.00124086 17.1915C0.00157521 16.8037 0.0243132 16.4162 0.0693807 16.0309L0.0733017 15.9966C0.145536 15.3885 0.295617 14.7922 0.519869 14.2222C0.838002 13.4037 1.32179 12.6593 1.94105 12.0354C2.54384 11.4369 3.26759 10.9734 4.06414 10.6756C4.89623 10.3639 5.77865 10.2072 6.66751 10.2133C7.23667 10.2087 7.80528 10.2505 8.36761 10.3382C8.80888 10.4074 9.24531 10.5042 9.67437 10.628C9.98376 10.7163 10.2855 10.8291 10.5769 10.9654C10.8119 11.081 10.9835 11.1708 11.0861 11.2348L10.2244 13.645C9.77407 13.41 9.30171 13.2196 8.81413 13.0764C8.24978 12.9109 7.66394 12.8295 7.07568 12.8351C6.51519 12.7831 5.95023 12.8613 5.42522 13.0638C4.90021 13.2663 4.42948 13.5874 4.05004 14.0019C3.5991 14.5911 3.30898 15.2866 3.20788 16.0208C3.14794 16.4084 3.11778 16.8001 3.11774 17.1923C3.11228 17.7949 3.19143 18.3953 3.35281 18.9761C3.48989 19.4761 3.72501 19.9441 4.04459 20.353C4.35165 20.7392 4.74674 21.0469 5.19703 21.2504C5.70517 21.472 6.25558 21.5807 6.81011 21.569C7.14385 21.569 7.42901 21.562 7.66561 21.5495C7.87625 21.5399 8.08585 21.5137 8.2924 21.4714V16.8252H11.275Z" fill="white"/>
<path d="M74.6429 13.3278C75.0745 17.8123 80.5241 20.7934 85.9401 21.6002C85.2723 18.1777 84.9349 14.6994 84.9325 11.2128C83.3563 10.7778 80.644 10.1655 80.0564 10.046C79.4042 9.91481 78.7405 9.84887 78.0751 9.84921C76.8788 9.86092 74.3874 10.6716 74.6429 13.3278ZM97.0391 16.1347C94.3694 14.6457 91.5748 13.3914 88.6868 12.3859C88.5474 15.5809 87.871 18.7299 86.6859 21.7016C92.1128 22.3046 97.2725 20.6848 97.0391 16.1308V16.1347ZM101.057 17.182C101.057 20.5803 100.047 23.9022 98.1526 26.7278C96.2587 29.5534 93.5669 31.7557 90.4174 33.0561C87.268 34.3566 83.8025 34.6968 80.4591 34.0338C77.1157 33.3709 74.0446 31.7344 71.6342 29.3315C69.2237 26.9286 67.5822 23.867 66.9171 20.534C66.2521 17.2011 66.5934 13.7464 67.8979 10.6068C69.2024 7.46716 71.4116 4.7837 74.246 2.89572C77.0804 1.00773 80.4127 0 83.8216 0C88.3927 0.000207128 92.7765 1.81056 96.0086 5.03279C99.2408 8.25502 101.057 12.6252 101.057 17.182H101.057ZM70.3277 9.43135C71.0012 9.16175 71.7175 9.01395 72.443 8.9948C73.6923 9.08019 74.9562 9.21166 76.2348 9.38921C75.6744 9.35641 75.1181 9.33426 74.5661 9.32281C73.0885 9.40872 70.0644 10.5998 70.5533 13.9737C72.2111 25.4083 98.4438 27.8755 98.432 16.8821C98.7564 17.067 99.0776 17.2544 99.3957 17.4444C99.3957 17.3569 99.3957 17.2695 99.3957 17.182C99.3946 13.764 98.262 10.4419 96.1738 7.73106C94.0855 5.02017 91.1583 3.07203 87.8461 2.18879C84.5339 1.30556 81.0219 1.53663 77.8548 2.84614C74.6878 4.15565 72.0428 6.47039 70.33 9.43135H70.3277ZM97.6972 24.2321C90.6775 29.4648 72.5307 25.9917 68.2445 17.2031C68.2487 20.6891 69.4295 24.0723 71.597 26.808C73.7644 29.5436 76.7923 31.4726 80.1932 32.2842C83.594 33.0958 87.1698 32.7429 90.345 31.2822C93.5202 29.8216 96.1099 27.3383 97.6972 24.2321Z" fill="white"/>
</svg>
