<svg width="12" height="12" viewBox="0 0 12 12" fill="none" xmlns="http://www.w3.org/2000/svg">
<path d="M11.2877 0.712232C11.0201 0.444555 10.5908 0.444555 10.3231 0.712232L5.99986 5.03546L1.67663 0.712232C1.40896 0.444555 0.979664 0.444555 0.711988 0.712232C0.444311 0.979909 0.444311 1.4092 0.711988 1.67688L5.03521 6.00011L0.711988 10.3233C0.444311 10.591 0.444311 11.0203 0.711988 11.288C0.843301 11.4193 1.02007 11.49 1.19179 11.49C1.3635 11.49 1.54027 11.4244 1.67158 11.288L5.99481 6.96476L10.318 11.288C10.4493 11.4193 10.6261 11.49 10.7978 11.49C10.9746 11.49 11.1463 11.4244 11.2776 11.288C11.5453 11.0203 11.5453 10.591 11.2776 10.3233L6.96451 6.00011L11.2877 1.67688C11.5554 1.4092 11.5554 0.979909 11.2877 0.712232Z" fill="#3F8483"/>
</svg>
