<svg width="22" height="19" viewBox="0 0 22 19" fill="none" xmlns="http://www.w3.org/2000/svg">
<path d="M10.7195 6.00183L13.7194 9.00171L13.7336 8.84458C13.7336 7.26844 12.4528 5.98755 10.8766 5.98755L10.7195 6.00183Z" fill="#8A8A8A"/>
<path d="M10.8766 4.08323C13.505 4.08323 15.6383 6.2165 15.6383 8.84496C15.6383 9.45922 15.5145 10.0449 15.3002 10.583L18.0858 13.3686C19.5239 12.1686 20.6572 10.6163 21.3571 8.84496C19.7048 4.66419 15.6431 1.70239 10.8766 1.70239C9.54332 1.70239 8.26721 1.94046 7.08154 2.36902L9.1386 4.4213C9.67662 4.2118 10.2623 4.08323 10.8766 4.08323Z" fill="#8A8A8A"/>
<path d="M1.35321 1.48767L3.52455 3.65902L3.95788 4.09235C2.38651 5.32087 1.14371 6.95415 0.400879 8.84452C2.04845 13.0253 6.11494 15.9871 10.8767 15.9871C12.3528 15.9871 13.7623 15.7014 15.0527 15.1823L15.4575 15.5871L18.2336 18.3679L19.4478 17.1585L2.56744 0.273438L1.35321 1.48767ZM6.61969 6.74938L8.09106 8.22075C8.04821 8.42552 8.01964 8.63025 8.01964 8.84452C8.01964 10.4207 9.30052 11.7016 10.8767 11.7016C11.0909 11.7016 11.2957 11.673 11.4957 11.6301L12.9671 13.1015C12.3337 13.4158 11.629 13.6063 10.8767 13.6063C8.2482 13.6063 6.11493 11.473 6.11493 8.84452C6.11493 8.09219 6.30542 7.38744 6.61969 6.74938Z" fill="#8A8A8A"/>
</svg>
