<svg width="24" height="24" viewBox="0 0 24 24" fill="none" xmlns="http://www.w3.org/2000/svg">
<g clip-path="url(#clip0)">
<path d="M12.75 3.74998C16.1455 4.98307 18.3519 10.8063 19.3452 12.9672C20.5918 16.1035 18.8449 18.8156 16.6825 20.4821C14.5201 22.1485 6.02055 24.0282 2.625 16.5C-0.770557 8.97185 8.50561 2.20863 12.75 3.74998Z" fill="#E2A977" fill-opacity="0.15"/>
<path d="M22.3199 13.4502L21.6984 10.9642C21.8683 10.9281 21.9958 10.7773 21.9958 10.5967V10.1959C21.9958 9.32561 21.2878 8.61761 20.4175 8.61761H17.5867V7.79087C17.5867 7.36262 17.2383 7.01425 16.81 7.01425H11.5463L14.745 5.73475C14.9377 5.65768 15.0314 5.43896 14.9543 5.24626C14.8773 5.05361 14.6587 4.95981 14.4659 5.03692L11.8468 6.08453C12.6449 5.57246 13.4345 5.00889 13.7351 4.61476C14.3203 3.84746 14.1721 2.74712 13.4048 2.16189C12.6375 1.57661 11.5372 1.72487 10.9519 2.49217C10.5243 3.05289 9.96014 4.6284 9.59498 5.73864C9.22983 4.6285 8.66564 3.05289 8.23805 2.49217C7.65286 1.72487 6.55247 1.5767 5.78517 2.16189C5.01788 2.74707 4.8697 3.84742 5.45489 4.61476C5.7555 5.00893 6.54506 5.57246 7.3432 6.08453L4.72411 5.03692C4.53131 4.95972 4.31269 5.05356 4.23563 5.24626C4.15852 5.43896 4.25227 5.65768 4.44497 5.73475L7.64372 7.01425H2.37994C1.95169 7.01425 1.60331 7.36262 1.60331 7.79087V14.6051C1.60331 14.8126 1.77155 14.9809 1.97911 14.9809C2.18663 14.9809 2.35491 14.8127 2.35491 14.6051V7.79087C2.35491 7.77704 2.36611 7.76584 2.37994 7.76584H16.81C16.8238 7.76584 16.835 7.77704 16.835 7.79087V14.6052C16.835 14.8127 17.0033 14.981 17.2108 14.981C17.4183 14.981 17.5866 14.8127 17.5866 14.6052V14.1792H22.0194C22.0198 14.1792 22.0201 14.1793 22.0206 14.1793C22.021 14.1793 22.0214 14.1792 22.0218 14.1792C22.5672 14.1797 23.0303 14.5377 23.1893 15.031H22.0208C21.8133 15.031 21.645 15.1992 21.645 15.4068V16.2084C21.645 16.8577 22.1732 17.3859 22.8225 17.3859H23.2484V19.0393H22.2658C21.943 18.1074 21.057 17.436 20.0167 17.436C18.9763 17.436 18.0902 18.1073 17.7675 19.0393H17.5866V16.2084C17.5866 16.0009 17.4183 15.8326 17.2108 15.8326C17.0033 15.8326 16.835 16.0008 16.835 16.2084V19.0393H9.0383C8.71552 18.1073 7.82953 17.4359 6.78914 17.4359C5.74875 17.4359 4.86272 18.1073 4.53998 19.0393H2.37994C2.36611 19.0393 2.35491 19.0281 2.35491 19.0142V18.1875H3.9833C4.19081 18.1875 4.35909 18.0193 4.35909 17.8117C4.35909 17.6042 4.19086 17.4359 3.9833 17.4359H0.375797C0.168281 17.4359 0 17.6042 0 17.8117C0 18.0193 0.168234 18.1875 0.375797 18.1875H1.60336V19.0142C1.60336 19.4425 1.95173 19.7909 2.37998 19.7909H4.40986C4.40977 19.7992 4.4092 19.8075 4.4092 19.8159C4.4092 21.1282 5.47688 22.1958 6.78914 22.1958C8.10141 22.1958 9.16908 21.1282 9.16908 19.8159C9.16908 19.8075 9.16852 19.7992 9.16842 19.7909H17.6373C17.6372 19.7992 17.6367 19.8075 17.6367 19.8159C17.6367 21.1282 18.7043 22.1958 20.0166 22.1958C21.3289 22.1958 22.3965 21.1282 22.3965 19.8159C22.3965 19.8075 22.396 19.7992 22.3959 19.7909H23.6242C23.8317 19.7909 24 19.6226 24 19.4151V15.4067C24 14.417 23.2698 13.5947 22.3199 13.4502ZM8.10469 5.67461C6.62236 4.75346 6.18267 4.32967 6.0525 4.15895C5.71861 3.72118 5.80317 3.09339 6.24098 2.7595C6.42145 2.62187 6.63417 2.55536 6.84534 2.55536C7.14637 2.55536 7.44422 2.69064 7.64048 2.94798C8.004 3.42461 8.5733 5.02881 8.94914 6.18479C8.6955 6.03545 8.40394 5.86065 8.10469 5.67461ZM10.2409 6.18475C10.6168 5.02881 11.1861 3.42465 11.5495 2.94793C11.8834 2.51017 12.5112 2.42565 12.949 2.7595C13.3868 3.09339 13.4713 3.72118 13.1375 4.15895C13.0073 4.32962 12.5676 4.75346 11.0854 5.67456C10.7862 5.86056 10.4946 6.0354 10.2409 6.18475ZM17.5867 9.36911H20.4175C20.8734 9.36911 21.2443 9.73998 21.2443 10.1958V10.2209H17.5867V9.36911ZM17.5867 13.4276V10.9725H20.9258L21.5396 13.4276H17.5867ZM6.78914 21.4443C5.89125 21.4443 5.16075 20.7138 5.16075 19.8159C5.16075 18.918 5.89125 18.1875 6.78914 18.1875C7.68703 18.1875 8.41753 18.918 8.41753 19.8159C8.41753 20.7138 7.68703 21.4443 6.78914 21.4443ZM20.0167 21.4443C19.1188 21.4443 18.3883 20.7138 18.3883 19.8159C18.3883 18.918 19.1188 18.1875 20.0167 18.1875C20.9146 18.1875 21.6451 18.918 21.6451 19.8159C21.6451 20.7138 20.9146 21.4443 20.0167 21.4443ZM23.2485 16.6343H22.8225C22.5877 16.6343 22.3966 16.4432 22.3966 16.2084V15.7824H23.2484V16.6343H23.2485Z" fill="#009B44"/>
<path d="M6.7892 19.0393C6.36095 19.0393 6.01257 19.3877 6.01257 19.8159C6.01257 20.2442 6.36095 20.5926 6.7892 20.5926C7.21745 20.5926 7.56582 20.2442 7.56582 19.8159C7.56582 19.3877 7.21745 19.0393 6.7892 19.0393Z" fill="#009B44"/>
<path d="M20.0167 19.0393C19.5885 19.0393 19.2401 19.3877 19.2401 19.8159C19.2401 20.2442 19.5885 20.5926 20.0167 20.5926C20.445 20.5926 20.7934 20.2442 20.7934 19.8159C20.7934 19.3877 20.445 19.0393 20.0167 19.0393Z" fill="#009B44"/>
<path d="M15.6075 17.4359H9.99579C9.78828 17.4359 9.62 17.6041 9.62 17.8117C9.62 18.0193 9.78823 18.1875 9.99579 18.1875H15.6075C15.815 18.1875 15.9833 18.0193 15.9833 17.8117C15.9833 17.6041 15.815 17.4359 15.6075 17.4359Z" fill="#009B44"/>
<path d="M5.98746 15.8327H1.17743C0.969917 15.8327 0.801636 16.0009 0.801636 16.2085C0.801636 16.4161 0.96987 16.5843 1.17743 16.5843H5.98746C6.19497 16.5843 6.36325 16.4161 6.36325 16.2085C6.36325 16.0009 6.19497 15.8327 5.98746 15.8327Z" fill="#009B44"/>
<path d="M4.0965 13.75C4.0485 13.75 4.0065 13.7335 3.9705 13.7005C3.9375 13.6645 3.921 13.6225 3.921 13.5745V10.411C3.921 10.36 3.9375 10.318 3.9705 10.285C4.0035 10.252 4.0455 10.2355 4.0965 10.2355H6.207C6.258 10.2355 6.3 10.252 6.333 10.285C6.366 10.315 6.3825 10.3555 6.3825 10.4065C6.3825 10.4515 6.366 10.4905 6.333 10.5235C6.3 10.5565 6.258 10.573 6.207 10.573H4.272V11.815H5.6805C5.7315 11.815 5.7735 11.8315 5.8065 11.8645C5.8395 11.8975 5.856 11.938 5.856 11.986C5.856 12.034 5.8395 12.0745 5.8065 12.1075C5.7735 12.1405 5.7315 12.157 5.6805 12.157H4.272V13.5745C4.272 13.6225 4.2555 13.6645 4.2225 13.7005C4.1895 13.7335 4.1475 13.75 4.0965 13.75ZM7.188 13.75C7.137 13.75 7.095 13.7335 7.062 13.7005C7.029 13.6675 7.0125 13.6255 7.0125 13.5745V10.411C7.0125 10.36 7.029 10.318 7.062 10.285C7.095 10.252 7.137 10.2355 7.188 10.2355H8.0295C8.2485 10.2355 8.4435 10.282 8.6145 10.375C8.7855 10.465 8.919 10.5925 9.015 10.7575C9.114 10.9195 9.1635 11.107 9.1635 11.32C9.1635 11.524 9.114 11.7055 9.015 11.8645C8.919 12.0235 8.7855 12.148 8.6145 12.238C8.4435 12.328 8.2485 12.373 8.0295 12.373H7.3635V13.5745C7.3635 13.6255 7.347 13.6675 7.314 13.7005C7.281 13.7335 7.239 13.75 7.188 13.75ZM9.069 13.75C9.03 13.75 8.9985 13.7425 8.9745 13.7275C8.9535 13.7125 8.934 13.69 8.916 13.66L8.052 12.283L8.403 12.193L9.2085 13.48C9.2535 13.552 9.261 13.615 9.231 13.669C9.204 13.723 9.15 13.75 9.069 13.75ZM7.3635 12.0355H8.0295C8.1825 12.0355 8.3175 12.0055 8.4345 11.9455C8.5545 11.8825 8.649 11.797 8.718 11.689C8.787 11.581 8.8215 11.458 8.8215 11.32C8.8215 11.173 8.787 11.044 8.718 10.933C8.649 10.819 8.5545 10.7305 8.4345 10.6675C8.3175 10.6045 8.1825 10.573 8.0295 10.573H7.3635V12.0355ZM9.96974 13.75C9.91874 13.75 9.87674 13.7335 9.84374 13.7005C9.81074 13.6675 9.79424 13.6255 9.79424 13.5745V10.411C9.79424 10.36 9.81074 10.318 9.84374 10.285C9.87674 10.252 9.91874 10.2355 9.96974 10.2355H12.0802C12.1282 10.2355 12.1687 10.252 12.2017 10.285C12.2377 10.315 12.2557 10.3555 12.2557 10.4065C12.2557 10.4515 12.2377 10.4905 12.2017 10.5235C12.1687 10.5565 12.1282 10.573 12.0802 10.573H10.1452V11.815H11.5537C11.6047 11.815 11.6467 11.8315 11.6797 11.8645C11.7127 11.8975 11.7292 11.938 11.7292 11.986C11.7292 12.034 11.7127 12.0745 11.6797 12.1075C11.6467 12.1405 11.6047 12.157 11.5537 12.157H10.1452V13.4125H12.0802C12.1282 13.4125 12.1687 13.429 12.2017 13.462C12.2377 13.495 12.2557 13.534 12.2557 13.579C12.2557 13.63 12.2377 13.672 12.2017 13.705C12.1687 13.735 12.1282 13.75 12.0802 13.75H9.96974ZM13.0855 13.75C13.0345 13.75 12.9925 13.7335 12.9595 13.7005C12.9265 13.6675 12.91 13.6255 12.91 13.5745V10.411C12.91 10.36 12.9265 10.318 12.9595 10.285C12.9925 10.252 13.0345 10.2355 13.0855 10.2355H15.196C15.244 10.2355 15.2845 10.252 15.3175 10.285C15.3535 10.315 15.3715 10.3555 15.3715 10.4065C15.3715 10.4515 15.3535 10.4905 15.3175 10.5235C15.2845 10.5565 15.244 10.573 15.196 10.573H13.261V11.815H14.6695C14.7205 11.815 14.7625 11.8315 14.7955 11.8645C14.8285 11.8975 14.845 11.938 14.845 11.986C14.845 12.034 14.8285 12.0745 14.7955 12.1075C14.7625 12.1405 14.7205 12.157 14.6695 12.157H13.261V13.4125H15.196C15.244 13.4125 15.2845 13.429 15.3175 13.462C15.3535 13.495 15.3715 13.534 15.3715 13.579C15.3715 13.63 15.3535 13.672 15.3175 13.705C15.2845 13.735 15.244 13.75 15.196 13.75H13.0855Z" fill="#009B44"/>
</g>
<defs>
<clipPath id="clip0">
<rect width="24" height="24" fill="white"/>
</clipPath>
</defs>
</svg>
