<svg width="28" height="28" viewBox="0 0 28 28" fill="none" xmlns="http://www.w3.org/2000/svg">
<path d="M14 3.28125C10.8338 3.28125 8.25781 5.8572 8.25781 9.02344C8.25781 10.9891 9.24908 12.7977 10.9094 13.8615C12.6049 14.9477 14.6862 15.0632 16.6202 14.1734C17.0318 13.984 17.212 13.4969 17.0226 13.0853C16.8332 12.6738 16.3461 12.4936 15.9345 12.6829C14.5203 13.3336 13.0113 13.2596 11.7945 12.4801C10.6072 11.7194 9.89844 10.4272 9.89844 9.02344C9.89844 6.76184 11.7384 4.92188 14 4.92188C16.2616 4.92188 18.1016 6.76184 18.1016 9.02344C18.1016 9.47576 17.7336 9.84375 17.2812 9.84375C16.8679 9.84375 16.4818 9.53028 16.461 9.03591C16.461 9.03175 16.4609 9.02759 16.4609 9.02344C16.4609 7.66648 15.357 6.5625 14 6.5625C12.643 6.5625 11.5391 7.66648 11.5391 9.02344C11.5391 10.3804 12.643 11.4844 14 11.4844C14.6298 11.4844 15.2048 11.2463 15.6406 10.8558C16.0763 11.2464 16.6514 11.4844 17.2812 11.4844C18.6382 11.4844 19.7422 10.3804 19.7422 9.02344C19.7422 5.8572 17.1662 3.28125 14 3.28125ZM14.8088 9.15502C14.7454 9.54488 14.4074 9.84375 14 9.84375C13.5477 9.84375 13.1797 9.47576 13.1797 9.02344C13.1797 8.57112 13.5477 8.20312 14 8.20312C14.4206 8.20312 14.7678 8.52141 14.8146 8.92965C14.8023 9.00419 14.8003 9.08004 14.8088 9.15502Z" fill="#363636"/>
<path d="M26.3046 10.7721C26.3044 10.56 26.219 10.348 26.0644 10.1934L23.0234 7.15241V0.820312C23.0234 0.367281 22.6562 0 22.2031 0H5.79688C5.34384 0 4.97656 0.367281 4.97656 0.820312V7.15241L1.93561 10.1934C1.93277 10.1962 1.93036 10.1994 1.92757 10.2023C1.77384 10.3607 1.6957 10.5692 1.69537 10.7721C1.69537 10.7727 1.69531 10.7732 1.69531 10.7737V25.5391C1.69531 26.8978 2.80087 28 4.15625 28H23.8438C25.2021 28 26.3047 26.8949 26.3047 25.5391V10.7737C26.3047 10.7732 26.3046 10.7727 26.3046 10.7721ZM23.0234 9.47259L24.3243 10.7734L23.0234 12.0743V9.47259ZM6.61719 7.49246C6.61719 7.4923 6.61719 7.49208 6.61719 7.49191V1.64062H21.3828V7.49191C21.3828 7.49208 21.3828 7.4923 21.3828 7.49246V13.7149L16.9415 18.1562H11.0585L6.61719 13.7149V7.49246ZM4.97656 9.47259V12.0743L3.67571 10.7734L4.97656 9.47259ZM3.33594 25.1993V12.7538L9.55866 18.9766L3.33594 25.1993ZM4.49608 26.3594L11.0585 19.7969H16.9415L23.5039 26.3594H4.49608ZM24.6641 25.1993L18.4413 18.9766L24.6641 12.7538V25.1993Z" fill="#363636"/>
</svg>
