<svg width="17" height="20" viewBox="0 0 17 20" fill="none" xmlns="http://www.w3.org/2000/svg">
<g clip-path="url(#clip0)">
<path d="M15.8333 8.33331C15.8333 14.1666 8.33325 19.1666 8.33325 19.1666C8.33325 19.1666 0.833252 14.1666 0.833252 8.33331C0.833252 6.34419 1.62343 4.43653 3.02995 3.03001C4.43647 1.62349 6.34413 0.833313 8.33325 0.833313C10.3224 0.833313 12.23 1.62349 13.6366 3.03001C15.0431 4.43653 15.8333 6.34419 15.8333 8.33331Z" stroke="#393D38" stroke-width="2" stroke-linecap="round" stroke-linejoin="round"/>
<path d="M8.33325 10.8333C9.71396 10.8333 10.8333 9.71403 10.8333 8.33331C10.8333 6.9526 9.71396 5.83331 8.33325 5.83331C6.95254 5.83331 5.83325 6.9526 5.83325 8.33331C5.83325 9.71403 6.95254 10.8333 8.33325 10.8333Z" stroke="#393D38" stroke-width="2" stroke-linecap="round" stroke-linejoin="round"/>
</g>
<defs>
<clipPath id="clip0">
<rect width="16.6667" height="20" fill="white"/>
</clipPath>
</defs>
</svg>
